{"glyphs":{"0":{"ha":713,"x_min":40,"x_max":672,"o":"m 375 728 q 594 635 515 728 q 672 375 672 543 q 585 86 672 189 q 340 -17 497 -17 q 119 76 199 -17 q 40 338 40 169 q 128 624 40 521 q 375 728 217 728 m 354 475 q 274 449 297 475 q 250 356 250 422 q 274 252 250 283 q 356 221 297 221 q 439 249 414 221 q 464 343 464 278 q 438 445 464 415 q 354 475 413 475 z "},"1":{"ha":526,"x_min":7,"x_max":421,"o":"m 407 292 l 418 0 l 143 0 l 154 264 l 154 415 l 24 388 l 7 400 l 7 619 l 382 725 l 421 697 l 407 292 z "},"2":{"ha":681,"x_min":36,"x_max":656,"o":"m 353 725 q 535 676 464 725 q 606 538 606 626 q 457 274 606 422 l 396 213 l 400 206 l 507 206 l 642 219 l 656 203 l 625 -11 l 425 0 l 106 0 l 56 -4 l 43 6 l 43 169 l 221 322 q 335 464 335 422 q 286 496 335 496 q 201 477 249 496 q 111 426 154 458 l 82 426 l 36 638 q 353 725 208 725 z "},"3":{"ha":629,"x_min":21,"x_max":589,"o":"m 304 728 q 506 671 429 728 q 582 521 582 614 q 458 326 582 397 l 458 318 q 589 131 589 271 q 540 -5 589 54 q 404 -97 492 -64 q 201 -129 317 -129 q 38 -114 117 -129 l 24 86 l 42 103 q 210 75 138 75 q 328 140 328 75 q 264 186 328 186 l 147 186 l 136 203 l 143 389 l 206 392 q 276 413 249 394 q 304 463 304 431 q 240 508 304 508 q 88 464 186 508 l 60 464 l 21 651 q 304 728 156 728 z "},"4":{"ha":735,"x_min":21,"x_max":704,"o":"m 599 42 l 607 -101 l 593 -119 l 381 -132 l 367 -115 l 372 44 l 193 44 l 38 39 l 21 61 l 21 232 l 349 714 l 599 714 l 593 251 l 689 251 l 704 228 l 693 39 l 599 42 m 378 251 l 376 417 l 361 417 l 250 251 l 378 251 z "},"5":{"ha":622,"x_min":6,"x_max":594,"o":"m 565 503 l 547 483 l 393 504 l 283 504 l 281 419 l 364 401 q 527 323 475 378 q 579 175 579 268 q 531 14 579 83 q 397 -94 483 -56 q 197 -132 311 -132 q 18 -112 110 -132 l 6 82 l 24 100 q 201 74 113 74 q 321 144 321 74 q 301 188 321 172 q 239 211 282 204 l 88 236 l 72 256 l 79 692 l 106 719 l 193 714 l 417 714 l 579 725 l 594 708 l 565 503 z "},"6":{"ha":692,"x_min":25,"x_max":663,"o":"m 421 522 q 551 487 497 522 q 634 394 606 451 q 663 271 663 336 q 627 133 663 199 q 519 25 592 67 q 340 -17 446 -17 q 109 70 193 -17 q 25 306 25 157 q 128 602 25 465 q 421 831 232 739 l 433 831 l 606 711 l 606 685 q 422 599 488 638 q 322 515 356 561 l 328 508 q 421 522 376 522 m 347 157 q 418 244 418 157 q 339 335 418 335 q 271 322 308 335 l 271 310 q 285 192 271 228 q 347 157 299 157 z "},"7":{"ha":625,"x_min":11,"x_max":592,"o":"m 513 714 l 592 717 l 592 519 l 410 124 l 313 -135 l 96 -75 l 79 -33 l 329 490 l 178 490 l 24 474 l 11 494 l 28 721 l 221 714 l 513 714 z "},"8":{"ha":715,"x_min":46,"x_max":665,"o":"m 379 831 q 575 773 504 831 q 646 618 646 715 q 535 440 646 513 l 535 429 q 665 242 665 363 q 576 52 665 121 q 336 -17 486 -17 q 121 42 196 -17 q 46 196 46 101 q 81 304 46 261 q 189 378 117 347 l 189 389 q 67 582 67 456 q 151 764 67 697 q 379 831 236 831 m 360 647 q 286 592 286 647 q 312 540 286 561 q 386 500 338 519 q 435 586 435 542 q 415 631 435 614 q 360 647 394 647 m 338 313 q 284 281 300 299 q 268 235 268 264 q 291 181 268 200 q 358 161 314 161 q 424 178 401 161 q 446 221 446 196 q 419 272 446 251 q 338 313 392 292 z "},"9":{"ha":692,"x_min":29,"x_max":667,"o":"m 271 190 q 140 226 194 190 q 58 319 86 261 q 29 442 29 376 q 65 580 29 514 q 173 688 100 646 q 351 729 246 729 q 583 642 499 729 q 667 407 667 556 q 563 110 667 247 q 271 -118 460 -26 l 258 -118 l 86 1 l 86 28 q 270 113 204 75 q 369 197 336 151 l 364 204 q 271 190 315 190 m 344 556 q 274 468 274 556 q 353 378 274 378 q 421 390 383 378 l 421 403 q 407 520 421 485 q 344 556 393 556 z "}," ":{"ha":188,"x_min":0,"x_max":0,"o":""},"!":{"ha":381,"x_min":38,"x_max":344,"o":"m 272 360 l 121 338 l 94 363 l 71 888 l 94 918 l 313 933 l 344 901 l 272 360 m 179 264 q 274 229 240 264 q 308 132 308 194 q 271 26 308 65 q 168 -12 233 -12 q 71 22 104 -12 q 38 119 38 56 q 76 225 38 186 q 179 264 114 264 z "},"\"":{"ha":615,"x_min":74,"x_max":565,"o":"m 231 517 l 108 497 l 88 513 l 74 885 l 283 897 l 297 881 l 231 517 m 499 517 l 376 497 l 356 513 l 342 885 l 551 897 l 565 881 l 499 517 z "},"#":{"ha":815,"x_min":28,"x_max":788,"o":"m 631 356 l 731 356 l 746 339 l 735 204 l 606 204 l 581 43 l 426 43 l 414 60 l 438 204 l 310 204 l 285 43 l 131 43 l 118 60 l 142 204 l 43 204 l 28 221 l 39 356 l 165 356 l 185 481 l 85 481 l 69 497 l 81 632 l 208 632 l 235 794 l 385 794 l 401 776 l 378 632 l 504 632 l 531 794 l 681 794 l 697 776 l 674 632 l 772 632 l 788 615 l 776 481 l 650 481 l 631 356 m 354 481 l 335 356 l 461 356 l 481 481 l 354 481 z "},"$":{"ha":651,"x_min":33,"x_max":606,"o":"m 606 236 q 554 86 606 153 q 397 -6 503 19 l 386 -197 l 226 -197 l 207 -176 l 217 -14 q 33 22 124 -4 l 71 246 l 94 264 q 213 193 149 221 q 318 165 276 165 q 351 188 351 165 q 333 215 351 204 q 267 243 314 225 q 161 289 204 265 q 86 358 118 313 q 54 472 54 403 q 107 623 54 558 q 256 713 160 688 l 265 899 l 421 899 l 444 878 l 436 724 q 593 689 514 717 l 556 475 l 519 465 q 419 517 471 497 q 338 536 367 536 q 308 518 308 536 q 328 489 308 500 q 396 460 349 478 q 501 415 458 438 q 574 348 543 392 q 606 236 606 304 z "},"%":{"ha":1235,"x_min":28,"x_max":1206,"o":"m 976 865 l 335 -131 l 221 -61 l 213 -37 l 857 964 l 963 899 l 976 865 m 275 910 q 437 846 381 910 q 493 661 493 782 q 430 460 493 531 q 249 390 367 390 q 85 454 142 390 q 28 636 28 518 q 92 839 28 768 q 275 910 157 910 m 258 743 q 203 722 219 743 q 188 649 188 701 q 203 567 188 592 q 260 543 219 543 q 318 566 301 543 q 335 640 335 589 q 317 719 335 696 q 258 743 300 743 m 988 510 q 1149 446 1093 510 q 1206 261 1206 382 q 1142 60 1206 131 q 961 -10 1079 -10 q 797 54 854 -10 q 740 236 740 118 q 805 439 740 368 q 988 510 869 510 m 971 343 q 916 322 932 343 q 900 249 900 301 q 916 167 900 192 q 972 143 932 143 q 1031 166 1014 143 q 1047 240 1047 189 q 1030 319 1047 296 q 971 343 1013 343 z "},"&":{"ha":944,"x_min":22,"x_max":1006,"o":"m 971 368 l 954 201 l 751 201 q 401 -18 665 -18 q 121 78 219 -18 q 22 353 22 175 q 112 626 22 525 q 361 726 201 726 q 504 692 456 726 q 557 599 553 658 q 881 989 789 785 l 901 989 q 1006 822 979 917 q 867 638 979 750 q 597 413 756 526 q 282 224 438 300 q 418 168 324 168 q 555 218 507 168 q 617 374 603 268 l 635 388 l 956 388 l 971 368 m 353 560 q 246 407 254 560 q 364 468 297 431 q 396 524 396 489 q 353 560 396 560 z "},"'":{"ha":347,"x_min":74,"x_max":297,"o":"m 231 517 l 108 497 l 88 513 l 74 885 l 283 897 l 297 881 l 231 517 z "},"(":{"ha":419,"x_min":78,"x_max":417,"o":"m 417 815 q 324 633 354 746 q 294 349 294 519 q 324 85 294 192 q 417 -90 354 -21 l 417 -111 l 321 -190 l 297 -190 q 131 24 185 -107 q 78 347 78 154 q 131 693 78 556 q 297 915 185 831 l 321 915 l 417 836 l 417 815 z "},")":{"ha":419,"x_min":3,"x_max":342,"o":"m 3 -90 q 95 92 65 -21 q 125 376 125 206 q 95 640 125 533 q 3 815 65 746 l 3 836 l 99 915 l 122 915 q 288 701 235 832 q 342 378 342 571 q 288 32 342 169 q 122 -190 235 -106 l 99 -190 l 3 -111 l 3 -90 z "},"*":{"ha":547,"x_min":24,"x_max":547,"o":"m 310 853 l 239 844 l 226 856 l 218 1019 q 353 1043 278 1040 l 360 1029 l 310 853 m 197 769 l 182 763 l 24 804 q 42 939 22 865 l 58 943 l 210 840 l 197 769 m 485 900 q 547 779 522 846 l 538 768 l 354 763 l 322 826 l 329 842 l 485 900 m 453 611 q 357 514 419 565 l 343 519 l 281 693 l 332 742 l 349 740 l 453 611 m 257 692 l 168 553 q 44 611 115 568 l 46 628 l 190 740 l 254 707 l 257 692 z "},"+":{"ha":667,"x_min":21,"x_max":647,"o":"m 425 444 l 631 444 l 647 426 l 635 264 l 425 264 l 425 53 l 263 40 l 244 57 l 244 264 l 38 264 l 21 282 l 33 444 l 244 444 l 244 656 l 407 668 l 425 651 l 425 444 z "},",":{"ha":317,"x_min":-8,"x_max":290,"o":"m 224 254 q 290 107 290 192 q 239 -48 290 26 q 79 -197 188 -122 l -6 -124 l -8 -104 q 69 47 69 -36 q 24 151 69 106 l 25 174 q 224 254 125 229 z "},"-":{"ha":415,"x_min":35,"x_max":381,"o":"m 381 286 l 54 233 l 35 253 l 35 419 l 360 472 l 379 453 l 381 286 z "},".":{"ha":317,"x_min":22,"x_max":293,"o":"m 164 264 q 259 229 225 264 q 293 132 293 194 q 256 26 293 65 q 153 -12 218 -12 q 56 22 89 -12 q 22 119 22 56 q 60 225 22 186 q 164 264 99 264 z "},"/":{"ha":389,"x_min":-39,"x_max":453,"o":"m 164 -164 l -24 -164 l -39 -143 l 250 949 l 432 949 l 453 926 l 164 -164 z "},":":{"ha":317,"x_min":15,"x_max":286,"o":"m 157 264 q 252 229 218 264 q 286 132 286 194 q 249 26 286 65 q 146 -12 211 -12 q 49 22 82 -12 q 15 119 15 56 q 53 225 15 186 q 157 264 92 264 m 157 618 q 252 583 218 618 q 286 486 286 549 q 249 381 286 419 q 146 342 211 342 q 49 376 82 342 q 15 474 15 410 q 53 579 15 540 q 157 618 92 618 z "},";":{"ha":317,"x_min":-15,"x_max":286,"o":"m 217 254 q 283 107 283 192 q 232 -48 283 26 q 72 -197 181 -122 l -12 -124 l -15 -104 q 63 47 63 -36 q 17 151 63 106 l 18 174 q 217 254 118 229 m 157 618 q 252 583 218 618 q 286 486 286 549 q 249 381 286 419 q 146 342 211 342 q 49 376 82 342 q 15 474 15 410 q 53 579 15 540 q 157 618 92 618 z "},"<":{"ha":667,"x_min":43,"x_max":622,"o":"m 43 463 l 43 246 l 553 60 l 575 78 l 611 228 l 228 354 l 228 367 l 613 494 l 622 513 l 567 667 l 60 486 l 43 463 z "},"=":{"ha":667,"x_min":21,"x_max":647,"o":"m 635 411 l 38 411 l 21 429 l 33 592 l 631 592 l 647 574 l 635 411 m 635 115 l 38 115 l 21 133 l 33 296 l 631 296 l 647 278 l 635 115 z "},">":{"ha":667,"x_min":44,"x_max":624,"o":"m 624 463 l 624 246 l 114 60 l 92 78 l 56 228 l 439 354 l 439 367 l 54 494 l 44 513 l 100 667 l 607 486 l 624 463 z "},"?":{"ha":488,"x_min":43,"x_max":533,"o":"m 115 940 q 425 872 317 932 q 533 708 533 813 q 498 597 533 649 q 396 510 463 544 l 315 468 l 311 460 l 321 361 l 132 333 l 114 350 l 96 525 l 104 540 l 221 586 q 288 667 288 614 q 239 725 288 706 q 63 753 190 744 l 43 778 l 92 928 l 115 940 m 238 264 q 333 229 299 264 q 367 132 367 194 q 329 26 367 65 q 226 -12 292 -12 q 129 22 163 -12 q 96 119 96 56 q 134 225 96 186 q 238 264 172 264 z "},"@":{"ha":1203,"x_min":26,"x_max":1189,"o":"m 1189 454 q 1038 119 1189 236 q 606 3 886 3 l 625 146 l 604 146 q 507 -7 557 54 l 476 -7 q 335 72 374 18 q 296 214 296 126 q 330 380 296 297 q 435 531 364 463 q 611 633 507 599 l 619 633 l 747 613 l 890 642 l 906 631 l 846 185 q 969 276 924 204 q 1015 446 1015 347 q 923 668 1015 586 q 674 750 831 750 q 426 690 533 750 q 261 524 319 629 q 203 283 203 418 q 268 42 203 143 q 452 -112 333 -60 q 728 -165 571 -165 l 738 -189 l 668 -312 q 329 -247 474 -312 q 106 -54 185 -182 q 26 254 26 74 q 108 590 26 439 q 339 828 190 742 q 682 915 488 915 q 948 860 833 915 q 1126 701 1063 806 q 1189 454 1189 597 m 540 208 q 660 411 576 208 l 664 440 l 575 463 q 513 311 513 463 q 540 208 513 208 z "},"A":{"ha":871,"x_min":3,"x_max":857,"o":"m 575 0 l 550 149 l 549 153 l 413 156 l 299 150 l 275 0 l 3 0 l 275 899 l 611 899 l 857 0 l 575 0 m 446 650 l 429 650 l 351 356 l 429 354 l 507 356 l 446 650 z "},"B":{"ha":874,"x_min":83,"x_max":839,"o":"m 672 463 q 799 388 760 438 q 839 260 839 339 q 724 55 839 119 q 382 -10 610 -10 q 83 0 256 -10 l 97 264 l 83 899 l 485 900 q 724 841 638 900 q 810 669 810 782 q 774 547 810 600 q 672 463 739 493 m 526 629 q 492 697 526 678 q 365 715 458 715 l 353 715 l 347 532 l 451 528 q 508 564 490 540 q 526 629 526 588 m 435 174 q 524 199 492 174 q 557 271 557 224 q 538 322 557 303 q 478 356 519 342 l 343 353 l 342 292 l 346 179 q 435 174 415 174 z "},"C":{"ha":714,"x_min":24,"x_max":714,"o":"m 489 914 q 714 876 608 914 l 667 656 l 649 644 q 565 676 613 664 q 478 688 518 688 q 356 638 393 688 q 318 474 318 589 q 361 277 318 339 q 496 215 404 215 q 667 244 586 215 l 689 231 l 667 11 q 474 -15 583 -15 q 137 101 250 -15 q 24 442 24 218 q 145 790 24 667 q 489 914 267 914 z "},"D":{"ha":924,"x_min":83,"x_max":900,"o":"m 489 904 q 794 797 688 904 q 900 486 900 689 q 776 117 900 246 q 422 -12 653 -12 q 83 0 278 -12 l 97 264 l 83 899 l 489 904 m 475 194 q 574 247 540 194 q 608 418 608 299 q 594 578 608 519 q 550 662 581 636 q 465 688 519 688 q 361 682 413 688 l 351 292 l 354 206 q 475 194 438 194 z "},"E":{"ha":751,"x_min":83,"x_max":743,"o":"m 733 203 l 717 0 l 83 0 l 97 264 l 83 899 l 728 899 l 743 879 l 725 676 l 504 685 l 361 685 l 358 558 l 496 558 l 640 563 l 656 543 l 639 340 l 478 344 l 353 344 l 351 292 l 354 214 l 488 214 l 718 222 l 733 203 z "},"F":{"ha":668,"x_min":83,"x_max":699,"o":"m 357 524 l 451 524 l 613 528 l 628 508 l 611 306 l 432 310 l 351 310 l 351 292 l 363 0 l 83 0 l 97 264 l 83 899 l 683 899 l 699 879 l 681 676 l 458 685 l 361 685 l 357 524 z "},"G":{"ha":828,"x_min":24,"x_max":790,"o":"m 531 914 q 790 872 681 914 l 731 626 l 708 626 q 588 676 639 661 q 478 692 538 692 q 380 671 414 692 q 331 597 346 650 q 315 444 315 544 q 331 290 315 343 q 383 215 346 236 q 489 193 419 193 q 539 199 508 193 l 539 243 l 535 394 l 789 413 l 785 290 l 785 44 q 464 -17 624 -17 q 135 99 246 -17 q 24 431 24 215 q 155 790 24 667 q 531 914 286 914 z "},"H":{"ha":988,"x_min":83,"x_max":903,"o":"m 899 0 l 619 0 l 633 264 l 632 333 l 482 336 l 353 332 l 351 292 l 363 0 l 83 0 l 97 264 l 83 899 l 367 899 l 358 558 l 499 556 l 626 558 l 619 899 l 903 899 l 888 292 l 899 0 z "},"I":{"ha":454,"x_min":83,"x_max":367,"o":"m 363 0 l 83 0 l 97 264 l 83 899 l 367 899 l 351 292 l 363 0 z "},"J":{"ha":503,"x_min":10,"x_max":422,"o":"m 410 172 q 381 25 410 85 q 284 -78 351 -35 q 97 -156 217 -121 l 25 -12 l 25 10 q 124 82 96 44 q 153 181 153 119 l 153 268 l 143 703 l 25 699 l 10 717 l 21 899 l 422 899 l 407 296 l 410 172 z "},"K":{"ha":872,"x_min":83,"x_max":899,"o":"m 607 474 q 899 58 735 274 l 894 28 q 617 -17 749 -4 l 586 0 q 354 413 444 243 l 351 292 l 363 0 l 83 0 l 97 264 l 83 899 l 367 899 l 357 524 l 529 801 l 576 899 l 871 899 l 607 474 z "},"L":{"ha":628,"x_min":76,"x_max":628,"o":"m 611 0 l 76 0 l 90 264 l 76 899 l 360 899 l 344 292 l 347 228 l 613 228 l 628 208 l 611 0 z "},"M":{"ha":1119,"x_min":36,"x_max":1075,"o":"m 831 0 l 824 272 l 808 499 l 792 499 l 647 85 l 438 85 l 318 499 l 301 499 l 282 299 l 268 0 l 36 0 l 124 899 l 444 899 l 471 771 l 550 444 l 567 444 l 654 761 l 686 899 l 1003 899 l 1075 0 l 831 0 z "},"N":{"ha":986,"x_min":83,"x_max":903,"o":"m 899 0 l 596 0 l 343 481 l 326 481 l 325 325 l 336 0 l 83 0 l 97 264 l 83 899 l 386 899 l 639 418 l 656 418 l 647 889 l 903 904 l 888 293 l 899 0 z "},"O":{"ha":907,"x_min":24,"x_max":883,"o":"m 474 915 q 776 799 669 915 q 883 472 883 683 q 766 111 883 239 q 433 -17 649 -17 q 131 101 238 -17 q 24 433 24 218 q 141 790 24 664 q 474 915 258 915 m 449 693 q 367 674 394 693 q 327 608 339 656 q 315 471 315 561 q 328 296 315 356 q 370 213 340 236 q 458 189 400 189 q 540 208 513 189 q 580 274 568 226 q 592 413 592 322 q 579 586 592 526 q 537 669 567 646 q 449 693 507 693 z "},"P":{"ha":824,"x_min":83,"x_max":824,"o":"m 510 900 q 742 826 661 900 q 824 614 824 751 q 774 426 824 507 q 632 299 724 344 q 421 254 540 254 l 353 254 l 363 0 l 83 0 l 97 264 l 83 899 l 510 900 m 460 449 q 515 502 497 469 q 532 586 532 535 q 503 676 532 647 q 411 707 474 704 l 361 703 l 356 454 l 460 449 z "},"Q":{"ha":918,"x_min":24,"x_max":1029,"o":"m 1029 -108 q 896 -285 975 -215 l 876 -294 q 456 -17 638 -174 l 433 -17 q 131 101 238 -17 q 24 433 24 218 q 141 790 24 664 q 474 915 258 915 q 776 799 669 915 q 883 472 883 683 q 699 54 883 176 q 1018 -83 861 -31 l 1029 -108 m 315 471 q 328 296 315 356 q 370 213 340 236 q 458 189 400 189 q 540 208 513 189 q 580 274 568 226 q 592 413 592 322 q 579 586 592 526 q 537 669 567 646 q 449 693 507 693 q 367 674 394 693 q 327 608 339 656 q 315 471 315 561 z "},"R":{"ha":876,"x_min":83,"x_max":875,"o":"m 675 354 q 875 65 775 199 l 871 35 q 592 -17 729 -8 l 565 6 q 446 268 476 196 l 353 268 l 363 0 l 83 0 l 97 264 l 83 899 l 510 900 q 743 828 661 900 q 825 622 825 757 q 785 474 825 543 q 675 354 746 404 m 532 594 q 503 677 532 650 q 411 707 475 704 l 361 703 l 356 471 l 457 465 q 514 514 496 483 q 532 594 532 544 z "},"S":{"ha":733,"x_min":25,"x_max":701,"o":"m 424 915 q 685 867 556 915 l 640 640 l 601 624 q 486 681 543 660 q 394 701 429 701 q 344 689 363 701 q 325 656 325 676 q 353 610 325 629 q 449 561 382 592 q 576 497 526 526 q 664 415 626 467 q 701 286 701 363 q 655 133 701 201 q 522 24 608 64 q 322 -17 436 -17 q 25 36 181 -17 l 65 278 l 93 294 q 230 217 157 246 q 351 189 303 189 q 425 235 425 189 q 395 284 425 264 q 299 333 365 304 q 173 397 222 367 q 88 478 124 426 q 51 607 51 531 q 99 765 51 694 q 231 875 146 835 q 424 915 315 915 z "},"T":{"ha":721,"x_min":11,"x_max":713,"o":"m 697 676 l 514 685 l 497 685 l 490 292 l 501 0 l 224 0 l 238 264 l 231 685 l 213 685 l 28 676 l 11 696 l 26 899 l 697 899 l 713 879 l 697 676 z "},"U":{"ha":907,"x_min":64,"x_max":843,"o":"m 832 300 q 729 65 831 147 q 439 -17 628 -17 q 160 65 257 -17 q 68 300 64 147 l 72 443 l 64 899 l 343 899 l 331 338 q 358 235 329 267 q 450 203 386 203 q 544 235 515 203 q 572 338 574 267 l 560 899 l 843 899 l 833 443 l 832 300 z "},"V":{"ha":854,"x_min":6,"x_max":860,"o":"m 251 0 l 6 899 l 288 899 l 313 750 l 417 249 l 433 249 l 561 733 l 588 899 l 860 899 l 588 0 l 251 0 z "},"W":{"ha":1269,"x_min":24,"x_max":1269,"o":"m 710 0 l 625 325 l 608 325 l 531 0 l 235 0 l 24 899 l 293 899 l 307 760 l 394 279 l 411 279 l 515 689 l 468 899 l 749 899 l 768 732 l 863 279 l 879 279 l 989 743 l 1014 899 l 1269 899 l 1004 0 l 710 0 z "},"X":{"ha":882,"x_min":-6,"x_max":892,"o":"m 892 0 l 560 0 l 513 110 l 432 256 l 329 96 l 285 0 l 3 0 l 269 432 l -6 899 l 328 899 l 376 786 l 456 644 l 546 801 l 588 899 l 878 899 l 621 475 l 892 0 z "},"Y":{"ha":825,"x_min":-11,"x_max":853,"o":"m 542 0 l 264 0 l 278 236 l 276 279 l -11 899 l 281 899 l 303 824 l 404 553 l 421 553 l 538 814 l 569 899 l 853 899 l 533 289 l 531 236 l 542 0 z "},"Z":{"ha":792,"x_min":33,"x_max":768,"o":"m 365 206 l 589 206 l 760 218 l 768 206 l 746 -7 l 499 0 l 179 0 l 39 -8 l 39 190 l 428 693 l 210 693 l 43 679 l 33 690 l 53 903 l 261 899 l 642 899 l 747 900 l 747 700 l 365 206 z "},"[":{"ha":419,"x_min":82,"x_max":432,"o":"m 432 769 l 301 749 l 301 -18 l 432 -39 l 432 -158 l 422 -171 l 82 -157 l 97 365 l 82 888 l 422 901 l 432 889 l 432 769 z "},"\\":{"ha":389,"x_min":-39,"x_max":453,"o":"m 250 -164 l 438 -164 l 453 -143 l 164 949 l -18 949 l -39 926 l 250 -164 z "},"]":{"ha":419,"x_min":-12,"x_max":338,"o":"m -12 -39 l 118 -18 l 118 749 l -12 769 l -12 889 l -3 901 l 338 888 l 322 365 l 338 -157 l -3 -171 l -12 -158 l -12 -39 z "},"^":{"ha":639,"x_min":17,"x_max":624,"o":"m 606 201 l 456 165 l 329 514 l 317 514 l 189 164 l 171 154 l 17 210 l 197 682 l 221 697 l 438 697 l 624 224 l 606 201 z "},"_":{"ha":608,"x_min":-21,"x_max":629,"o":"m 617 -293 l -4 -293 l -21 -275 l -8 -126 l 613 -126 l 629 -144 l 617 -293 z "},"`":{"ha":539,"x_min":71,"x_max":469,"o":"m 71 899 l 75 875 q 385 724 272 775 l 408 725 l 469 825 q 190 1049 328 931 l 167 1047 l 71 899 z "},"a":{"ha":763,"x_min":10,"x_max":742,"o":"m 465 99 l 360 101 l 276 97 l 261 0 l 10 0 l 231 713 l 542 713 l 742 0 l 481 0 l 465 99 m 429 286 l 389 485 l 374 485 l 321 286 l 375 285 l 429 286 z "},"b":{"ha":775,"x_min":74,"x_max":735,"o":"m 601 365 q 703 306 672 344 q 735 207 735 268 q 636 43 735 94 q 339 -8 538 -8 q 74 0 249 -8 l 86 207 l 74 713 l 433 713 q 641 665 567 713 q 715 526 715 618 q 686 433 715 475 q 601 365 657 392 m 449 488 q 438 521 449 510 q 403 536 428 532 q 325 540 378 540 l 322 431 l 397 426 q 437 449 425 436 q 449 488 449 463 m 389 163 q 469 218 469 163 q 421 267 469 246 l 318 264 l 317 233 l 319 167 q 389 163 361 163 z "},"c":{"ha":621,"x_min":25,"x_max":613,"o":"m 425 725 q 613 703 524 725 l 569 499 l 553 488 q 415 517 490 517 q 324 486 351 517 q 297 379 297 456 q 330 241 297 283 q 433 199 363 199 q 568 213 503 199 l 589 200 l 568 -3 q 413 -14 506 -14 q 122 78 218 -14 q 25 349 25 171 q 129 626 25 528 q 425 725 233 725 z "},"d":{"ha":799,"x_min":74,"x_max":774,"o":"m 426 717 q 684 631 594 717 q 774 386 774 546 q 668 92 774 194 q 365 -11 563 -11 q 74 0 265 -11 l 86 207 l 74 713 l 426 717 m 414 179 q 481 211 458 179 q 504 322 504 243 q 495 440 504 399 q 465 499 486 482 q 404 517 443 517 q 329 513 375 517 l 321 233 l 322 190 q 414 179 389 179 z "},"e":{"ha":667,"x_min":74,"x_max":649,"o":"m 640 188 l 625 0 l 74 0 l 86 207 l 74 713 l 635 713 l 649 694 l 633 507 l 446 515 l 329 515 l 328 454 l 439 454 l 560 458 l 574 440 l 558 253 l 422 257 l 322 257 l 321 233 l 322 197 l 432 197 l 626 204 l 640 188 z "},"f":{"ha":590,"x_min":68,"x_max":604,"o":"m 321 424 l 393 424 l 531 428 l 544 410 l 529 222 l 375 226 l 315 226 l 326 0 l 68 0 l 81 207 l 68 713 l 590 713 l 604 694 l 588 507 l 399 515 l 324 515 l 321 424 z "},"g":{"ha":714,"x_min":25,"x_max":679,"o":"m 460 725 q 679 697 592 725 l 624 471 l 604 471 q 503 509 544 497 q 411 521 461 521 q 338 509 363 521 q 304 462 314 497 q 294 353 294 426 q 306 241 294 278 q 344 191 317 204 q 426 178 371 178 q 447 178 447 178 l 447 196 l 444 322 l 679 338 l 675 240 l 675 36 q 403 -15 539 -15 q 120 76 215 -15 q 25 339 25 168 q 138 626 25 528 q 460 725 250 725 z "},"h":{"ha":853,"x_min":74,"x_max":781,"o":"m 776 0 l 518 0 l 531 207 l 529 247 l 418 250 l 321 247 l 321 233 l 332 0 l 74 0 l 86 207 l 74 713 l 336 713 l 328 456 l 432 453 l 525 456 l 518 713 l 781 713 l 767 233 l 776 0 z "},"i":{"ha":421,"x_min":74,"x_max":336,"o":"m 332 0 l 74 0 l 86 207 l 74 713 l 336 713 l 321 233 l 332 0 z "},"j":{"ha":481,"x_min":18,"x_max":396,"o":"m 386 138 q 360 18 386 67 q 276 -67 335 -31 q 113 -137 217 -104 l 42 -8 l 42 11 q 124 63 101 35 q 147 136 147 90 l 147 208 l 140 524 l 32 521 l 18 536 l 33 713 l 396 713 l 383 233 l 386 138 z "},"k":{"ha":772,"x_min":74,"x_max":785,"o":"m 553 375 q 785 54 657 215 l 781 26 q 524 -14 646 -4 l 494 1 q 324 313 397 174 l 321 233 l 332 0 l 74 0 l 86 207 l 74 713 l 336 713 l 326 426 l 451 631 l 490 713 l 761 713 l 553 375 z "},"l":{"ha":558,"x_min":67,"x_max":544,"o":"m 529 0 l 67 0 l 79 207 l 67 713 l 329 713 l 314 233 l 315 210 l 531 210 l 544 193 l 529 0 z "},"m":{"ha":960,"x_min":33,"x_max":921,"o":"m 689 0 l 688 215 l 679 338 l 665 338 l 563 61 l 367 61 l 288 338 l 272 338 l 261 240 l 253 0 l 33 0 l 104 713 l 410 713 l 428 613 l 472 401 l 488 401 l 539 601 l 564 713 l 863 713 l 921 0 l 689 0 z "},"n":{"ha":853,"x_min":74,"x_max":781,"o":"m 776 0 l 496 0 l 313 328 l 299 328 l 297 264 l 307 0 l 74 0 l 86 208 l 74 713 l 354 713 l 538 385 l 553 385 l 544 703 l 781 717 l 767 239 l 776 0 z "},"o":{"ha":785,"x_min":25,"x_max":758,"o":"m 410 726 q 667 635 576 726 q 758 375 758 543 q 658 87 758 189 q 374 -15 557 -15 q 116 78 207 -15 q 25 342 25 172 q 126 626 25 525 q 410 726 226 726 m 386 522 q 328 512 347 522 q 302 471 310 501 q 294 376 294 440 q 303 247 294 289 q 332 190 311 206 q 397 175 353 175 q 456 185 438 175 q 482 226 475 196 q 489 319 489 256 q 481 450 489 408 q 452 507 474 492 q 386 522 431 522 z "},"p":{"ha":731,"x_min":74,"x_max":724,"o":"m 454 713 q 653 652 583 713 q 724 481 724 592 q 680 328 724 394 q 557 224 636 261 q 375 188 478 188 l 324 188 l 332 0 l 74 0 l 86 207 l 74 713 l 454 713 m 407 365 q 442 404 432 385 q 453 456 453 424 q 431 515 453 497 q 361 536 410 533 l 331 533 l 325 371 l 407 365 z "},"q":{"ha":794,"x_min":25,"x_max":861,"o":"m 861 -67 q 743 -225 801 -169 l 725 -228 q 414 -14 543 -124 q 374 -15 401 -15 q 116 78 207 -15 q 25 342 25 172 q 126 626 25 525 q 410 726 226 726 q 667 635 576 726 q 758 375 758 543 q 614 50 758 151 q 851 -44 718 1 l 861 -67 m 294 376 q 303 247 294 289 q 332 190 311 206 q 397 175 353 175 q 456 185 438 175 q 482 226 475 196 q 489 319 489 256 q 481 450 489 408 q 452 507 474 492 q 386 522 431 522 q 328 512 347 522 q 302 471 310 501 q 294 376 294 440 z "},"r":{"ha":774,"x_min":74,"x_max":767,"o":"m 606 276 q 767 60 706 135 l 763 32 q 511 -14 633 -6 l 476 13 q 392 197 418 139 l 322 197 l 332 0 l 74 0 l 86 207 l 74 713 l 454 713 q 654 655 583 713 q 725 489 725 597 q 606 276 725 365 m 325 383 l 401 378 q 441 411 429 392 q 453 463 453 431 q 432 517 453 500 q 361 536 411 533 l 331 533 l 325 383 z "},"s":{"ha":651,"x_min":33,"x_max":606,"o":"m 374 726 q 593 689 486 726 l 556 475 l 519 465 q 419 517 471 497 q 338 536 367 536 q 308 518 308 536 q 328 489 308 500 q 396 460 349 478 q 501 415 458 438 q 574 348 543 392 q 606 236 606 304 q 573 113 606 169 q 468 19 540 56 q 285 -17 396 -17 q 33 22 160 -17 l 71 246 l 94 264 q 213 193 149 221 q 318 165 276 165 q 351 188 351 165 q 333 215 351 204 q 267 243 314 225 q 161 289 204 265 q 86 358 118 313 q 54 472 54 403 q 92 602 54 544 q 201 693 129 660 q 374 726 274 726 z "},"t":{"ha":635,"x_min":17,"x_max":617,"o":"m 603 507 l 446 515 l 442 515 l 436 233 l 446 0 l 189 0 l 201 207 l 196 515 l 190 515 l 32 507 l 17 525 l 31 713 l 603 713 l 617 694 l 603 507 z "},"u":{"ha":786,"x_min":58,"x_max":728,"o":"m 718 235 q 629 49 717 114 q 379 -15 542 -15 q 140 49 222 -15 q 63 235 58 114 l 65 350 l 58 713 l 315 713 l 304 269 q 322 206 303 225 q 390 188 342 188 q 459 206 439 188 q 478 269 479 225 l 467 713 l 728 713 l 719 351 l 718 235 z "},"v":{"ha":750,"x_min":13,"x_max":744,"o":"m 211 0 l 13 713 l 272 713 l 294 581 l 365 226 l 381 226 l 471 565 l 493 713 l 744 713 l 524 0 l 211 0 z "},"w":{"ha":1083,"x_min":29,"x_max":1081,"o":"m 589 0 l 535 208 l 519 208 l 472 0 l 193 0 l 29 713 l 283 713 l 294 589 l 344 261 l 360 261 l 431 551 l 396 713 l 661 713 l 678 561 l 735 261 l 750 261 l 818 574 l 840 713 l 1081 713 l 868 0 l 589 0 z "},"x":{"ha":771,"x_min":-1,"x_max":775,"o":"m 775 0 l 468 0 l 428 96 l 378 175 l 307 82 l 268 0 l 8 0 l 228 338 l -1 713 l 307 713 l 349 614 l 400 533 l 461 629 l 497 713 l 764 713 l 553 378 l 775 0 z "},"y":{"ha":729,"x_min":-4,"x_max":746,"o":"m 483 0 l 226 0 l 239 182 l 238 206 l -4 713 l 265 713 l 285 647 l 357 463 l 371 463 l 456 638 l 483 713 l 746 713 l 474 213 l 472 182 l 483 0 z "},"z":{"ha":693,"x_min":33,"x_max":665,"o":"m 346 189 l 508 189 l 658 200 l 665 190 l 646 -7 l 424 0 l 167 0 l 42 -7 l 42 175 l 349 522 l 190 522 l 42 510 l 33 519 l 51 715 l 238 713 l 647 713 l 647 529 l 346 189 z "},"{":{"ha":419,"x_min":36,"x_max":424,"o":"m 303 915 q 414 899 360 915 l 424 881 l 403 747 q 357 754 378 754 q 293 688 293 754 q 311 614 293 660 q 329 533 329 557 q 304 450 329 488 q 232 390 279 413 l 232 381 q 304 321 279 358 q 329 240 329 283 q 310 156 329 208 q 293 83 293 106 q 357 17 293 17 q 403 24 378 17 l 424 -110 l 414 -128 q 303 -144 360 -144 q 139 -99 196 -144 q 82 28 82 -54 q 100 147 82 69 q 113 228 113 200 q 36 325 113 293 l 36 446 q 113 543 113 478 q 100 624 113 571 q 82 743 82 701 q 139 870 82 825 q 303 915 196 915 z "},"|":{"ha":417,"x_min":104,"x_max":314,"o":"m 307 408 l 308 -340 l 125 -356 l 104 -333 l 106 388 l 107 1110 l 294 1125 l 314 1107 l 307 408 z "},"}":{"ha":419,"x_min":-4,"x_max":383,"o":"m 117 -144 q 6 -128 60 -144 l -4 -110 l 17 24 q 63 17 42 17 q 126 83 126 17 q 108 157 126 111 q 90 238 90 214 q 115 321 90 283 q 188 381 140 358 l 188 390 q 115 450 140 413 q 90 531 90 488 q 110 615 90 563 q 126 688 126 665 q 63 754 126 754 q 17 747 42 754 l -4 881 l 6 899 q 117 915 60 915 q 281 870 224 915 q 338 743 338 825 q 319 624 338 701 q 307 543 307 571 q 383 446 307 478 l 383 325 q 307 228 307 293 q 319 147 307 200 q 338 28 338 69 q 281 -99 338 -54 q 117 -144 224 -144 z "},"~":{"ha":667,"x_min":8,"x_max":658,"o":"m 210 294 q 167 277 188 294 q 127 238 146 260 q 101 210 108 217 l 79 210 l 8 297 l 8 319 l 136 479 l 158 489 q 307 449 203 481 q 460 410 438 410 q 501 426 481 410 q 540 465 521 443 q 567 494 560 486 l 589 494 l 658 407 l 658 385 l 532 225 l 510 217 q 350 260 468 222 q 210 294 232 294 z "}," ":{"ha":188,"x_min":0,"x_max":0,"o":""},"¡":{"ha":381,"x_min":51,"x_max":358,"o":"m 124 300 l 275 322 l 301 297 l 325 -228 l 301 -258 l 83 -274 l 51 -242 l 124 300 m 217 396 q 122 431 156 396 q 88 528 88 465 q 125 633 88 594 q 228 672 163 672 q 325 638 292 672 q 358 540 358 604 q 320 435 358 474 q 217 396 282 396 z "},"¢":{"ha":531,"x_min":19,"x_max":531,"o":"m 379 249 q 497 269 422 249 l 515 254 l 488 56 q 411 42 438 44 l 400 -179 l 213 -179 l 193 -158 l 204 54 q 67 165 114 85 q 19 371 19 246 q 76 591 19 504 q 236 710 132 678 l 246 919 l 428 919 l 454 897 l 444 719 q 531 693 497 708 l 488 488 l 468 478 q 363 507 396 507 q 278 400 278 507 q 302 285 278 321 q 379 249 326 249 z "},"£":{"ha":668,"x_min":15,"x_max":640,"o":"m 622 -7 l 404 0 l 24 0 l 15 13 l 26 163 q 105 206 82 176 q 128 289 128 236 l 128 346 l 24 346 l 15 358 l 26 490 l 125 490 l 125 544 q 214 756 124 682 q 469 829 304 829 q 639 811 553 829 l 624 624 l 607 613 q 444 657 507 657 q 364 588 364 657 l 363 490 l 539 490 l 546 478 l 536 346 l 360 346 l 360 301 q 349 231 360 256 q 310 183 338 206 l 310 176 l 479 176 l 633 188 l 640 176 l 622 -7 z "},"¤":{"ha":603,"x_min":-3,"x_max":646,"o":"m 636 658 l 536 574 q 560 471 560 524 q 542 381 560 426 l 642 304 l 646 281 l 529 157 l 507 157 l 425 256 q 319 231 378 231 q 226 250 272 231 l 151 153 l 128 149 l 4 265 l 6 288 l 103 369 q 79 471 79 417 q 99 565 79 519 l 1 642 l -3 665 l 114 789 l 136 788 l 219 689 q 319 711 268 711 q 410 693 365 711 l 489 793 l 513 797 l 636 681 l 636 658 m 319 571 q 246 544 272 571 q 219 471 219 518 q 246 397 219 424 q 319 371 272 371 q 393 397 367 371 q 419 471 419 424 q 393 544 419 518 q 319 571 367 571 z "},"¥":{"ha":804,"x_min":32,"x_max":794,"o":"m 535 257 l 760 257 l 771 247 l 763 138 l 508 138 l 515 0 l 279 0 l 288 138 l 57 138 l 49 150 l 56 257 l 261 257 l 224 333 l 57 333 l 49 346 l 56 453 l 163 453 l 32 710 l 279 710 l 300 647 l 399 447 l 413 447 l 525 639 l 553 710 l 794 710 l 647 453 l 760 453 l 771 443 l 763 333 l 579 333 l 535 257 z "},"¦":{"ha":417,"x_min":104,"x_max":314,"o":"m 308 531 l 124 507 l 106 522 l 107 1110 l 294 1125 l 314 1107 l 308 531 m 308 -340 l 125 -356 l 104 -333 l 106 203 l 286 224 l 307 201 l 308 -340 z "},"§":{"ha":618,"x_min":18,"x_max":608,"o":"m 476 243 q 556 104 556 190 q 517 -14 556 40 q 410 -100 479 -68 q 257 -132 342 -132 q 140 -122 207 -132 q 19 -94 72 -111 l 53 107 l 75 122 q 185 58 128 82 q 285 35 243 35 q 326 57 326 35 q 306 83 326 72 q 239 107 285 93 q 129 151 174 129 q 51 214 85 172 q 18 321 18 256 q 52 442 18 385 q 146 536 86 499 q 71 674 71 589 q 110 794 71 739 q 218 883 149 850 q 372 915 288 915 q 572 881 479 915 l 540 689 l 510 678 q 338 743 406 743 q 299 719 299 743 q 320 693 299 704 q 388 667 342 682 q 497 624 451 646 q 575 562 542 603 q 608 458 608 521 q 573 337 608 394 q 476 243 538 279 m 297 467 q 246 393 246 436 q 326 313 246 347 q 379 385 379 340 q 358 430 379 411 q 297 467 338 449 z "},"¨":{"ha":539,"x_min":18,"x_max":488,"o":"m 141 896 q 224 866 194 896 q 254 781 254 836 q 221 690 254 723 q 132 656 188 656 q 47 685 76 656 q 18 771 18 715 q 51 862 18 829 q 141 896 84 896 m 375 896 q 457 866 428 896 q 487 781 487 836 q 454 690 487 723 q 365 656 422 656 q 280 685 309 656 q 251 771 251 715 q 285 862 251 829 q 375 896 318 896 z "},"©":{"ha":957,"x_min":56,"x_max":901,"o":"m 478 831 q 700 778 604 831 q 849 629 796 725 q 901 407 901 533 q 849 185 901 281 q 700 36 796 89 q 478 -17 604 -17 q 257 36 353 -17 q 108 185 161 89 q 56 407 56 281 q 108 629 56 533 q 257 778 161 725 q 478 831 353 831 m 478 746 q 303 703 379 746 q 184 584 226 661 q 142 407 142 507 q 184 230 142 307 q 303 110 226 153 q 478 68 379 68 q 654 110 578 68 q 773 230 731 153 q 815 407 815 307 q 773 584 815 507 q 654 703 731 661 q 478 746 578 746 m 519 644 q 636 632 571 644 l 606 493 l 596 486 q 513 501 558 501 q 463 486 476 501 q 449 426 449 471 q 466 347 449 371 q 525 322 483 322 q 606 328 558 322 l 619 319 l 606 182 q 557 179 589 179 l 511 179 q 263 406 263 179 q 330 581 263 518 q 519 644 397 644 z "},"ª":{"ha":506,"x_min":21,"x_max":483,"o":"m 260 910 q 400 874 351 910 q 449 771 449 838 q 444 674 449 732 l 442 596 q 454 574 442 574 q 471 576 465 574 l 483 565 l 465 467 q 383 439 428 439 q 322 453 342 439 q 289 506 301 468 l 282 506 q 185 438 242 458 q 65 478 110 438 q 21 588 21 518 q 133 711 21 694 l 271 728 l 272 735 q 262 768 272 758 q 228 778 251 778 q 85 733 172 778 l 74 740 l 53 864 q 260 910 149 910 m 219 638 q 193 606 193 631 q 228 568 193 568 q 271 581 250 568 l 271 643 l 219 638 z "},"«":{"ha":647,"x_min":24,"x_max":615,"o":"m 24 335 l 197 590 l 324 525 l 329 501 l 218 319 l 329 139 l 324 115 l 197 50 l 24 297 l 24 335 m 310 335 l 483 590 l 610 525 l 615 501 l 504 319 l 615 139 l 610 115 l 483 50 l 310 297 l 310 335 z "},"¬":{"ha":667,"x_min":21,"x_max":611,"o":"m 611 53 l 449 40 l 431 57 l 431 264 l 38 264 l 21 282 l 33 444 l 603 444 l 611 432 l 611 53 z "},"­":{"ha":415,"x_min":35,"x_max":381,"o":"m 381 286 l 54 233 l 35 253 l 35 419 l 360 472 l 379 453 l 381 286 z "},"®":{"ha":631,"x_min":49,"x_max":582,"o":"m 315 976 q 508 903 435 976 q 582 710 582 829 q 508 517 582 590 q 315 443 435 443 q 122 517 196 443 q 49 710 49 590 q 122 903 49 829 q 315 976 196 976 m 315 501 q 467 559 410 501 q 524 710 524 617 q 467 861 524 804 q 315 918 410 918 q 165 861 222 918 q 107 710 107 804 q 165 559 107 617 q 315 501 222 501 m 444 768 q 394 688 444 718 q 461 601 429 639 l 460 592 q 374 576 433 582 l 363 583 q 322 661 339 625 l 288 661 l 292 582 l 203 582 l 207 660 l 203 854 l 342 856 q 417 833 390 856 q 444 768 444 810 m 351 761 q 310 792 351 790 l 292 790 l 289 724 l 326 721 q 351 761 351 736 z "},"¯":{"ha":539,"x_min":64,"x_max":476,"o":"m 464 793 l 81 793 l 64 811 l 76 960 l 460 960 l 476 942 l 464 793 z "},"°":{"ha":406,"x_min":15,"x_max":390,"o":"m 203 915 q 297 890 254 915 q 365 822 340 865 q 390 728 390 779 q 365 633 390 676 q 297 565 340 590 q 203 540 254 540 q 108 565 151 540 q 40 633 65 590 q 15 728 15 676 q 40 822 15 779 q 108 890 65 865 q 203 915 151 915 m 203 806 q 147 784 168 806 q 125 728 125 763 q 147 672 125 693 q 203 650 168 650 q 259 672 238 650 q 281 728 281 693 q 259 784 281 763 q 203 806 238 806 z "},"±":{"ha":667,"x_min":21,"x_max":647,"o":"m 425 444 l 631 444 l 647 426 l 635 264 l 425 264 l 425 53 l 263 40 l 244 57 l 244 264 l 38 264 l 21 282 l 33 444 l 244 444 l 244 656 l 407 668 l 425 651 l 425 444 m 635 -201 l 38 -201 l 21 -183 l 33 -21 l 631 -21 l 647 -39 l 635 -201 z "},"²":{"ha":521,"x_min":31,"x_max":490,"o":"m 267 982 q 402 944 349 982 q 456 839 456 907 q 349 638 456 761 l 300 582 l 303 578 l 381 578 l 481 588 l 490 575 l 468 418 l 318 426 l 82 426 l 46 424 l 36 431 l 36 547 l 161 671 q 230 744 210 719 q 250 790 250 769 q 214 818 250 818 q 153 803 188 818 q 88 763 118 788 l 65 763 l 31 913 q 267 982 158 982 z "},"³":{"ha":468,"x_min":17,"x_max":439,"o":"m 224 983 q 373 944 317 983 q 429 843 429 906 q 344 717 429 763 l 344 711 q 439 586 439 681 q 362 462 439 508 q 158 415 285 415 q 39 426 97 415 l 26 568 l 40 581 q 163 561 104 561 q 242 594 242 561 q 203 618 242 618 l 117 618 l 107 629 l 110 761 l 156 764 q 221 803 221 767 q 178 828 221 828 q 69 801 142 828 l 49 801 l 17 933 q 224 983 114 983 z "},"´":{"ha":539,"x_min":71,"x_max":469,"o":"m 469 899 l 465 875 q 156 724 268 775 l 132 725 l 71 825 q 350 1049 213 931 l 374 1047 l 469 899 z "},"µ":{"ha":743,"x_min":53,"x_max":729,"o":"m 703 28 q 582 -12 647 -12 q 492 13 526 -12 q 433 94 457 38 l 424 94 q 310 -7 367 17 l 310 -257 l 54 -257 l 63 264 l 53 640 l 310 658 l 310 282 q 324 223 310 240 q 367 206 338 206 q 426 226 399 206 l 426 640 l 683 658 l 668 210 q 690 178 668 178 q 713 182 697 178 l 729 168 l 703 28 z "},"¶":{"ha":783,"x_min":14,"x_max":772,"o":"m 756 693 l 672 693 l 663 296 l 665 200 q 636 59 665 118 q 537 -47 607 0 q 344 -132 467 -93 l 275 -8 l 275 14 q 378 89 349 50 q 408 190 408 128 l 408 268 l 399 694 l 356 694 q 306 572 306 671 q 371 399 306 482 l 275 264 q 81 381 149 299 q 14 581 14 463 q 113 816 14 733 q 394 899 211 899 l 757 899 l 772 881 l 756 693 z "},"·":{"ha":317,"x_min":22,"x_max":293,"o":"m 164 500 q 259 465 225 500 q 293 368 293 431 q 256 263 293 301 q 153 224 218 224 q 56 258 89 224 q 22 356 22 292 q 60 461 22 422 q 164 500 99 500 z "},"¸":{"ha":539,"x_min":136,"x_max":417,"o":"m 356 -86 q 417 -174 417 -118 q 376 -258 417 -225 q 264 -290 335 -290 q 136 -257 196 -290 l 151 -153 l 163 -149 q 246 -187 208 -187 q 268 -168 268 -187 q 251 -147 268 -156 l 182 -110 l 213 46 l 328 46 l 308 -60 l 356 -86 z "},"¹":{"ha":411,"x_min":6,"x_max":331,"o":"m 321 622 l 329 426 l 121 426 l 129 603 l 129 760 l 18 743 l 6 751 l 6 908 l 301 981 l 331 961 l 321 622 z "},"º":{"ha":494,"x_min":19,"x_max":475,"o":"m 257 910 q 475 683 475 910 q 238 436 475 436 q 19 663 19 436 q 257 910 19 910 m 244 781 q 208 763 217 781 q 200 686 200 744 q 204 606 200 632 q 219 570 208 581 q 250 560 229 560 q 287 579 278 560 q 296 660 296 599 q 292 736 296 711 q 276 771 288 761 q 244 781 265 781 z "},"»":{"ha":647,"x_min":24,"x_max":615,"o":"m 615 310 l 442 54 l 315 119 l 310 143 l 421 325 l 310 506 l 315 529 l 442 594 l 615 347 l 615 310 m 329 310 l 156 54 l 29 119 l 24 143 l 135 325 l 24 506 l 29 529 l 156 594 l 329 347 l 329 310 z "},"¼":{"ha":1108,"x_min":6,"x_max":1083,"o":"m 238 -131 l 124 -61 l 115 -37 l 760 964 l 865 899 l 879 865 l 238 -131 m 18 669 l 6 678 l 6 835 l 301 907 l 331 888 l 321 549 l 329 353 l 121 353 l 129 529 l 129 686 l 18 669 m 1011 97 l 1018 13 l 1007 0 l 847 -8 l 836 3 l 840 100 l 719 100 l 604 96 l 592 111 l 592 233 l 822 546 l 1011 546 l 1007 247 l 1072 247 l 1083 231 l 1075 96 l 1011 97 m 844 247 l 843 336 l 832 336 l 764 247 l 844 247 z "},"½":{"ha":1164,"x_min":6,"x_max":1133,"o":"m 879 865 l 238 -131 l 124 -61 l 115 -37 l 760 964 l 865 899 l 879 865 m 321 549 l 329 353 l 121 353 l 129 529 l 129 686 l 18 669 l 6 678 l 6 835 l 301 907 l 331 888 l 321 549 m 910 556 q 1045 518 992 556 q 1099 413 1099 481 q 992 211 1099 335 l 943 156 l 946 151 l 1024 151 l 1124 161 l 1133 149 l 1111 -8 l 961 0 l 725 0 l 689 -3 l 679 4 l 679 121 l 804 244 q 873 318 853 293 q 893 364 893 343 q 857 392 893 392 q 796 376 831 392 q 731 336 761 361 l 708 336 l 674 486 q 910 556 801 556 z "},"¾":{"ha":1165,"x_min":17,"x_max":1140,"o":"m 294 -131 l 181 -61 l 172 -37 l 817 964 l 922 899 l 936 865 l 294 -131 m 439 513 q 362 388 439 435 q 158 342 285 342 q 39 353 97 342 l 26 494 l 40 507 q 163 488 104 488 q 242 521 242 488 q 203 544 242 544 l 117 544 l 107 556 l 110 688 l 156 690 q 221 729 221 693 q 178 754 221 754 q 69 728 142 754 l 49 728 l 17 860 q 224 910 114 910 q 373 871 317 910 q 429 769 429 832 q 344 643 429 689 l 344 638 q 439 513 439 607 m 1068 97 l 1075 13 l 1064 0 l 904 -8 l 893 3 l 897 100 l 776 100 l 661 96 l 649 111 l 649 233 l 879 546 l 1068 546 l 1064 247 l 1129 247 l 1140 231 l 1132 96 l 1068 97 m 901 247 l 900 336 l 889 336 l 821 247 l 901 247 z "},"¿":{"ha":488,"x_min":-39,"x_max":451,"o":"m 379 -281 q 69 -212 178 -272 q -39 -49 -39 -153 q -3 63 -39 11 q 99 150 32 115 l 179 192 l 183 200 l 174 299 l 363 326 l 381 310 l 399 135 l 390 119 l 274 74 q 207 -7 207 46 q 256 -65 207 -46 q 432 -93 304 -85 l 451 -118 l 403 -268 l 379 -281 m 257 396 q 162 431 196 396 q 128 528 128 465 q 165 633 128 594 q 268 672 203 672 q 365 638 332 672 q 399 540 399 604 q 360 435 399 474 q 257 396 322 396 z "},"À":{"ha":871,"x_min":3,"x_max":857,"o":"m 579 989 q 249 1085 432 1026 l 240 1107 l 308 1269 l 332 1275 q 644 1104 481 1188 l 603 994 l 579 989 m 575 0 l 550 149 l 549 153 l 413 156 l 299 150 l 275 0 l 3 0 l 275 899 l 611 899 l 857 0 l 575 0 m 446 650 l 429 650 l 351 356 l 429 354 l 507 356 l 446 650 z "},"Á":{"ha":871,"x_min":3,"x_max":857,"o":"m 575 0 l 550 149 l 549 153 l 413 156 l 299 150 l 275 0 l 3 0 l 275 899 l 611 899 l 857 0 l 575 0 m 446 650 l 429 650 l 351 356 l 429 354 l 507 356 l 446 650 m 663 1107 l 654 1085 q 324 989 471 1026 l 300 994 l 258 1104 q 571 1275 422 1188 l 594 1269 l 663 1107 z "},"Â":{"ha":871,"x_min":3,"x_max":857,"o":"m 201 1107 q 414 1272 326 1193 l 461 1272 q 674 1107 549 1193 l 626 1001 l 601 1001 l 438 1085 l 274 1001 l 249 1001 l 201 1107 m 575 0 l 550 149 l 549 153 l 413 156 l 299 150 l 275 0 l 3 0 l 275 899 l 611 899 l 857 0 l 575 0 m 446 650 l 429 650 l 351 356 l 429 354 l 507 356 l 446 650 z "},"Ã":{"ha":871,"x_min":3,"x_max":857,"o":"m 575 0 l 550 149 l 549 153 l 413 156 l 299 150 l 275 0 l 3 0 l 275 899 l 611 899 l 857 0 l 575 0 m 446 650 l 429 650 l 351 356 l 429 354 l 507 356 l 446 650 m 708 1174 l 596 1017 l 574 1008 q 454 1036 536 1013 q 361 1056 374 1056 q 319 1038 338 1056 q 265 975 301 1019 l 243 975 l 164 1051 l 164 1074 l 276 1231 l 299 1239 q 418 1211 336 1235 q 511 1192 499 1192 q 553 1210 535 1192 q 607 1272 571 1228 l 629 1272 l 708 1196 l 708 1174 z "},"Ä":{"ha":871,"x_min":3,"x_max":857,"o":"m 300 999 q 215 1028 244 999 q 186 1114 186 1058 q 219 1206 186 1172 q 310 1239 253 1239 q 392 1209 363 1239 q 422 1125 422 1179 q 390 1033 422 1067 q 300 999 357 999 m 568 999 q 483 1028 513 999 q 454 1114 454 1058 q 488 1206 454 1172 q 578 1239 521 1239 q 660 1209 631 1239 q 690 1125 690 1179 q 658 1033 690 1067 q 568 999 625 999 m 575 0 l 550 149 l 549 153 l 413 156 l 299 150 l 275 0 l 3 0 l 275 899 l 611 899 l 857 0 l 575 0 m 446 650 l 429 650 l 351 356 l 429 354 l 507 356 l 446 650 z "},"Å":{"ha":871,"x_min":3,"x_max":857,"o":"m 575 0 l 550 149 l 549 153 l 413 156 l 299 150 l 275 0 l 3 0 l 275 899 l 611 899 l 857 0 l 575 0 m 446 650 l 429 650 l 351 356 l 429 354 l 507 356 l 446 650 m 443 1293 q 590 1149 590 1293 q 550 1031 590 1072 q 432 990 510 990 q 285 1139 285 990 q 443 1293 285 1293 m 436 1185 q 399 1176 410 1185 q 389 1143 389 1167 q 400 1106 389 1117 q 439 1096 411 1096 q 476 1106 465 1096 q 486 1139 486 1115 q 475 1174 486 1164 q 436 1185 464 1185 z "},"Æ":{"ha":1167,"x_min":-28,"x_max":1167,"o":"m 1150 0 l 544 0 l 538 149 l 531 240 l 293 168 l 292 165 l 244 0 l -28 0 l 356 899 l 1078 899 l 1093 879 l 1075 676 l 868 685 l 763 685 l 774 526 l 1008 601 l 1028 586 l 1053 394 l 789 318 l 796 214 l 922 214 l 1151 222 l 1167 203 l 1150 0 m 496 650 l 479 650 l 386 408 l 513 447 l 496 650 z "},"Ç":{"ha":714,"x_min":24,"x_max":714,"o":"m 496 215 q 667 244 586 215 l 689 231 l 667 11 q 496 -15 592 -12 l 488 -58 l 535 -85 q 596 -172 596 -117 q 555 -256 596 -224 q 443 -289 514 -289 q 315 -256 375 -289 l 331 -151 l 342 -147 q 425 -186 388 -186 q 447 -167 447 -186 q 431 -146 447 -154 l 361 -108 l 381 -10 q 113 127 203 13 q 24 442 24 242 q 145 790 24 667 q 489 914 267 914 q 714 876 608 914 l 667 656 l 649 644 q 565 676 613 664 q 478 688 518 688 q 356 638 393 688 q 318 474 318 589 q 361 277 318 339 q 496 215 404 215 z "},"È":{"ha":751,"x_min":83,"x_max":743,"o":"m 547 989 q 217 1085 400 1026 l 208 1107 l 276 1269 l 300 1275 q 613 1104 449 1188 l 571 994 l 547 989 m 733 203 l 717 0 l 83 0 l 97 264 l 83 899 l 728 899 l 743 879 l 725 676 l 504 685 l 361 685 l 358 558 l 496 558 l 640 563 l 656 543 l 639 340 l 478 344 l 353 344 l 351 292 l 354 214 l 488 214 l 718 222 l 733 203 z "},"É":{"ha":751,"x_min":83,"x_max":743,"o":"m 733 203 l 717 0 l 83 0 l 97 264 l 83 899 l 728 899 l 743 879 l 725 676 l 504 685 l 361 685 l 358 558 l 496 558 l 640 563 l 656 543 l 639 340 l 478 344 l 353 344 l 351 292 l 354 214 l 488 214 l 718 222 l 733 203 m 631 1107 l 622 1085 q 292 989 439 1026 l 268 994 l 226 1104 q 539 1275 390 1188 l 563 1269 l 631 1107 z "},"Ê":{"ha":751,"x_min":83,"x_max":743,"o":"m 169 1107 q 382 1272 294 1193 l 429 1272 q 642 1107 517 1193 l 594 1001 l 569 1001 l 406 1085 l 242 1001 l 217 1001 l 169 1107 m 733 203 l 717 0 l 83 0 l 97 264 l 83 899 l 728 899 l 743 879 l 725 676 l 504 685 l 361 685 l 358 558 l 496 558 l 640 563 l 656 543 l 639 340 l 478 344 l 353 344 l 351 292 l 354 214 l 488 214 l 718 222 l 733 203 z "},"Ë":{"ha":751,"x_min":83,"x_max":743,"o":"m 268 999 q 183 1028 213 999 q 154 1114 154 1058 q 188 1206 154 1172 q 278 1239 221 1239 q 360 1209 331 1239 q 390 1125 390 1179 q 358 1033 390 1067 q 268 999 325 999 m 536 999 q 451 1028 481 999 q 422 1114 422 1058 q 456 1206 422 1172 q 546 1239 489 1239 q 628 1209 599 1239 q 658 1125 658 1179 q 626 1033 658 1067 q 536 999 593 999 m 733 203 l 717 0 l 83 0 l 97 264 l 83 899 l 728 899 l 743 879 l 725 676 l 504 685 l 361 685 l 358 558 l 496 558 l 640 563 l 656 543 l 639 340 l 478 344 l 353 344 l 351 292 l 354 214 l 488 214 l 718 222 l 733 203 z "},"Ì":{"ha":454,"x_min":26,"x_max":431,"o":"m 118 1275 q 431 1104 267 1188 l 389 994 l 365 989 q 35 1085 218 1026 l 26 1107 l 94 1269 l 118 1275 m 363 0 l 83 0 l 97 264 l 83 899 l 367 899 l 351 292 l 363 0 z "},"Í":{"ha":454,"x_min":46,"x_max":450,"o":"m 363 0 l 83 0 l 97 264 l 83 899 l 367 899 l 351 292 l 363 0 m 450 1107 l 442 1085 q 111 989 258 1026 l 88 994 l 46 1104 q 358 1275 210 1188 l 382 1269 l 450 1107 z "},"Î":{"ha":454,"x_min":-11,"x_max":461,"o":"m -11 1107 q 201 1272 114 1193 l 249 1272 q 461 1107 336 1193 l 414 1001 l 389 1001 l 225 1085 l 61 1001 l 36 1001 l -11 1107 m 363 0 l 83 0 l 97 264 l 83 899 l 367 899 l 351 292 l 363 0 z "},"Ï":{"ha":454,"x_min":-19,"x_max":471,"o":"m 104 1239 q 187 1209 157 1239 q 217 1125 217 1179 q 184 1033 217 1067 q 94 999 151 999 q 10 1028 39 999 q -19 1114 -19 1058 q 14 1206 -19 1172 q 104 1239 47 1239 m 358 1239 q 441 1209 411 1239 q 471 1125 471 1179 q 438 1033 471 1067 q 349 999 406 999 q 264 1028 293 999 q 235 1114 235 1058 q 268 1206 235 1172 q 358 1239 301 1239 m 363 0 l 83 0 l 97 264 l 83 899 l 367 899 l 351 292 l 363 0 z "},"Ð":{"ha":965,"x_min":26,"x_max":942,"o":"m 531 904 q 835 797 729 904 q 942 486 942 689 q 818 117 942 246 q 464 -12 694 -12 q 125 0 319 -12 l 139 264 l 138 347 l 39 347 l 26 365 l 36 528 l 133 528 l 125 899 l 531 904 m 517 194 q 616 247 582 194 q 650 418 650 299 q 636 578 650 519 q 592 662 622 636 q 507 688 561 688 q 403 682 454 688 l 399 528 l 515 528 l 528 510 l 518 347 l 394 347 l 393 292 l 396 206 q 517 194 479 194 z "},"Ñ":{"ha":986,"x_min":83,"x_max":903,"o":"m 899 0 l 596 0 l 343 481 l 326 481 l 325 325 l 336 0 l 83 0 l 97 264 l 83 899 l 386 899 l 639 418 l 656 418 l 647 889 l 903 904 l 888 293 l 899 0 m 764 1174 l 651 1017 l 629 1008 q 510 1036 592 1013 q 417 1056 429 1056 q 375 1038 393 1056 q 321 975 357 1019 l 299 975 l 219 1051 l 219 1074 l 332 1231 l 354 1239 q 474 1211 392 1235 q 567 1192 554 1192 q 608 1210 590 1192 q 663 1272 626 1228 l 685 1272 l 764 1196 l 764 1174 z "},"Ò":{"ha":907,"x_min":24,"x_max":883,"o":"m 349 1275 q 661 1104 497 1188 l 619 994 l 596 989 q 265 1085 449 1026 l 257 1107 l 325 1269 l 349 1275 m 474 915 q 776 799 669 915 q 883 472 883 683 q 766 111 883 239 q 433 -17 649 -17 q 131 101 238 -17 q 24 433 24 218 q 141 790 24 664 q 474 915 258 915 m 449 693 q 367 674 394 693 q 327 608 339 656 q 315 471 315 561 q 328 296 315 356 q 370 213 340 236 q 458 189 400 189 q 540 208 513 189 q 580 274 568 226 q 592 413 592 322 q 579 586 592 526 q 537 669 567 646 q 449 693 507 693 z "},"Ó":{"ha":907,"x_min":24,"x_max":883,"o":"m 474 915 q 776 799 669 915 q 883 472 883 683 q 766 111 883 239 q 433 -17 649 -17 q 131 101 238 -17 q 24 433 24 218 q 141 790 24 664 q 474 915 258 915 m 449 693 q 367 674 394 693 q 327 608 339 656 q 315 471 315 561 q 328 296 315 356 q 370 213 340 236 q 458 189 400 189 q 540 208 513 189 q 580 274 568 226 q 592 413 592 322 q 579 586 592 526 q 537 669 567 646 q 449 693 507 693 m 679 1107 l 671 1085 q 340 989 488 1026 l 317 994 l 275 1104 q 588 1275 439 1188 l 611 1269 l 679 1107 z "},"Ô":{"ha":907,"x_min":24,"x_max":883,"o":"m 218 1107 q 431 1272 343 1193 l 478 1272 q 690 1107 565 1193 l 643 1001 l 618 1001 l 454 1085 l 290 1001 l 265 1001 l 218 1107 m 474 915 q 776 799 669 915 q 883 472 883 683 q 766 111 883 239 q 433 -17 649 -17 q 131 101 238 -17 q 24 433 24 218 q 141 790 24 664 q 474 915 258 915 m 449 693 q 367 674 394 693 q 327 608 339 656 q 315 471 315 561 q 328 296 315 356 q 370 213 340 236 q 458 189 400 189 q 540 208 513 189 q 580 274 568 226 q 592 413 592 322 q 579 586 592 526 q 537 669 567 646 q 449 693 507 693 z "},"Õ":{"ha":907,"x_min":24,"x_max":883,"o":"m 474 915 q 776 799 669 915 q 883 472 883 683 q 766 111 883 239 q 433 -17 649 -17 q 131 101 238 -17 q 24 433 24 218 q 141 790 24 664 q 474 915 258 915 m 449 693 q 367 674 394 693 q 327 608 339 656 q 315 471 315 561 q 328 296 315 356 q 370 213 340 236 q 458 189 400 189 q 540 208 513 189 q 580 274 568 226 q 592 413 592 322 q 579 586 592 526 q 537 669 567 646 q 449 693 507 693 m 725 1174 l 613 1017 l 590 1008 q 471 1036 553 1013 q 378 1056 390 1056 q 336 1038 354 1056 q 282 975 318 1019 l 260 975 l 181 1051 l 181 1074 l 293 1231 l 315 1239 q 435 1211 353 1235 q 528 1192 515 1192 q 569 1210 551 1192 q 624 1272 588 1228 l 646 1272 l 725 1196 l 725 1174 z "},"Ö":{"ha":907,"x_min":24,"x_max":883,"o":"m 326 1239 q 409 1209 379 1239 q 439 1125 439 1179 q 406 1033 439 1067 q 317 999 374 999 q 232 1028 261 999 q 203 1114 203 1058 q 236 1206 203 1172 q 326 1239 269 1239 m 594 1239 q 677 1209 647 1239 q 707 1125 707 1179 q 674 1033 707 1067 q 585 999 642 999 q 500 1028 529 999 q 471 1114 471 1058 q 504 1206 471 1172 q 594 1239 538 1239 m 474 915 q 776 799 669 915 q 883 472 883 683 q 766 111 883 239 q 433 -17 649 -17 q 131 101 238 -17 q 24 433 24 218 q 141 790 24 664 q 474 915 258 915 m 449 693 q 367 674 394 693 q 327 608 339 656 q 315 471 315 561 q 328 296 315 356 q 370 213 340 236 q 458 189 400 189 q 540 208 513 189 q 580 274 568 226 q 592 413 592 322 q 579 586 592 526 q 537 669 567 646 q 449 693 507 693 z "},"×":{"ha":667,"x_min":61,"x_max":608,"o":"m 608 500 l 463 354 l 607 208 l 607 183 l 483 78 l 335 226 l 185 76 l 61 183 l 61 207 l 207 354 l 61 500 l 61 525 l 185 631 l 335 482 l 483 631 l 607 525 l 608 500 z "},"Ø":{"ha":907,"x_min":24,"x_max":883,"o":"m 757 819 q 883 472 883 701 q 766 111 883 239 q 433 -17 649 -17 q 349 -10 393 -17 l 260 -193 l 88 -128 l 76 -104 l 163 71 q 24 433 24 189 q 141 790 24 664 q 474 915 258 915 q 574 907 526 915 l 660 1082 l 826 1018 l 843 992 l 757 819 m 458 189 q 540 208 513 189 q 580 274 568 226 q 592 413 592 322 q 579 586 592 526 q 537 669 567 646 q 449 693 507 693 q 367 674 394 693 q 327 608 339 656 q 315 471 315 561 q 328 296 315 356 q 370 213 340 236 q 458 189 400 189 z "},"Ù":{"ha":907,"x_min":64,"x_max":843,"o":"m 349 1275 q 661 1104 497 1188 l 619 994 l 596 989 q 265 1085 449 1026 l 257 1107 l 325 1269 l 349 1275 m 832 300 q 729 65 831 147 q 439 -17 628 -17 q 160 65 257 -17 q 68 300 64 147 l 72 443 l 64 899 l 343 899 l 331 338 q 358 235 329 267 q 450 203 386 203 q 544 235 515 203 q 572 338 574 267 l 560 899 l 843 899 l 833 443 l 832 300 z "},"Ú":{"ha":907,"x_min":64,"x_max":843,"o":"m 832 300 q 729 65 831 147 q 439 -17 628 -17 q 160 65 257 -17 q 68 300 64 147 l 72 443 l 64 899 l 343 899 l 331 338 q 358 235 329 267 q 450 203 386 203 q 544 235 515 203 q 572 338 574 267 l 560 899 l 843 899 l 833 443 l 832 300 m 679 1107 l 671 1085 q 340 989 488 1026 l 317 994 l 275 1104 q 588 1275 439 1188 l 611 1269 l 679 1107 z "},"Û":{"ha":907,"x_min":64,"x_max":843,"o":"m 218 1107 q 431 1272 343 1193 l 478 1272 q 690 1107 565 1193 l 643 1001 l 618 1001 l 454 1085 l 290 1001 l 265 1001 l 218 1107 m 832 300 q 729 65 831 147 q 439 -17 628 -17 q 160 65 257 -17 q 68 300 64 147 l 72 443 l 64 899 l 343 899 l 331 338 q 358 235 329 267 q 450 203 386 203 q 544 235 515 203 q 572 338 574 267 l 560 899 l 843 899 l 833 443 l 832 300 z "},"Ü":{"ha":907,"x_min":64,"x_max":843,"o":"m 326 1239 q 409 1209 379 1239 q 439 1125 439 1179 q 406 1033 439 1067 q 317 999 374 999 q 232 1028 261 999 q 203 1114 203 1058 q 236 1206 203 1172 q 326 1239 269 1239 m 594 1239 q 677 1209 647 1239 q 707 1125 707 1179 q 674 1033 707 1067 q 585 999 642 999 q 500 1028 529 999 q 471 1114 471 1058 q 504 1206 471 1172 q 594 1239 538 1239 m 832 300 q 729 65 831 147 q 439 -17 628 -17 q 160 65 257 -17 q 68 300 64 147 l 72 443 l 64 899 l 343 899 l 331 338 q 358 235 329 267 q 450 203 386 203 q 544 235 515 203 q 572 338 574 267 l 560 899 l 843 899 l 833 443 l 832 300 z "},"Ý":{"ha":825,"x_min":-11,"x_max":853,"o":"m 542 0 l 264 0 l 278 236 l 276 279 l -11 899 l 281 899 l 303 824 l 404 553 l 421 553 l 538 814 l 569 899 l 853 899 l 533 289 l 531 236 l 542 0 m 638 1107 l 629 1085 q 299 989 446 1026 l 275 994 l 233 1104 q 546 1275 397 1188 l 569 1269 l 638 1107 z "},"Þ":{"ha":836,"x_min":83,"x_max":836,"o":"m 518 775 q 755 703 674 775 q 836 486 836 631 q 730 230 836 321 q 428 139 624 139 l 360 138 l 365 0 l 83 0 l 97 264 l 86 769 l 83 774 l 86 774 l 83 899 l 369 899 l 367 775 l 518 775 m 467 333 q 522 383 504 354 q 540 464 540 413 q 512 551 540 525 q 418 581 483 578 l 361 576 l 356 339 l 467 333 z "},"ß":{"ha":865,"x_min":58,"x_max":854,"o":"m 439 726 q 608 707 529 726 q 788 643 686 688 l 797 615 l 663 429 q 783 340 744 374 q 838 276 822 307 q 854 204 854 246 q 772 38 854 92 q 564 -15 689 -15 q 342 25 449 -15 l 379 249 l 399 261 q 546 188 488 188 q 574 207 574 188 q 554 235 574 221 q 471 285 535 249 q 374 339 440 301 l 369 363 l 482 518 q 414 525 443 525 q 333 506 356 525 q 313 438 311 488 l 306 233 l 317 0 l 58 0 l 71 208 l 65 438 q 160 649 65 572 q 439 726 254 726 z "},"à":{"ha":763,"x_min":10,"x_max":742,"o":"m 507 781 q 197 932 394 832 l 193 956 l 289 1104 l 313 1106 q 592 882 450 988 l 531 782 l 507 781 m 465 99 l 360 101 l 276 97 l 261 0 l 10 0 l 231 713 l 542 713 l 742 0 l 481 0 l 465 99 m 429 286 l 389 485 l 374 485 l 321 286 l 375 285 l 429 286 z "},"á":{"ha":763,"x_min":10,"x_max":742,"o":"m 465 99 l 360 101 l 276 97 l 261 0 l 10 0 l 231 713 l 542 713 l 742 0 l 481 0 l 465 99 m 429 286 l 389 485 l 374 485 l 321 286 l 375 285 l 429 286 m 618 956 l 614 932 q 304 781 417 832 l 281 782 l 219 882 q 499 1106 361 988 l 522 1104 l 618 956 z "},"â":{"ha":763,"x_min":10,"x_max":742,"o":"m 142 893 q 368 1101 238 974 l 415 1101 q 642 893 513 1004 l 576 793 l 551 793 q 392 901 446 860 q 232 793 338 860 l 207 793 l 142 893 m 465 99 l 360 101 l 276 97 l 261 0 l 10 0 l 231 713 l 542 713 l 742 0 l 481 0 l 465 99 m 429 286 l 389 485 l 374 485 l 321 286 l 375 285 l 429 286 z "},"ã":{"ha":763,"x_min":10,"x_max":742,"o":"m 465 99 l 360 101 l 276 97 l 261 0 l 10 0 l 231 713 l 542 713 l 742 0 l 481 0 l 465 99 m 429 286 l 389 485 l 374 485 l 321 286 l 375 285 l 429 286 m 663 988 l 550 831 l 528 822 q 408 850 490 826 q 315 869 328 869 q 274 851 292 869 q 219 789 256 833 l 197 789 l 118 865 l 118 888 l 231 1044 l 253 1053 q 372 1025 290 1049 q 465 1006 453 1006 q 507 1024 489 1006 q 561 1086 525 1042 l 583 1086 l 663 1010 l 663 988 z "},"ä":{"ha":763,"x_min":10,"x_max":742,"o":"m 254 813 q 169 842 199 813 q 140 928 140 872 q 174 1019 140 986 q 264 1053 207 1053 q 347 1023 317 1053 q 376 939 376 993 q 344 847 376 881 q 254 813 311 813 m 522 813 q 438 842 467 813 q 408 928 408 872 q 442 1019 408 986 q 532 1053 475 1053 q 615 1023 585 1053 q 644 939 644 993 q 612 847 644 881 q 522 813 579 813 m 465 99 l 360 101 l 276 97 l 261 0 l 10 0 l 231 713 l 542 713 l 742 0 l 481 0 l 465 99 m 429 286 l 389 485 l 374 485 l 321 286 l 375 285 l 429 286 z "},"å":{"ha":763,"x_min":10,"x_max":742,"o":"m 465 99 l 360 101 l 276 97 l 261 0 l 10 0 l 231 713 l 542 713 l 742 0 l 481 0 l 465 99 m 429 286 l 389 485 l 374 485 l 321 286 l 375 285 l 429 286 m 397 1107 q 544 963 544 1107 q 504 845 544 886 q 386 804 464 804 q 239 953 239 804 q 397 1107 239 1107 m 390 999 q 353 990 364 999 q 343 957 343 981 q 354 920 343 931 q 393 910 365 910 q 430 919 419 910 q 440 953 440 929 q 429 988 440 978 q 390 999 418 999 z "},"æ":{"ha":1006,"x_min":-15,"x_max":1004,"o":"m 989 0 l 475 0 l 469 122 l 464 183 l 247 119 l 214 0 l -15 0 l 315 711 l 926 711 l 940 693 l 925 524 l 746 532 l 657 532 l 667 419 l 869 481 l 885 467 l 906 307 l 681 246 l 686 179 l 794 179 l 990 186 l 1004 169 l 989 0 m 433 503 l 418 503 l 338 322 l 447 356 l 433 503 z "},"ç":{"ha":621,"x_min":25,"x_max":613,"o":"m 433 199 q 568 213 503 199 l 589 200 l 568 -3 q 433 -14 506 -14 l 425 -58 l 472 -85 q 533 -172 533 -117 q 492 -256 533 -224 q 381 -289 451 -289 q 253 -256 313 -289 l 268 -151 l 279 -147 q 363 -186 325 -186 q 385 -167 385 -186 q 368 -146 385 -154 l 299 -108 l 318 -7 q 25 349 25 35 q 129 626 25 528 q 425 725 233 725 q 613 703 524 725 l 569 499 l 553 488 q 415 517 490 517 q 324 486 351 517 q 297 379 297 456 q 330 241 297 283 q 433 199 363 199 z "},"è":{"ha":667,"x_min":74,"x_max":649,"o":"m 468 781 q 158 932 356 832 l 154 956 l 250 1104 l 274 1106 q 553 882 411 988 l 492 782 l 468 781 m 640 188 l 625 0 l 74 0 l 86 207 l 74 713 l 635 713 l 649 694 l 633 507 l 446 515 l 329 515 l 328 454 l 439 454 l 560 458 l 574 440 l 558 253 l 422 257 l 322 257 l 321 233 l 322 197 l 432 197 l 626 204 l 640 188 z "},"é":{"ha":667,"x_min":74,"x_max":649,"o":"m 640 188 l 625 0 l 74 0 l 86 207 l 74 713 l 635 713 l 649 694 l 633 507 l 446 515 l 329 515 l 328 454 l 439 454 l 560 458 l 574 440 l 558 253 l 422 257 l 322 257 l 321 233 l 322 197 l 432 197 l 626 204 l 640 188 m 579 956 l 575 932 q 265 781 378 832 l 242 782 l 181 882 q 460 1106 322 988 l 483 1104 l 579 956 z "},"ê":{"ha":667,"x_min":74,"x_max":649,"o":"m 103 893 q 329 1101 199 974 l 376 1101 q 603 893 474 1004 l 538 793 l 513 793 q 353 901 407 860 q 193 793 299 860 l 168 793 l 103 893 m 640 188 l 625 0 l 74 0 l 86 207 l 74 713 l 635 713 l 649 694 l 633 507 l 446 515 l 329 515 l 328 454 l 439 454 l 560 458 l 574 440 l 558 253 l 422 257 l 322 257 l 321 233 l 322 197 l 432 197 l 626 204 l 640 188 z "},"ë":{"ha":667,"x_min":74,"x_max":649,"o":"m 215 813 q 131 842 160 813 q 101 928 101 872 q 135 1019 101 986 q 225 1053 168 1053 q 308 1023 278 1053 q 338 939 338 993 q 305 847 338 881 q 215 813 272 813 m 483 813 q 399 842 428 813 q 369 928 369 872 q 403 1019 369 986 q 493 1053 436 1053 q 576 1023 546 1053 q 606 939 606 993 q 573 847 606 881 q 483 813 540 813 m 640 188 l 625 0 l 74 0 l 86 207 l 74 713 l 635 713 l 649 694 l 633 507 l 446 515 l 329 515 l 328 454 l 439 454 l 560 458 l 574 440 l 558 253 l 422 257 l 322 257 l 321 233 l 322 197 l 432 197 l 626 204 l 640 188 z "},"ì":{"ha":421,"x_min":13,"x_max":411,"o":"m 132 1106 q 411 882 269 988 l 350 782 l 326 781 q 17 932 214 832 l 13 956 l 108 1104 l 132 1106 m 332 0 l 74 0 l 86 207 l 74 713 l 336 713 l 321 233 l 332 0 z "},"í":{"ha":421,"x_min":40,"x_max":439,"o":"m 332 0 l 74 0 l 86 207 l 74 713 l 336 713 l 321 233 l 332 0 m 439 956 l 435 932 q 125 781 238 832 l 101 782 l 40 882 q 319 1106 182 988 l 343 1104 l 439 956 z "},"î":{"ha":421,"x_min":-37,"x_max":463,"o":"m -37 893 q 189 1101 58 974 l 236 1101 q 463 893 333 1004 l 397 793 l 372 793 q 213 901 267 860 q 53 793 158 860 l 28 793 l -37 893 m 332 0 l 74 0 l 86 207 l 74 713 l 336 713 l 321 233 l 332 0 z "},"ï":{"ha":421,"x_min":-32,"x_max":458,"o":"m 92 1053 q 174 1023 144 1053 q 204 939 204 993 q 172 847 204 881 q 82 813 139 813 q -3 842 26 813 q -32 928 -32 872 q 1 1019 -32 986 q 92 1053 35 1053 m 346 1053 q 428 1023 399 1053 q 458 939 458 993 q 426 847 458 881 q 336 813 393 813 q 251 842 281 813 q 222 928 222 872 q 256 1019 222 986 q 346 1053 289 1053 m 332 0 l 74 0 l 86 207 l 74 713 l 336 713 l 321 233 l 332 0 z "},"ð":{"ha":850,"x_min":28,"x_max":818,"o":"m 471 717 q 728 631 639 717 q 818 386 818 546 q 713 92 818 194 q 410 -11 607 -11 q 118 0 310 -11 l 131 207 l 129 271 l 40 271 l 28 289 l 38 428 l 125 428 l 118 713 l 471 717 m 458 179 q 526 211 503 179 q 549 322 549 243 q 540 440 549 399 q 509 499 531 482 q 449 517 488 517 q 374 513 419 517 l 371 428 l 483 428 l 496 410 l 485 271 l 367 271 l 365 233 l 367 190 q 458 179 433 179 z "},"ñ":{"ha":853,"x_min":74,"x_max":781,"o":"m 776 0 l 496 0 l 313 328 l 299 328 l 297 264 l 307 0 l 74 0 l 86 208 l 74 713 l 354 713 l 538 385 l 553 385 l 544 703 l 781 717 l 767 239 l 776 0 m 696 988 l 583 831 l 561 822 q 442 850 524 826 q 349 869 361 869 q 307 851 325 869 q 253 789 289 833 l 231 789 l 151 865 l 151 888 l 264 1044 l 286 1053 q 406 1025 324 1049 q 499 1006 486 1006 q 540 1024 522 1006 q 594 1086 558 1042 l 617 1086 l 696 1010 l 696 988 z "},"ò":{"ha":785,"x_min":25,"x_max":758,"o":"m 315 1106 q 594 882 453 988 l 533 782 l 510 781 q 200 932 397 832 l 196 956 l 292 1104 l 315 1106 m 410 726 q 667 635 576 726 q 758 375 758 543 q 658 87 758 189 q 374 -15 557 -15 q 116 78 207 -15 q 25 342 25 172 q 126 626 25 525 q 410 726 226 726 m 386 522 q 328 512 347 522 q 302 471 310 501 q 294 376 294 440 q 303 247 294 289 q 332 190 311 206 q 397 175 353 175 q 456 185 438 175 q 482 226 475 196 q 489 319 489 256 q 481 450 489 408 q 452 507 474 492 q 386 522 431 522 z "},"ó":{"ha":785,"x_min":25,"x_max":758,"o":"m 410 726 q 667 635 576 726 q 758 375 758 543 q 658 87 758 189 q 374 -15 557 -15 q 116 78 207 -15 q 25 342 25 172 q 126 626 25 525 q 410 726 226 726 m 386 522 q 328 512 347 522 q 302 471 310 501 q 294 376 294 440 q 303 247 294 289 q 332 190 311 206 q 397 175 353 175 q 456 185 438 175 q 482 226 475 196 q 489 319 489 256 q 481 450 489 408 q 452 507 474 492 q 386 522 431 522 m 621 956 l 617 932 q 307 781 419 832 l 283 782 l 222 882 q 501 1106 364 988 l 525 1104 l 621 956 z "},"ô":{"ha":785,"x_min":25,"x_max":758,"o":"m 144 893 q 371 1101 240 974 l 418 1101 q 644 893 515 1004 l 579 793 l 554 793 q 394 901 449 860 q 235 793 340 860 l 210 793 l 144 893 m 410 726 q 667 635 576 726 q 758 375 758 543 q 658 87 758 189 q 374 -15 557 -15 q 116 78 207 -15 q 25 342 25 172 q 126 626 25 525 q 410 726 226 726 m 386 522 q 328 512 347 522 q 302 471 310 501 q 294 376 294 440 q 303 247 294 289 q 332 190 311 206 q 397 175 353 175 q 456 185 438 175 q 482 226 475 196 q 489 319 489 256 q 481 450 489 408 q 452 507 474 492 q 386 522 431 522 z "},"õ":{"ha":785,"x_min":25,"x_max":758,"o":"m 410 726 q 667 635 576 726 q 758 375 758 543 q 658 87 758 189 q 374 -15 557 -15 q 116 78 207 -15 q 25 342 25 172 q 126 626 25 525 q 410 726 226 726 m 386 522 q 328 512 347 522 q 302 471 310 501 q 294 376 294 440 q 303 247 294 289 q 332 190 311 206 q 397 175 353 175 q 456 185 438 175 q 482 226 475 196 q 489 319 489 256 q 481 450 489 408 q 452 507 474 492 q 386 522 431 522 m 665 988 l 553 831 l 531 822 q 411 850 493 826 q 318 869 331 869 q 276 851 294 869 q 222 789 258 833 l 200 789 l 121 865 l 121 888 l 233 1044 l 256 1053 q 375 1025 293 1049 q 468 1006 456 1006 q 510 1024 492 1006 q 564 1086 528 1042 l 586 1086 l 665 1010 l 665 988 z "},"ö":{"ha":785,"x_min":25,"x_max":758,"o":"m 267 1053 q 349 1023 319 1053 q 379 939 379 993 q 347 847 379 881 q 257 813 314 813 q 172 842 201 813 q 143 928 143 872 q 176 1019 143 986 q 267 1053 210 1053 m 535 1053 q 617 1023 588 1053 q 647 939 647 993 q 615 847 647 881 q 525 813 582 813 q 440 842 469 813 q 411 928 411 872 q 444 1019 411 986 q 535 1053 478 1053 m 410 726 q 667 635 576 726 q 758 375 758 543 q 658 87 758 189 q 374 -15 557 -15 q 116 78 207 -15 q 25 342 25 172 q 126 626 25 525 q 410 726 226 726 m 386 522 q 328 512 347 522 q 302 471 310 501 q 294 376 294 440 q 303 247 294 289 q 332 190 311 206 q 397 175 353 175 q 456 185 438 175 q 482 226 475 196 q 489 319 489 256 q 481 450 489 408 q 452 507 474 492 q 386 522 431 522 z "},"÷":{"ha":667,"x_min":21,"x_max":647,"o":"m 635 264 l 38 264 l 21 282 l 33 444 l 631 444 l 647 426 l 635 264 m 312 235 q 390 207 362 235 q 417 127 417 178 q 387 41 417 73 q 303 9 356 9 q 223 37 250 9 q 196 117 196 65 q 227 203 196 172 q 312 235 258 235 m 312 605 q 390 576 362 605 q 417 497 417 548 q 387 410 417 442 q 303 379 356 379 q 223 406 250 379 q 196 487 196 434 q 227 573 196 541 q 312 605 258 605 z "},"ø":{"ha":785,"x_min":25,"x_max":760,"o":"m 679 622 q 758 375 758 531 q 658 87 758 189 q 374 -15 557 -15 q 294 -10 328 -15 l 192 -178 l 39 -100 l 33 -78 l 124 71 q 25 342 25 165 q 126 626 25 525 q 410 726 226 726 q 517 715 465 726 l 601 853 l 747 776 l 760 753 l 679 622 m 397 175 q 456 185 438 175 q 482 226 475 196 q 489 319 489 256 q 481 450 489 408 q 452 507 474 492 q 386 522 431 522 q 328 512 347 522 q 302 471 310 501 q 294 376 294 440 q 303 247 294 289 q 332 190 311 206 q 397 175 353 175 z "},"ù":{"ha":786,"x_min":58,"x_max":728,"o":"m 314 1106 q 593 882 451 988 l 532 782 l 508 781 q 199 932 396 832 l 194 956 l 290 1104 l 314 1106 m 718 235 q 629 49 717 114 q 379 -15 542 -15 q 140 49 222 -15 q 63 235 58 114 l 65 350 l 58 713 l 315 713 l 304 269 q 322 206 303 225 q 390 188 342 188 q 459 206 439 188 q 478 269 479 225 l 467 713 l 728 713 l 719 351 l 718 235 z "},"ú":{"ha":786,"x_min":58,"x_max":728,"o":"m 718 235 q 629 49 717 114 q 379 -15 542 -15 q 140 49 222 -15 q 63 235 58 114 l 65 350 l 58 713 l 315 713 l 304 269 q 322 206 303 225 q 390 188 342 188 q 459 206 439 188 q 478 269 479 225 l 467 713 l 728 713 l 719 351 l 718 235 m 619 956 l 615 932 q 306 781 418 832 l 282 782 l 221 882 q 500 1106 363 988 l 524 1104 l 619 956 z "},"û":{"ha":786,"x_min":58,"x_max":728,"o":"m 143 893 q 369 1101 239 974 l 417 1101 q 643 893 514 1004 l 578 793 l 553 793 q 393 901 447 860 q 233 793 339 860 l 208 793 l 143 893 m 718 235 q 629 49 717 114 q 379 -15 542 -15 q 140 49 222 -15 q 63 235 58 114 l 65 350 l 58 713 l 315 713 l 304 269 q 322 206 303 225 q 390 188 342 188 q 459 206 439 188 q 478 269 479 225 l 467 713 l 728 713 l 719 351 l 718 235 z "},"ü":{"ha":786,"x_min":58,"x_max":728,"o":"m 265 1053 q 348 1023 318 1053 q 378 939 378 993 q 345 847 378 881 q 256 813 313 813 q 171 842 200 813 q 142 928 142 872 q 175 1019 142 986 q 265 1053 208 1053 m 533 1053 q 616 1023 586 1053 q 646 939 646 993 q 613 847 646 881 q 524 813 581 813 q 439 842 468 813 q 410 928 410 872 q 443 1019 410 986 q 533 1053 476 1053 m 718 235 q 629 49 717 114 q 379 -15 542 -15 q 140 49 222 -15 q 63 235 58 114 l 65 350 l 58 713 l 315 713 l 304 269 q 322 206 303 225 q 390 188 342 188 q 459 206 439 188 q 478 269 479 225 l 467 713 l 728 713 l 719 351 l 718 235 z "},"ý":{"ha":729,"x_min":-4,"x_max":746,"o":"m 483 0 l 226 0 l 239 182 l 238 206 l -4 713 l 265 713 l 285 647 l 357 463 l 371 463 l 456 638 l 483 713 l 746 713 l 474 213 l 472 182 l 483 0 m 600 956 l 596 932 q 286 781 399 832 l 263 782 l 201 882 q 481 1106 343 988 l 504 1104 l 600 956 z "},"þ":{"ha":740,"x_min":74,"x_max":735,"o":"m 461 621 q 735 386 735 621 q 642 178 735 253 q 381 104 550 104 l 329 103 l 335 0 l 74 0 l 86 207 l 76 617 l 74 619 l 76 619 l 74 713 l 339 713 l 336 621 l 461 621 m 414 283 q 450 317 439 301 q 461 365 461 333 q 440 424 461 408 q 367 443 419 440 l 331 439 l 325 289 l 414 283 z "},"ÿ":{"ha":729,"x_min":-4,"x_max":746,"o":"m 236 813 q 151 842 181 813 q 122 928 122 872 q 156 1019 122 986 q 246 1053 189 1053 q 328 1023 299 1053 q 358 939 358 993 q 326 847 358 881 q 236 813 293 813 m 504 813 q 419 842 449 813 q 390 928 390 872 q 424 1019 390 986 q 514 1053 457 1053 q 597 1023 567 1053 q 626 939 626 993 q 594 847 626 881 q 504 813 561 813 m 483 0 l 226 0 l 239 182 l 238 206 l -4 713 l 265 713 l 285 647 l 357 463 l 371 463 l 456 638 l 483 713 l 746 713 l 474 213 l 472 182 l 483 0 z "},"Ā":{"ha":871,"x_min":3,"x_max":857,"o":"m 575 0 l 550 149 l 549 153 l 413 156 l 299 150 l 275 0 l 3 0 l 275 899 l 611 899 l 857 0 l 575 0 m 446 650 l 429 650 l 351 356 l 429 354 l 507 356 l 446 650 m 632 1036 l 249 1036 l 232 1054 l 244 1203 l 628 1203 l 644 1185 l 632 1036 z "},"ā":{"ha":763,"x_min":10,"x_max":742,"o":"m 465 99 l 360 101 l 276 97 l 261 0 l 10 0 l 231 713 l 542 713 l 742 0 l 481 0 l 465 99 m 429 286 l 389 485 l 374 485 l 321 286 l 375 285 l 429 286 m 586 850 l 203 850 l 186 868 l 199 1017 l 582 1017 l 599 999 l 586 850 z "},"Ă":{"ha":871,"x_min":3,"x_max":857,"o":"m 575 0 l 550 149 l 549 153 l 413 156 l 299 150 l 275 0 l 3 0 l 275 899 l 611 899 l 857 0 l 575 0 m 446 650 l 429 650 l 351 356 l 429 354 l 507 356 l 446 650 m 685 1167 q 588 1039 653 1083 q 433 994 524 994 q 282 1039 344 994 q 190 1167 219 1083 l 246 1250 l 283 1250 q 443 1181 331 1181 q 592 1250 546 1181 l 629 1250 l 685 1167 z "},"ă":{"ha":763,"x_min":10,"x_max":742,"o":"m 465 99 l 360 101 l 276 97 l 261 0 l 10 0 l 231 713 l 542 713 l 742 0 l 481 0 l 465 99 m 429 286 l 389 485 l 374 485 l 321 286 l 375 285 l 429 286 m 640 989 q 550 854 614 908 q 386 800 486 800 q 228 855 288 800 q 146 989 169 910 l 201 1075 l 239 1075 q 302 1010 261 1033 q 394 988 343 988 q 487 1010 446 988 q 547 1075 528 1033 l 585 1075 l 640 989 z "},"Ą":{"ha":871,"x_min":3,"x_max":879,"o":"m 879 -210 q 725 -274 796 -274 q 619 -235 658 -274 q 581 -135 581 -196 q 642 0 581 -71 l 575 0 l 550 149 l 549 153 l 413 156 l 299 150 l 275 0 l 3 0 l 275 899 l 611 899 l 857 0 l 760 0 q 714 -93 714 -57 q 764 -137 714 -137 q 849 -110 804 -137 l 863 -110 l 879 -210 m 446 650 l 429 650 l 351 356 l 429 354 l 507 356 l 446 650 z "},"ą":{"ha":763,"x_min":10,"x_max":775,"o":"m 775 -210 q 621 -274 692 -274 q 515 -235 554 -274 q 476 -135 476 -196 q 538 0 476 -71 l 481 0 l 465 99 l 360 101 l 276 97 l 261 0 l 10 0 l 231 713 l 542 713 l 742 0 l 656 0 q 610 -93 610 -57 q 660 -137 610 -137 q 744 -110 700 -137 l 758 -110 l 775 -210 m 429 286 l 389 485 l 374 485 l 321 286 l 375 285 l 429 286 z "},"Ć":{"ha":714,"x_min":24,"x_max":714,"o":"m 489 914 q 714 876 608 914 l 667 656 l 649 644 q 565 676 613 664 q 478 688 518 688 q 356 638 393 688 q 318 474 318 589 q 361 277 318 339 q 496 215 404 215 q 667 244 586 215 l 689 231 l 667 11 q 474 -15 583 -15 q 137 101 250 -15 q 24 442 24 218 q 145 790 24 667 q 489 914 267 914 m 665 1107 l 657 1085 q 326 989 474 1026 l 303 994 l 261 1104 q 574 1275 425 1188 l 597 1269 l 665 1107 z "},"ć":{"ha":621,"x_min":25,"x_max":614,"o":"m 425 725 q 613 703 524 725 l 569 499 l 553 488 q 415 517 490 517 q 324 486 351 517 q 297 379 297 456 q 330 241 297 283 q 433 199 363 199 q 568 213 503 199 l 589 200 l 568 -3 q 413 -14 506 -14 q 122 78 218 -14 q 25 349 25 171 q 129 626 25 528 q 425 725 233 725 m 614 956 l 610 932 q 300 781 413 832 l 276 782 l 215 882 q 494 1106 357 988 l 518 1104 l 614 956 z "},"Ĉ":{"ha":714,"x_min":24,"x_max":714,"o":"m 204 1107 q 417 1272 329 1193 l 464 1272 q 676 1107 551 1193 l 629 1001 l 604 1001 l 440 1085 l 276 1001 l 251 1001 l 204 1107 m 489 914 q 714 876 608 914 l 667 656 l 649 644 q 565 676 613 664 q 478 688 518 688 q 356 638 393 688 q 318 474 318 589 q 361 277 318 339 q 496 215 404 215 q 667 244 586 215 l 689 231 l 667 11 q 474 -15 583 -15 q 137 101 250 -15 q 24 442 24 218 q 145 790 24 667 q 489 914 267 914 z "},"ĉ":{"ha":621,"x_min":25,"x_max":638,"o":"m 138 893 q 364 1101 233 974 l 411 1101 q 638 893 508 1004 l 572 793 l 547 793 q 388 901 442 860 q 228 793 333 860 l 203 793 l 138 893 m 425 725 q 613 703 524 725 l 569 499 l 553 488 q 415 517 490 517 q 324 486 351 517 q 297 379 297 456 q 330 241 297 283 q 433 199 363 199 q 568 213 503 199 l 589 200 l 568 -3 q 413 -14 506 -14 q 122 78 218 -14 q 25 349 25 171 q 129 626 25 528 q 425 725 233 725 z "},"Ċ":{"ha":714,"x_min":24,"x_max":714,"o":"m 446 1254 q 541 1219 507 1254 q 575 1122 575 1185 q 538 1017 575 1056 q 435 978 500 978 q 338 1012 371 978 q 304 1110 304 1046 q 342 1215 304 1176 q 446 1254 381 1254 m 489 914 q 714 876 608 914 l 667 656 l 649 644 q 565 676 613 664 q 478 688 518 688 q 356 638 393 688 q 318 474 318 589 q 361 277 318 339 q 496 215 404 215 q 667 244 586 215 l 689 231 l 667 11 q 474 -15 583 -15 q 137 101 250 -15 q 24 442 24 218 q 145 790 24 667 q 489 914 267 914 z "},"ċ":{"ha":621,"x_min":25,"x_max":613,"o":"m 393 1068 q 488 1033 454 1068 q 522 936 522 999 q 485 831 522 869 q 382 792 447 792 q 285 826 318 792 q 251 924 251 860 q 290 1029 251 990 q 393 1068 328 1068 m 425 725 q 613 703 524 725 l 569 499 l 553 488 q 415 517 490 517 q 324 486 351 517 q 297 379 297 456 q 330 241 297 283 q 433 199 363 199 q 568 213 503 199 l 589 200 l 568 -3 q 413 -14 506 -14 q 122 78 218 -14 q 25 349 25 171 q 129 626 25 528 q 425 725 233 725 z "},"Č":{"ha":714,"x_min":24,"x_max":714,"o":"m 489 914 q 714 876 608 914 l 667 656 l 649 644 q 565 676 613 664 q 478 688 518 688 q 356 638 393 688 q 318 474 318 589 q 361 277 318 339 q 496 215 404 215 q 667 244 586 215 l 689 231 l 667 11 q 474 -15 583 -15 q 137 101 250 -15 q 24 442 24 218 q 145 790 24 667 q 489 914 267 914 m 676 1154 q 464 989 551 1068 l 417 989 q 204 1154 329 1068 l 251 1260 l 276 1260 l 440 1176 l 604 1260 l 629 1260 l 676 1154 z "},"č":{"ha":621,"x_min":25,"x_max":638,"o":"m 425 725 q 613 703 524 725 l 569 499 l 553 488 q 415 517 490 517 q 324 486 351 517 q 297 379 297 456 q 330 241 297 283 q 433 199 363 199 q 568 213 503 199 l 589 200 l 568 -3 q 413 -14 506 -14 q 122 78 218 -14 q 25 349 25 171 q 129 626 25 528 q 425 725 233 725 m 638 996 q 411 788 542 915 l 364 788 q 138 996 267 885 l 203 1096 l 228 1096 q 388 988 333 1029 q 547 1096 442 1029 l 572 1096 l 638 996 z "},"Ď":{"ha":924,"x_min":83,"x_max":900,"o":"m 489 904 q 794 797 688 904 q 900 486 900 689 q 776 117 900 246 q 422 -12 653 -12 q 83 0 278 -12 l 97 264 l 83 899 l 489 904 m 475 194 q 574 247 540 194 q 608 418 608 299 q 594 578 608 519 q 550 662 581 636 q 465 688 519 688 q 361 682 413 688 l 351 292 l 354 206 q 475 194 438 194 m 692 1154 q 479 989 567 1068 l 432 989 q 219 1154 344 1068 l 267 1260 l 292 1260 l 456 1176 l 619 1260 l 644 1260 l 692 1154 z "},"ď":{"ha":799,"x_min":74,"x_max":774,"o":"m 426 717 q 684 631 594 717 q 774 386 774 546 q 668 92 774 194 q 365 -11 563 -11 q 74 0 265 -11 l 86 207 l 74 713 l 426 717 m 414 179 q 481 211 458 179 q 504 322 504 243 q 495 440 504 399 q 465 499 486 482 q 404 517 443 517 q 329 513 375 517 l 321 233 l 322 190 q 414 179 389 179 m 629 996 q 403 788 533 915 l 356 788 q 129 996 258 885 l 194 1096 l 219 1096 q 379 988 325 1029 q 539 1096 433 1029 l 564 1096 l 629 996 z "},"Đ":{"ha":924,"x_min":83,"x_max":900,"o":"m 489 904 q 794 797 688 904 q 900 486 900 689 q 776 117 900 246 q 422 -12 653 -12 q 83 0 278 -12 l 97 264 l 83 899 l 489 904 m 475 194 q 574 247 540 194 q 608 418 608 299 q 594 578 608 519 q 550 662 581 636 q 465 688 519 688 q 361 682 413 688 l 351 292 l 354 206 q 475 194 438 194 m 650 1036 l 267 1036 l 250 1054 l 263 1203 l 646 1203 l 663 1185 l 650 1036 z "},"đ":{"ha":799,"x_min":74,"x_max":774,"o":"m 426 717 q 684 631 594 717 q 774 386 774 546 q 668 92 774 194 q 365 -11 563 -11 q 74 0 265 -11 l 86 207 l 74 713 l 426 717 m 414 179 q 481 211 458 179 q 504 322 504 243 q 495 440 504 399 q 465 499 486 482 q 404 517 443 517 q 329 513 375 517 l 321 233 l 322 190 q 414 179 389 179 m 574 850 l 190 850 l 174 868 l 186 1017 l 569 1017 l 586 999 l 574 850 z "},"Ē":{"ha":751,"x_min":83,"x_max":743,"o":"m 733 203 l 717 0 l 83 0 l 97 264 l 83 899 l 728 899 l 743 879 l 725 676 l 504 685 l 361 685 l 358 558 l 496 558 l 640 563 l 656 543 l 639 340 l 478 344 l 353 344 l 351 292 l 354 214 l 488 214 l 718 222 l 733 203 m 600 1036 l 217 1036 l 200 1054 l 213 1203 l 596 1203 l 613 1185 l 600 1036 z "},"ē":{"ha":667,"x_min":74,"x_max":649,"o":"m 640 188 l 625 0 l 74 0 l 86 207 l 74 713 l 635 713 l 649 694 l 633 507 l 446 515 l 329 515 l 328 454 l 439 454 l 560 458 l 574 440 l 558 253 l 422 257 l 322 257 l 321 233 l 322 197 l 432 197 l 626 204 l 640 188 m 547 850 l 164 850 l 147 868 l 160 1017 l 543 1017 l 560 999 l 547 850 z "},"Ĕ":{"ha":751,"x_min":83,"x_max":743,"o":"m 733 203 l 717 0 l 83 0 l 97 264 l 83 899 l 728 899 l 743 879 l 725 676 l 504 685 l 361 685 l 358 558 l 496 558 l 640 563 l 656 543 l 639 340 l 478 344 l 353 344 l 351 292 l 354 214 l 488 214 l 718 222 l 733 203 m 653 1167 q 556 1039 621 1083 q 401 994 492 994 q 250 1039 313 994 q 158 1167 188 1083 l 214 1250 l 251 1250 q 411 1181 299 1181 q 560 1250 514 1181 l 597 1250 l 653 1167 z "},"ĕ":{"ha":667,"x_min":74,"x_max":649,"o":"m 640 188 l 625 0 l 74 0 l 86 207 l 74 713 l 635 713 l 649 694 l 633 507 l 446 515 l 329 515 l 328 454 l 439 454 l 560 458 l 574 440 l 558 253 l 422 257 l 322 257 l 321 233 l 322 197 l 432 197 l 626 204 l 640 188 m 601 989 q 511 854 575 908 q 347 800 447 800 q 190 855 249 800 q 107 989 131 910 l 163 1075 l 200 1075 q 263 1010 222 1033 q 356 988 304 988 q 448 1010 407 988 q 508 1075 489 1033 l 546 1075 l 601 989 z "},"Ė":{"ha":751,"x_min":83,"x_max":743,"o":"m 400 978 q 303 1012 336 978 q 269 1110 269 1046 q 308 1215 269 1176 q 411 1254 346 1254 q 506 1219 472 1254 q 540 1122 540 1185 q 503 1017 540 1056 q 400 978 465 978 m 733 203 l 717 0 l 83 0 l 97 264 l 83 899 l 728 899 l 743 879 l 725 676 l 504 685 l 361 685 l 358 558 l 496 558 l 640 563 l 656 543 l 639 340 l 478 344 l 353 344 l 351 292 l 354 214 l 488 214 l 718 222 l 733 203 z "},"ė":{"ha":667,"x_min":74,"x_max":649,"o":"m 347 792 q 250 826 283 792 q 217 924 217 860 q 255 1029 217 990 q 358 1068 293 1068 q 453 1033 419 1068 q 488 936 488 999 q 450 831 488 869 q 347 792 413 792 m 640 188 l 625 0 l 74 0 l 86 207 l 74 713 l 635 713 l 649 694 l 633 507 l 446 515 l 329 515 l 328 454 l 439 454 l 560 458 l 574 440 l 558 253 l 422 257 l 322 257 l 321 233 l 322 197 l 432 197 l 626 204 l 640 188 z "},"Ę":{"ha":751,"x_min":83,"x_max":744,"o":"m 744 -210 q 590 -274 661 -274 q 485 -235 524 -274 q 446 -139 446 -197 q 492 -12 446 -74 l 501 0 l 83 0 l 97 264 l 83 899 l 728 899 l 743 879 l 725 676 l 504 685 l 361 685 l 358 558 l 496 558 l 640 563 l 656 543 l 639 340 l 478 344 l 353 344 l 351 292 l 354 214 l 488 214 l 718 222 l 733 203 l 717 0 l 622 0 l 601 -31 q 579 -92 579 -64 q 629 -137 579 -137 q 714 -110 669 -137 l 728 -110 l 744 -210 z "},"ę":{"ha":667,"x_min":74,"x_max":649,"o":"m 489 -33 q 467 -94 467 -67 q 517 -140 467 -140 q 601 -112 557 -140 l 615 -112 l 632 -212 q 478 -276 549 -276 q 372 -238 411 -276 q 333 -142 333 -200 q 379 -15 333 -76 l 390 0 l 74 0 l 86 207 l 74 713 l 635 713 l 649 694 l 633 507 l 446 515 l 329 515 l 328 454 l 439 454 l 560 458 l 574 440 l 558 253 l 422 257 l 322 257 l 321 233 l 322 197 l 432 197 l 626 204 l 640 188 l 625 0 l 511 0 l 489 -33 z "},"Ě":{"ha":751,"x_min":83,"x_max":743,"o":"m 733 203 l 717 0 l 83 0 l 97 264 l 83 899 l 728 899 l 743 879 l 725 676 l 504 685 l 361 685 l 358 558 l 496 558 l 640 563 l 656 543 l 639 340 l 478 344 l 353 344 l 351 292 l 354 214 l 488 214 l 718 222 l 733 203 m 642 1154 q 429 989 517 1068 l 382 989 q 169 1154 294 1068 l 217 1260 l 242 1260 l 406 1176 l 569 1260 l 594 1260 l 642 1154 z "},"ě":{"ha":667,"x_min":74,"x_max":649,"o":"m 640 188 l 625 0 l 74 0 l 86 207 l 74 713 l 635 713 l 649 694 l 633 507 l 446 515 l 329 515 l 328 454 l 439 454 l 560 458 l 574 440 l 558 253 l 422 257 l 322 257 l 321 233 l 322 197 l 432 197 l 626 204 l 640 188 m 603 996 q 376 788 507 915 l 329 788 q 103 996 232 885 l 168 1096 l 193 1096 q 353 988 299 1029 q 513 1096 407 1029 l 538 1096 l 603 996 z "},"Ĝ":{"ha":828,"x_min":24,"x_max":790,"o":"m 219 1107 q 432 1272 344 1193 l 479 1272 q 692 1107 567 1193 l 644 1001 l 619 1001 l 456 1085 l 292 1001 l 267 1001 l 219 1107 m 531 914 q 790 872 681 914 l 731 626 l 708 626 q 588 676 639 661 q 478 692 538 692 q 380 671 414 692 q 331 597 346 650 q 315 444 315 544 q 331 290 315 343 q 383 215 346 236 q 489 193 419 193 q 539 199 508 193 l 539 243 l 535 394 l 789 413 l 785 290 l 785 44 q 464 -17 624 -17 q 135 99 246 -17 q 24 431 24 215 q 155 790 24 667 q 531 914 286 914 z "},"ĝ":{"ha":714,"x_min":25,"x_max":679,"o":"m 125 893 q 351 1101 221 974 l 399 1101 q 625 893 496 1004 l 560 793 l 535 793 q 375 901 429 860 q 215 793 321 860 l 190 793 l 125 893 m 460 725 q 679 697 592 725 l 624 471 l 604 471 q 503 509 544 497 q 411 521 461 521 q 338 509 363 521 q 304 462 314 497 q 294 353 294 426 q 306 241 294 278 q 344 191 317 204 q 426 178 371 178 q 447 178 447 178 l 447 196 l 444 322 l 679 338 l 675 240 l 675 36 q 403 -15 539 -15 q 120 76 215 -15 q 25 339 25 168 q 138 626 25 528 q 460 725 250 725 z "},"Ğ":{"ha":828,"x_min":24,"x_max":790,"o":"m 531 914 q 790 872 681 914 l 731 626 l 708 626 q 588 676 639 661 q 478 692 538 692 q 380 671 414 692 q 331 597 346 650 q 315 444 315 544 q 331 290 315 343 q 383 215 346 236 q 489 193 419 193 q 539 199 508 193 l 539 243 l 535 394 l 789 413 l 785 290 l 785 44 q 464 -17 624 -17 q 135 99 246 -17 q 24 431 24 215 q 155 790 24 667 q 531 914 286 914 m 703 1167 q 606 1039 671 1083 q 451 994 542 994 q 300 1039 363 994 q 208 1167 238 1083 l 264 1250 l 301 1250 q 461 1181 349 1181 q 610 1250 564 1181 l 647 1250 l 703 1167 z "},"ğ":{"ha":714,"x_min":25,"x_max":679,"o":"m 460 725 q 679 697 592 725 l 624 471 l 604 471 q 503 509 544 497 q 411 521 461 521 q 338 509 363 521 q 304 462 314 497 q 294 353 294 426 q 306 241 294 278 q 344 191 317 204 q 426 178 371 178 q 447 178 447 178 l 447 196 l 444 322 l 679 338 l 675 240 l 675 36 q 403 -15 539 -15 q 120 76 215 -15 q 25 339 25 168 q 138 626 25 528 q 460 725 250 725 m 624 989 q 533 854 597 908 q 369 800 469 800 q 212 855 271 800 q 129 989 153 910 l 185 1075 l 222 1075 q 285 1010 244 1033 q 378 988 326 988 q 470 1010 429 988 q 531 1075 511 1033 l 568 1075 l 624 989 z "},"Ġ":{"ha":828,"x_min":24,"x_max":790,"o":"m 461 1254 q 556 1219 522 1254 q 590 1122 590 1185 q 553 1017 590 1056 q 450 978 515 978 q 353 1012 386 978 q 319 1110 319 1046 q 358 1215 319 1176 q 461 1254 396 1254 m 531 914 q 790 872 681 914 l 731 626 l 708 626 q 588 676 639 661 q 478 692 538 692 q 380 671 414 692 q 331 597 346 650 q 315 444 315 544 q 331 290 315 343 q 383 215 346 236 q 489 193 419 193 q 539 199 508 193 l 539 243 l 535 394 l 789 413 l 785 290 l 785 44 q 464 -17 624 -17 q 135 99 246 -17 q 24 431 24 215 q 155 790 24 667 q 531 914 286 914 z "},"ġ":{"ha":714,"x_min":25,"x_max":679,"o":"m 381 1068 q 476 1033 442 1068 q 510 936 510 999 q 472 831 510 869 q 369 792 435 792 q 272 826 306 792 q 239 924 239 860 q 277 1029 239 990 q 381 1068 315 1068 m 460 725 q 679 697 592 725 l 624 471 l 604 471 q 503 509 544 497 q 411 521 461 521 q 338 509 363 521 q 304 462 314 497 q 294 353 294 426 q 306 241 294 278 q 344 191 317 204 q 426 178 371 178 q 447 178 447 178 l 447 196 l 444 322 l 679 338 l 675 240 l 675 36 q 403 -15 539 -15 q 120 76 215 -15 q 25 339 25 168 q 138 626 25 528 q 460 725 250 725 z "},"Ģ":{"ha":828,"x_min":24,"x_max":790,"o":"m 531 914 q 790 872 681 914 l 731 626 l 708 626 q 588 676 639 661 q 478 692 538 692 q 380 671 414 692 q 331 597 346 650 q 315 444 315 544 q 331 290 315 343 q 383 215 346 236 q 489 193 419 193 q 539 199 508 193 l 539 243 l 535 394 l 789 413 l 785 290 l 785 44 q 464 -17 624 -17 q 135 99 246 -17 q 24 431 24 215 q 155 790 24 667 q 531 914 286 914 m 486 -35 q 543 -161 543 -90 q 499 -294 543 -231 q 363 -422 456 -357 l 290 -358 l 288 -342 q 354 -212 354 -283 q 315 -124 354 -162 l 315 -104 q 486 -35 400 -56 z "},"ģ":{"ha":714,"x_min":25,"x_max":679,"o":"m 460 725 q 679 697 592 725 l 624 471 l 604 471 q 503 509 544 497 q 411 521 461 521 q 338 509 363 521 q 304 462 314 497 q 294 353 294 426 q 306 241 294 278 q 344 191 317 204 q 426 178 371 178 q 447 178 447 178 l 447 196 l 444 322 l 679 338 l 675 240 l 675 36 q 403 -15 539 -15 q 120 76 215 -15 q 25 339 25 168 q 138 626 25 528 q 460 725 250 725 m 439 -35 q 496 -161 496 -90 q 452 -294 496 -231 q 315 -422 408 -357 l 243 -358 l 240 -342 q 307 -212 307 -283 q 268 -124 307 -162 l 268 -104 q 439 -35 353 -56 z "},"Ĥ":{"ha":988,"x_min":83,"x_max":903,"o":"m 257 1107 q 469 1272 382 1193 l 517 1272 q 729 1107 604 1193 l 682 1001 l 657 1001 l 493 1085 l 329 1001 l 304 1001 l 257 1107 m 899 0 l 619 0 l 633 264 l 632 333 l 482 336 l 353 332 l 351 292 l 363 0 l 83 0 l 97 264 l 83 899 l 367 899 l 358 558 l 499 556 l 626 558 l 619 899 l 903 899 l 888 292 l 899 0 z "},"ĥ":{"ha":853,"x_min":74,"x_max":781,"o":"m 181 893 q 407 1101 276 974 l 454 1101 q 681 893 551 1004 l 615 793 l 590 793 q 431 901 485 860 q 271 793 376 860 l 246 793 l 181 893 m 776 0 l 518 0 l 531 207 l 529 247 l 418 250 l 321 247 l 321 233 l 332 0 l 74 0 l 86 207 l 74 713 l 336 713 l 328 456 l 432 453 l 525 456 l 518 713 l 781 713 l 767 233 l 776 0 z "},"Ħ":{"ha":1033,"x_min":14,"x_max":1019,"o":"m 906 292 l 917 0 l 638 0 l 651 264 l 650 333 l 500 336 l 371 332 l 369 292 l 381 0 l 101 0 l 115 264 l 107 656 l 25 656 l 14 669 l 22 796 l 104 796 l 101 899 l 385 899 l 382 796 l 640 796 l 638 899 l 921 899 l 918 796 l 1008 796 l 1019 782 l 1013 656 l 915 656 l 906 292 m 379 656 l 376 558 l 517 556 l 644 558 l 643 656 l 379 656 z "},"ħ":{"ha":892,"x_min":15,"x_max":878,"o":"m 775 233 l 785 0 l 526 0 l 539 207 l 538 247 l 426 250 l 329 247 l 329 233 l 340 0 l 82 0 l 94 207 l 88 508 l 25 508 l 15 521 l 22 638 l 83 638 l 82 713 l 344 713 l 342 638 l 528 638 l 526 713 l 789 713 l 786 638 l 868 638 l 878 625 l 871 508 l 783 508 l 775 233 m 338 508 l 336 456 l 440 453 l 533 456 l 532 508 l 338 508 z "},"Ĩ":{"ha":454,"x_min":-12,"x_max":463,"o":"m 363 0 l 83 0 l 97 264 l 83 899 l 367 899 l 351 292 l 363 0 m 463 1169 l 363 1015 l 342 1007 q 242 1033 311 1013 q 171 1051 185 1051 q 131 1033 147 1051 q 88 974 114 1014 l 65 974 l -12 1050 l -12 1072 l 88 1226 l 108 1235 q 208 1208 139 1229 q 279 1190 265 1190 q 319 1209 303 1190 q 363 1268 336 1228 l 385 1268 l 463 1192 l 463 1169 z "},"ĩ":{"ha":421,"x_min":-25,"x_max":450,"o":"m 332 0 l 74 0 l 86 207 l 74 713 l 336 713 l 321 233 l 332 0 m 450 983 l 350 829 l 329 821 q 229 847 299 826 q 158 865 172 865 q 118 847 135 865 q 75 788 101 828 l 53 788 l -25 864 l -25 886 l 75 1040 l 96 1049 q 196 1022 126 1043 q 267 1004 253 1004 q 307 1023 290 1004 q 350 1082 324 1042 l 372 1082 l 450 1006 l 450 983 z "},"Ī":{"ha":454,"x_min":46,"x_max":403,"o":"m 363 0 l 83 0 l 97 264 l 83 899 l 367 899 l 351 292 l 363 0 m 390 1036 l 63 1036 l 46 1054 l 58 1203 l 386 1203 l 403 1185 l 390 1036 z "},"ī":{"ha":421,"x_min":33,"x_max":390,"o":"m 332 0 l 74 0 l 86 207 l 74 713 l 336 713 l 321 233 l 332 0 m 378 850 l 50 850 l 33 868 l 46 1017 l 374 1017 l 390 999 l 378 850 z "},"Ĭ":{"ha":454,"x_min":-22,"x_max":472,"o":"m 363 0 l 83 0 l 97 264 l 83 899 l 367 899 l 351 292 l 363 0 m 472 1167 q 376 1039 440 1083 q 221 994 311 994 q 69 1039 132 994 q -22 1167 7 1083 l 33 1250 l 71 1250 q 231 1181 118 1181 q 379 1250 333 1181 l 417 1250 l 472 1167 z "},"ĭ":{"ha":421,"x_min":-33,"x_max":461,"o":"m 332 0 l 74 0 l 86 207 l 74 713 l 336 713 l 321 233 l 332 0 m 461 989 q 371 854 435 908 q 207 800 307 800 q 49 855 108 800 q -33 989 -10 910 l 22 1075 l 60 1075 q 123 1010 82 1033 q 215 988 164 988 q 308 1010 267 988 q 368 1075 349 1033 l 406 1075 l 461 989 z "},"Į":{"ha":454,"x_min":40,"x_max":367,"o":"m 210 0 q 174 -94 174 -56 q 222 -137 174 -137 q 317 -104 275 -137 l 331 -104 l 347 -206 q 185 -274 265 -274 q 79 -235 118 -274 q 40 -136 40 -196 q 83 0 40 -71 l 97 264 l 83 899 l 367 899 l 351 292 l 363 0 l 210 0 z "},"į":{"ha":421,"x_min":31,"x_max":338,"o":"m 338 -206 q 175 -274 256 -274 q 69 -235 108 -274 q 31 -136 31 -196 q 74 0 31 -71 l 86 207 l 74 713 l 336 713 l 321 233 l 332 0 l 200 0 q 164 -94 164 -56 q 213 -137 164 -137 q 307 -104 265 -137 l 321 -104 l 338 -206 z "},"İ":{"ha":454,"x_min":83,"x_max":367,"o":"m 231 1254 q 326 1219 292 1254 q 360 1122 360 1185 q 322 1017 360 1056 q 219 978 285 978 q 122 1012 156 978 q 89 1110 89 1046 q 127 1215 89 1176 q 231 1254 165 1254 m 363 0 l 83 0 l 97 264 l 83 899 l 367 899 l 351 292 l 363 0 z "},"ı":{"ha":421,"x_min":74,"x_max":336,"o":"m 332 0 l 74 0 l 86 207 l 74 713 l 336 713 l 321 233 l 332 0 z "},"Ĳ":{"ha":957,"x_min":83,"x_max":876,"o":"m 363 0 l 83 0 l 97 264 l 83 899 l 367 899 l 351 292 l 363 0 m 864 172 q 835 25 864 85 q 738 -78 806 -35 q 551 -156 671 -121 l 479 -12 l 479 10 q 578 82 550 44 q 607 181 607 119 l 607 268 l 597 703 l 479 699 l 464 717 l 475 899 l 876 899 l 861 296 l 864 172 z "},"ĳ":{"ha":901,"x_min":74,"x_max":817,"o":"m 332 0 l 74 0 l 86 207 l 74 713 l 336 713 l 321 233 l 332 0 m 807 138 q 781 18 807 67 q 697 -67 756 -31 q 533 -137 638 -104 l 463 -8 l 463 11 q 545 63 522 35 q 568 136 568 90 l 568 208 l 561 524 l 453 521 l 439 536 l 454 713 l 817 713 l 804 233 l 807 138 z "},"Ĵ":{"ha":503,"x_min":-8,"x_max":464,"o":"m -8 1107 q 204 1272 117 1193 l 251 1272 q 464 1107 339 1193 l 417 1001 l 392 1001 l 228 1085 l 64 1001 l 39 1001 l -8 1107 m 407 296 l 410 172 q 381 25 410 85 q 284 -78 351 -35 q 97 -156 217 -121 l 25 -12 l 25 10 q 124 82 96 44 q 153 181 153 119 l 153 268 l 143 703 l 25 699 l 10 717 l 21 899 l 422 899 l 407 296 z "},"ĵ":{"ha":481,"x_min":-43,"x_max":457,"o":"m -43 893 q 183 1101 53 974 l 231 1101 q 457 893 328 1004 l 392 793 l 367 793 q 207 901 261 860 q 47 793 153 860 l 22 793 l -43 893 m 383 233 l 386 138 q 360 18 386 67 q 276 -67 335 -31 q 113 -137 217 -104 l 42 -8 l 42 11 q 124 63 101 35 q 147 136 147 90 l 147 208 l 140 524 l 32 521 l 18 536 l 33 713 l 396 713 l 383 233 z "},"Ķ":{"ha":872,"x_min":83,"x_max":899,"o":"m 607 474 q 899 58 735 274 l 894 28 q 617 -17 749 -4 l 586 0 q 354 413 444 243 l 351 292 l 363 0 l 83 0 l 97 264 l 83 899 l 367 899 l 357 524 l 529 801 l 576 899 l 871 899 l 607 474 m 508 -35 q 565 -161 565 -90 q 522 -294 565 -231 q 385 -422 478 -357 l 313 -358 l 310 -342 q 376 -212 376 -283 q 338 -124 376 -162 l 338 -104 q 508 -35 422 -56 z "},"ķ":{"ha":772,"x_min":74,"x_max":785,"o":"m 553 375 q 785 54 657 215 l 781 26 q 524 -14 646 -4 l 494 1 q 324 313 397 174 l 321 233 l 332 0 l 74 0 l 86 207 l 74 713 l 336 713 l 326 426 l 451 631 l 490 713 l 761 713 l 553 375 m 438 -35 q 494 -161 494 -90 q 451 -294 494 -231 q 314 -422 407 -357 l 242 -358 l 239 -342 q 306 -212 306 -283 q 267 -124 306 -162 l 267 -104 q 438 -35 351 -56 z "},"ĸ":{"ha":772,"x_min":74,"x_max":785,"o":"m 553 375 q 785 54 657 215 l 781 26 q 524 -14 646 -4 l 494 1 q 324 313 397 174 l 321 233 l 332 0 l 74 0 l 86 207 l 74 713 l 336 713 l 326 426 l 451 631 l 490 713 l 761 713 l 553 375 z "},"Ĺ":{"ha":628,"x_min":76,"x_max":628,"o":"m 611 0 l 76 0 l 90 264 l 76 899 l 360 899 l 344 292 l 347 228 l 613 228 l 628 208 l 611 0 m 533 1107 l 525 1085 q 194 989 342 1026 l 171 994 l 129 1104 q 442 1275 293 1188 l 465 1269 l 533 1107 z "},"ĺ":{"ha":558,"x_min":67,"x_max":544,"o":"m 529 0 l 67 0 l 79 207 l 67 713 l 329 713 l 314 233 l 315 210 l 531 210 l 544 193 l 529 0 m 482 956 l 478 932 q 168 781 281 832 l 144 782 l 83 882 q 363 1106 225 988 l 386 1104 l 482 956 z "},"Ļ":{"ha":628,"x_min":76,"x_max":628,"o":"m 611 0 l 76 0 l 90 264 l 76 899 l 360 899 l 344 292 l 347 228 l 613 228 l 628 208 l 611 0 m 394 -35 q 451 -161 451 -90 q 408 -294 451 -231 q 271 -422 364 -357 l 199 -358 l 196 -342 q 263 -212 263 -283 q 224 -124 263 -162 l 224 -104 q 394 -35 308 -56 z "},"ļ":{"ha":558,"x_min":67,"x_max":544,"o":"m 529 0 l 67 0 l 79 207 l 67 713 l 329 713 l 314 233 l 315 210 l 531 210 l 544 193 l 529 0 m 335 -35 q 392 -161 392 -90 q 348 -294 392 -231 q 211 -422 304 -357 l 139 -358 l 136 -342 q 203 -212 203 -283 q 164 -124 203 -162 l 164 -104 q 335 -35 249 -56 z "},"Ľ":{"ha":724,"x_min":76,"x_max":693,"o":"m 628 208 l 611 0 l 76 0 l 90 264 l 76 899 l 360 899 l 344 292 l 347 228 l 613 228 l 628 208 m 632 497 l 518 479 l 500 493 l 486 824 l 679 835 l 693 819 l 632 497 z "},"ľ":{"ha":643,"x_min":67,"x_max":640,"o":"m 544 193 l 529 0 l 67 0 l 79 207 l 67 713 l 329 713 l 314 233 l 315 210 l 531 210 l 544 193 m 579 358 l 465 340 l 447 354 l 433 685 l 626 696 l 640 681 l 579 358 z "},"Ŀ":{"ha":699,"x_min":76,"x_max":686,"o":"m 628 208 l 611 0 l 76 0 l 90 264 l 76 899 l 360 899 l 344 292 l 347 228 l 613 228 l 628 208 m 557 696 q 652 661 618 696 q 686 564 686 626 q 649 458 686 497 q 546 419 611 419 q 449 453 482 419 q 415 551 415 488 q 453 657 415 618 q 557 696 492 696 z "},"ŀ":{"ha":642,"x_min":67,"x_max":643,"o":"m 544 193 l 529 0 l 67 0 l 79 207 l 67 713 l 329 713 l 314 233 l 315 210 l 531 210 l 544 193 m 514 606 q 609 571 575 606 q 643 474 643 536 q 606 368 643 407 q 503 329 568 329 q 406 363 439 329 q 372 461 372 397 q 410 567 372 528 q 514 606 449 606 z "},"Ł":{"ha":656,"x_min":-19,"x_max":656,"o":"m 639 0 l 104 0 l 118 264 l 118 279 l 53 246 l 29 258 l -19 418 l 114 485 l 104 899 l 388 899 l 381 619 l 474 667 l 497 654 l 547 496 l 375 408 l 372 292 l 375 228 l 640 228 l 656 208 l 639 0 z "},"ł":{"ha":586,"x_min":-12,"x_max":563,"o":"m 547 0 l 85 0 l 97 207 l 97 225 l 47 204 l 26 217 l -12 356 l 93 399 l 85 713 l 347 713 l 340 501 l 424 536 l 443 524 l 483 386 l 335 324 l 332 233 l 333 210 l 549 210 l 563 193 l 547 0 z "},"Ń":{"ha":986,"x_min":83,"x_max":903,"o":"m 899 0 l 596 0 l 343 481 l 326 481 l 325 325 l 336 0 l 83 0 l 97 264 l 83 899 l 386 899 l 639 418 l 656 418 l 647 889 l 903 904 l 888 293 l 899 0 m 718 1107 l 710 1085 q 379 989 526 1026 l 356 994 l 314 1104 q 626 1275 478 1188 l 650 1269 l 718 1107 z "},"ń":{"ha":853,"x_min":74,"x_max":781,"o":"m 776 0 l 496 0 l 313 328 l 299 328 l 297 264 l 307 0 l 74 0 l 86 208 l 74 713 l 354 713 l 538 385 l 553 385 l 544 703 l 781 717 l 767 239 l 776 0 m 651 956 l 647 932 q 338 781 450 832 l 314 782 l 253 882 q 532 1106 394 988 l 556 1104 l 651 956 z "},"Ņ":{"ha":986,"x_min":83,"x_max":903,"o":"m 899 0 l 596 0 l 343 481 l 326 481 l 325 325 l 336 0 l 83 0 l 97 264 l 83 899 l 386 899 l 639 418 l 656 418 l 647 889 l 903 904 l 888 293 l 899 0 m 565 -35 q 622 -161 622 -90 q 578 -294 622 -231 q 442 -422 535 -357 l 369 -358 l 367 -342 q 433 -212 433 -283 q 394 -124 433 -162 l 394 -104 q 565 -35 479 -56 z "},"ņ":{"ha":853,"x_min":74,"x_max":781,"o":"m 776 0 l 496 0 l 313 328 l 299 328 l 297 264 l 307 0 l 74 0 l 86 208 l 74 713 l 354 713 l 538 385 l 553 385 l 544 703 l 781 717 l 767 239 l 776 0 m 497 -35 q 554 -161 554 -90 q 510 -294 554 -231 q 374 -422 467 -357 l 301 -358 l 299 -342 q 365 -212 365 -283 q 326 -124 365 -162 l 326 -104 q 497 -35 411 -56 z "},"Ň":{"ha":986,"x_min":83,"x_max":903,"o":"m 899 0 l 596 0 l 343 481 l 326 481 l 325 325 l 336 0 l 83 0 l 97 264 l 83 899 l 386 899 l 639 418 l 656 418 l 647 889 l 903 904 l 888 293 l 899 0 m 729 1154 q 517 989 604 1068 l 469 989 q 257 1154 382 1068 l 304 1260 l 329 1260 l 493 1176 l 657 1260 l 682 1260 l 729 1154 z "},"ň":{"ha":853,"x_min":74,"x_max":781,"o":"m 776 0 l 496 0 l 313 328 l 299 328 l 297 264 l 307 0 l 74 0 l 86 208 l 74 713 l 354 713 l 538 385 l 553 385 l 544 703 l 781 717 l 767 239 l 776 0 m 675 996 q 449 788 579 915 l 401 788 q 175 996 304 885 l 240 1096 l 265 1096 q 425 988 371 1029 q 585 1096 479 1029 l 610 1096 l 675 996 z "},"Ŋ":{"ha":986,"x_min":83,"x_max":903,"o":"m 896 75 q 867 -72 896 -12 q 770 -175 838 -132 q 583 -253 703 -218 l 511 -110 l 511 -87 q 621 0 594 -49 l 343 481 l 326 481 l 325 325 l 336 0 l 83 0 l 97 264 l 83 899 l 386 899 l 639 446 l 656 446 l 647 889 l 903 904 l 888 293 l 896 75 z "},"ŋ":{"ha":853,"x_min":74,"x_max":781,"o":"m 774 61 q 751 -53 774 -7 q 676 -135 729 -100 q 531 -203 624 -171 l 449 -97 l 449 -78 q 525 -12 510 -46 l 313 328 l 297 328 l 297 264 l 307 0 l 74 0 l 86 208 l 74 713 l 354 713 l 536 417 l 551 417 l 544 703 l 781 717 l 767 239 l 774 61 z "},"Ō":{"ha":907,"x_min":24,"x_max":883,"o":"m 474 915 q 776 799 669 915 q 883 472 883 683 q 766 111 883 239 q 433 -17 649 -17 q 131 101 238 -17 q 24 433 24 218 q 141 790 24 664 q 474 915 258 915 m 449 693 q 367 674 394 693 q 327 608 339 656 q 315 471 315 561 q 328 296 315 356 q 370 213 340 236 q 458 189 400 189 q 540 208 513 189 q 580 274 568 226 q 592 413 592 322 q 579 586 592 526 q 537 669 567 646 q 449 693 507 693 m 649 1036 l 265 1036 l 249 1054 l 261 1203 l 644 1203 l 661 1185 l 649 1036 z "},"ō":{"ha":785,"x_min":25,"x_max":758,"o":"m 410 726 q 667 635 576 726 q 758 375 758 543 q 658 87 758 189 q 374 -15 557 -15 q 116 78 207 -15 q 25 342 25 172 q 126 626 25 525 q 410 726 226 726 m 386 522 q 328 512 347 522 q 302 471 310 501 q 294 376 294 440 q 303 247 294 289 q 332 190 311 206 q 397 175 353 175 q 456 185 438 175 q 482 226 475 196 q 489 319 489 256 q 481 450 489 408 q 452 507 474 492 q 386 522 431 522 m 589 850 l 206 850 l 189 868 l 201 1017 l 585 1017 l 601 999 l 589 850 z "},"Ŏ":{"ha":907,"x_min":24,"x_max":883,"o":"m 474 915 q 776 799 669 915 q 883 472 883 683 q 766 111 883 239 q 433 -17 649 -17 q 131 101 238 -17 q 24 433 24 218 q 141 790 24 664 q 474 915 258 915 m 449 693 q 367 674 394 693 q 327 608 339 656 q 315 471 315 561 q 328 296 315 356 q 370 213 340 236 q 458 189 400 189 q 540 208 513 189 q 580 274 568 226 q 592 413 592 322 q 579 586 592 526 q 537 669 567 646 q 449 693 507 693 m 701 1167 q 605 1039 669 1083 q 450 994 540 994 q 299 1039 361 994 q 207 1167 236 1083 l 263 1250 l 300 1250 q 460 1181 347 1181 q 608 1250 563 1181 l 646 1250 l 701 1167 z "},"ŏ":{"ha":785,"x_min":25,"x_max":758,"o":"m 410 726 q 667 635 576 726 q 758 375 758 543 q 658 87 758 189 q 374 -15 557 -15 q 116 78 207 -15 q 25 342 25 172 q 126 626 25 525 q 410 726 226 726 m 386 522 q 328 512 347 522 q 302 471 310 501 q 294 376 294 440 q 303 247 294 289 q 332 190 311 206 q 397 175 353 175 q 456 185 438 175 q 482 226 475 196 q 489 319 489 256 q 481 450 489 408 q 452 507 474 492 q 386 522 431 522 m 643 989 q 553 854 617 908 q 389 800 489 800 q 231 855 290 800 q 149 989 172 910 l 204 1075 l 242 1075 q 305 1010 264 1033 q 397 988 346 988 q 490 1010 449 988 q 550 1075 531 1033 l 588 1075 l 643 989 z "},"Ő":{"ha":907,"x_min":24,"x_max":883,"o":"m 474 915 q 776 799 669 915 q 883 472 883 683 q 766 111 883 239 q 433 -17 649 -17 q 131 101 238 -17 q 24 433 24 218 q 141 790 24 664 q 474 915 258 915 m 449 693 q 367 674 394 693 q 327 608 339 656 q 315 471 315 561 q 328 296 315 356 q 370 213 340 236 q 458 189 400 189 q 540 208 513 189 q 580 274 568 226 q 592 413 592 322 q 579 586 592 526 q 537 669 567 646 q 449 693 507 693 m 224 1051 q 361 1258 318 1188 l 381 1264 l 506 1183 l 510 1164 q 328 994 422 1076 l 306 988 l 224 1051 m 490 1099 q 596 1258 540 1172 l 614 1264 l 740 1183 l 744 1164 q 561 994 649 1071 l 540 988 l 458 1051 l 490 1099 z "},"ő":{"ha":785,"x_min":25,"x_max":758,"o":"m 410 726 q 667 635 576 726 q 758 375 758 543 q 658 87 758 189 q 374 -15 557 -15 q 116 78 207 -15 q 25 342 25 172 q 126 626 25 525 q 410 726 226 726 m 386 522 q 328 512 347 522 q 302 471 310 501 q 294 376 294 440 q 303 247 294 289 q 332 190 311 206 q 397 175 353 175 q 456 185 438 175 q 482 226 475 196 q 489 319 489 256 q 481 450 489 408 q 452 507 474 492 q 386 522 431 522 m 171 846 q 326 1111 253 978 l 344 1117 l 469 1029 l 474 1010 q 272 789 388 908 l 251 782 l 171 846 m 400 846 q 556 1111 482 978 l 574 1117 l 699 1029 l 703 1010 q 501 789 617 908 l 481 782 l 400 846 z "},"Œ":{"ha":1235,"x_min":24,"x_max":1226,"o":"m 483 915 q 644 906 557 915 q 764 899 749 899 l 1211 899 l 1226 879 l 1208 676 l 988 685 l 844 685 l 842 558 l 979 558 l 1124 563 l 1139 543 l 1122 340 l 961 344 l 835 344 l 835 292 l 838 214 l 971 214 l 1201 222 l 1217 203 l 1200 0 l 764 0 q 610 -7 729 1 q 447 -17 519 -17 q 134 101 244 -17 q 24 435 24 219 q 145 789 24 663 q 483 915 267 915 m 460 693 q 371 672 401 693 q 328 601 340 650 q 315 458 315 551 q 329 299 315 357 q 376 215 343 240 q 469 189 410 189 q 563 210 542 189 q 579 285 581 228 l 572 603 q 557 671 571 656 q 460 693 536 693 z "},"œ":{"ha":1060,"x_min":25,"x_max":1050,"o":"m 414 725 q 554 718 447 725 q 656 713 626 713 l 1036 713 l 1050 694 l 1033 507 l 846 515 l 732 515 l 729 454 l 842 454 l 961 458 l 975 440 l 960 253 l 825 257 l 722 257 l 722 235 l 725 197 l 832 197 l 1026 204 l 1040 188 l 1025 0 l 656 0 q 521 -6 617 3 q 382 -12 410 -12 q 118 80 211 -12 q 25 343 25 172 q 128 625 25 525 q 414 725 231 725 m 392 521 q 328 508 349 521 q 301 464 308 496 q 294 365 294 432 q 303 249 294 289 q 335 193 313 210 q 401 176 357 176 q 475 193 463 176 q 486 258 488 211 l 481 444 q 468 501 478 489 q 392 521 453 521 z "},"Ŕ":{"ha":876,"x_min":83,"x_max":875,"o":"m 675 354 q 875 65 775 199 l 871 35 q 592 -17 729 -8 l 565 6 q 446 268 476 196 l 353 268 l 363 0 l 83 0 l 97 264 l 83 899 l 510 900 q 743 828 661 900 q 825 622 825 757 q 785 474 825 543 q 675 354 746 404 m 532 594 q 503 677 532 650 q 411 707 475 704 l 361 703 l 356 471 l 457 465 q 514 514 496 483 q 532 594 532 544 m 665 1142 l 661 1118 q 351 967 464 1018 l 328 968 l 267 1068 q 546 1292 408 1174 l 569 1290 l 665 1142 z "},"ŕ":{"ha":774,"x_min":74,"x_max":767,"o":"m 606 276 q 767 60 706 135 l 763 32 q 511 -14 633 -6 l 476 13 q 392 197 418 139 l 322 197 l 332 0 l 74 0 l 86 207 l 74 713 l 454 713 q 654 655 583 713 q 725 489 725 597 q 606 276 725 365 m 325 383 l 401 378 q 441 411 429 392 q 453 463 453 431 q 432 517 453 500 q 361 536 411 533 l 331 533 l 325 383 m 596 956 l 592 932 q 282 781 394 832 l 258 782 l 197 882 q 476 1106 339 988 l 500 1104 l 596 956 z "},"Ŗ":{"ha":876,"x_min":83,"x_max":875,"o":"m 675 354 q 875 65 775 199 l 871 35 q 592 -17 729 -8 l 565 6 q 446 268 476 196 l 353 268 l 363 0 l 83 0 l 97 264 l 83 899 l 510 900 q 743 828 661 900 q 825 622 825 757 q 785 474 825 543 q 675 354 746 404 m 532 594 q 503 677 532 650 q 411 707 475 704 l 361 703 l 356 471 l 457 465 q 514 514 496 483 q 532 594 532 544 m 511 -35 q 568 -161 568 -90 q 524 -294 568 -231 q 388 -422 481 -357 l 315 -358 l 313 -342 q 379 -212 379 -283 q 340 -124 379 -162 l 340 -104 q 511 -35 425 -56 z "},"ŗ":{"ha":774,"x_min":74,"x_max":767,"o":"m 606 276 q 767 60 706 135 l 763 32 q 511 -14 633 -6 l 476 13 q 392 197 418 139 l 322 197 l 332 0 l 74 0 l 86 207 l 74 713 l 454 713 q 654 655 583 713 q 725 489 725 597 q 606 276 725 365 m 325 383 l 401 378 q 441 411 429 392 q 453 463 453 431 q 432 517 453 500 q 361 536 411 533 l 331 533 l 325 383 m 442 -35 q 499 -161 499 -90 q 455 -294 499 -231 q 318 -422 411 -357 l 246 -358 l 243 -342 q 310 -212 310 -283 q 271 -124 310 -162 l 271 -104 q 442 -35 356 -56 z "},"Ř":{"ha":876,"x_min":83,"x_max":875,"o":"m 675 354 q 875 65 775 199 l 871 35 q 592 -17 729 -8 l 565 6 q 446 268 476 196 l 353 268 l 363 0 l 83 0 l 97 264 l 83 899 l 510 900 q 743 828 661 900 q 825 622 825 757 q 785 474 825 543 q 675 354 746 404 m 532 594 q 503 677 532 650 q 411 707 475 704 l 361 703 l 356 471 l 457 465 q 514 514 496 483 q 532 594 532 544 m 689 1182 q 463 974 593 1101 l 415 974 q 189 1182 318 1071 l 254 1282 l 279 1282 q 439 1174 385 1215 q 599 1282 493 1215 l 624 1282 l 689 1182 z "},"ř":{"ha":774,"x_min":74,"x_max":767,"o":"m 606 276 q 767 60 706 135 l 763 32 q 511 -14 633 -6 l 476 13 q 392 197 418 139 l 322 197 l 332 0 l 74 0 l 86 207 l 74 713 l 454 713 q 654 655 583 713 q 725 489 725 597 q 606 276 725 365 m 325 383 l 401 378 q 441 411 429 392 q 453 463 453 431 q 432 517 453 500 q 361 536 411 533 l 331 533 l 325 383 m 619 996 q 393 788 524 915 l 346 788 q 119 996 249 885 l 185 1096 l 210 1096 q 369 988 315 1029 q 529 1096 424 1029 l 554 1096 l 619 996 z "},"Ś":{"ha":733,"x_min":25,"x_max":701,"o":"m 424 915 q 685 867 556 915 l 640 640 l 601 624 q 486 681 543 660 q 394 701 429 701 q 344 689 363 701 q 325 656 325 676 q 353 610 325 629 q 449 561 382 592 q 576 497 526 526 q 664 415 626 467 q 701 286 701 363 q 655 133 701 201 q 522 24 608 64 q 322 -17 436 -17 q 25 36 181 -17 l 65 278 l 93 294 q 230 217 157 246 q 351 189 303 189 q 425 235 425 189 q 395 284 425 264 q 299 333 365 304 q 173 397 222 367 q 88 478 124 426 q 51 607 51 531 q 99 765 51 694 q 231 875 146 835 q 424 915 315 915 m 608 1142 l 604 1118 q 294 967 407 1018 l 271 968 l 210 1068 q 489 1292 351 1174 l 513 1290 l 608 1142 z "},"ś":{"ha":651,"x_min":33,"x_max":606,"o":"m 374 726 q 593 689 486 726 l 556 475 l 519 465 q 419 517 471 497 q 338 536 367 536 q 308 518 308 536 q 328 489 308 500 q 396 460 349 478 q 501 415 458 438 q 574 348 543 392 q 606 236 606 304 q 573 113 606 169 q 468 19 540 56 q 285 -17 396 -17 q 33 22 160 -17 l 71 246 l 94 264 q 213 193 149 221 q 318 165 276 165 q 351 188 351 165 q 333 215 351 204 q 267 243 314 225 q 161 289 204 265 q 86 358 118 313 q 54 472 54 403 q 92 602 54 544 q 201 693 129 660 q 374 726 274 726 m 574 956 l 569 932 q 260 781 372 832 l 236 782 l 175 882 q 454 1106 317 988 l 478 1104 l 574 956 z "},"Ŝ":{"ha":733,"x_min":25,"x_max":701,"o":"m 132 1079 q 358 1288 228 1160 l 406 1288 q 632 1079 503 1190 l 567 979 l 542 979 q 382 1088 436 1046 q 222 979 328 1046 l 197 979 l 132 1079 m 424 915 q 685 867 556 915 l 640 640 l 601 624 q 486 681 543 660 q 394 701 429 701 q 344 689 363 701 q 325 656 325 676 q 353 610 325 629 q 449 561 382 592 q 576 497 526 526 q 664 415 626 467 q 701 286 701 363 q 655 133 701 201 q 522 24 608 64 q 322 -17 436 -17 q 25 36 181 -17 l 65 278 l 93 294 q 230 217 157 246 q 351 189 303 189 q 425 235 425 189 q 395 284 425 264 q 299 333 365 304 q 173 397 222 367 q 88 478 124 426 q 51 607 51 531 q 99 765 51 694 q 231 875 146 835 q 424 915 315 915 z "},"ŝ":{"ha":651,"x_min":33,"x_max":606,"o":"m 97 893 q 324 1101 193 974 l 371 1101 q 597 893 468 1004 l 532 793 l 507 793 q 347 901 401 860 q 188 793 293 860 l 163 793 l 97 893 m 374 726 q 593 689 486 726 l 556 475 l 519 465 q 419 517 471 497 q 338 536 367 536 q 308 518 308 536 q 328 489 308 500 q 396 460 349 478 q 501 415 458 438 q 574 348 543 392 q 606 236 606 304 q 573 113 606 169 q 468 19 540 56 q 285 -17 396 -17 q 33 22 160 -17 l 71 246 l 94 264 q 213 193 149 221 q 318 165 276 165 q 351 188 351 165 q 333 215 351 204 q 267 243 314 225 q 161 289 204 265 q 86 358 118 313 q 54 472 54 403 q 92 602 54 544 q 201 693 129 660 q 374 726 274 726 z "},"Ş":{"ha":733,"x_min":25,"x_max":701,"o":"m 701 286 q 666 151 701 213 q 564 47 631 89 q 407 -10 497 4 l 399 -58 l 446 -85 q 507 -172 507 -117 q 466 -256 507 -224 q 354 -289 425 -289 q 226 -256 286 -289 l 242 -151 l 253 -147 q 336 -186 299 -186 q 358 -167 358 -186 q 342 -146 358 -154 l 272 -108 l 290 -17 q 25 36 165 -11 l 65 278 l 93 294 q 230 217 157 246 q 351 189 303 189 q 425 235 425 189 q 395 284 425 264 q 299 333 365 304 q 173 397 222 367 q 88 478 124 426 q 51 607 51 531 q 99 765 51 694 q 231 875 146 835 q 424 915 315 915 q 685 867 556 915 l 640 640 l 601 624 q 486 681 543 660 q 394 701 429 701 q 344 689 363 701 q 325 656 325 676 q 353 610 325 629 q 449 561 382 592 q 576 497 526 526 q 664 415 626 467 q 701 286 701 363 z "},"ş":{"ha":651,"x_min":33,"x_max":606,"o":"m 606 236 q 542 72 606 143 q 349 -12 479 1 l 340 -58 l 388 -85 q 449 -172 449 -117 q 408 -256 449 -224 q 296 -289 367 -289 q 168 -256 228 -289 l 183 -151 l 194 -147 q 278 -186 240 -186 q 300 -167 300 -186 q 283 -146 300 -154 l 214 -108 l 232 -15 q 33 22 129 -8 l 71 246 l 94 264 q 213 193 149 221 q 318 165 276 165 q 351 188 351 165 q 333 215 351 204 q 267 243 314 225 q 161 289 204 265 q 86 358 118 313 q 54 472 54 403 q 92 602 54 544 q 201 693 129 660 q 374 726 274 726 q 593 689 486 726 l 556 475 l 519 465 q 419 517 471 497 q 338 536 367 536 q 308 518 308 536 q 328 489 308 500 q 396 460 349 478 q 501 415 458 438 q 574 348 543 392 q 606 236 606 304 z "},"Š":{"ha":733,"x_min":25,"x_max":701,"o":"m 424 915 q 685 867 556 915 l 640 640 l 601 624 q 486 681 543 660 q 394 701 429 701 q 344 689 363 701 q 325 656 325 676 q 353 610 325 629 q 449 561 382 592 q 576 497 526 526 q 664 415 626 467 q 701 286 701 363 q 655 133 701 201 q 522 24 608 64 q 322 -17 436 -17 q 25 36 181 -17 l 65 278 l 93 294 q 230 217 157 246 q 351 189 303 189 q 425 235 425 189 q 395 284 425 264 q 299 333 365 304 q 173 397 222 367 q 88 478 124 426 q 51 607 51 531 q 99 765 51 694 q 231 875 146 835 q 424 915 315 915 m 632 1182 q 406 974 536 1101 l 358 974 q 132 1182 261 1071 l 197 1282 l 222 1282 q 382 1174 328 1215 q 542 1282 436 1215 l 567 1282 l 632 1182 z "},"š":{"ha":651,"x_min":33,"x_max":606,"o":"m 374 726 q 593 689 486 726 l 556 475 l 519 465 q 419 517 471 497 q 338 536 367 536 q 308 518 308 536 q 328 489 308 500 q 396 460 349 478 q 501 415 458 438 q 574 348 543 392 q 606 236 606 304 q 573 113 606 169 q 468 19 540 56 q 285 -17 396 -17 q 33 22 160 -17 l 71 246 l 94 264 q 213 193 149 221 q 318 165 276 165 q 351 188 351 165 q 333 215 351 204 q 267 243 314 225 q 161 289 204 265 q 86 358 118 313 q 54 472 54 403 q 92 602 54 544 q 201 693 129 660 q 374 726 274 726 m 597 996 q 371 788 501 915 l 324 788 q 97 996 226 885 l 163 1096 l 188 1096 q 347 988 293 1029 q 507 1096 401 1029 l 532 1096 l 597 996 z "},"Ţ":{"ha":721,"x_min":11,"x_max":713,"o":"m 490 292 l 501 0 l 418 0 l 407 -58 l 454 -85 q 515 -172 515 -117 q 474 -256 515 -224 q 363 -289 433 -289 q 235 -256 294 -289 l 250 -151 l 261 -147 q 344 -186 307 -186 q 367 -167 367 -186 q 350 -146 367 -154 l 281 -108 l 301 0 l 224 0 l 238 264 l 231 685 l 213 685 l 28 676 l 11 696 l 26 899 l 697 899 l 713 879 l 697 676 l 514 685 l 497 685 l 490 292 z "},"ţ":{"ha":635,"x_min":10,"x_max":610,"o":"m 429 233 l 439 0 l 374 0 l 363 -60 l 410 -86 q 471 -174 471 -118 q 430 -258 471 -225 q 318 -290 389 -290 q 190 -257 250 -290 l 206 -153 l 217 -149 q 300 -187 263 -187 q 322 -168 322 -187 q 306 -147 322 -156 l 236 -110 l 258 0 l 182 0 l 194 207 l 189 515 l 183 515 l 25 507 l 10 525 l 24 713 l 596 713 l 610 694 l 596 507 l 439 515 l 435 515 l 429 233 z "},"Ť":{"ha":721,"x_min":11,"x_max":713,"o":"m 697 676 l 514 685 l 497 685 l 490 292 l 501 0 l 224 0 l 238 264 l 231 685 l 213 685 l 28 676 l 11 696 l 26 899 l 697 899 l 713 879 l 697 676 m 613 1182 q 386 974 517 1101 l 339 974 q 113 1182 242 1071 l 178 1282 l 203 1282 q 363 1174 308 1215 q 522 1282 417 1215 l 547 1282 l 613 1182 z "},"ť":{"ha":635,"x_min":17,"x_max":617,"o":"m 603 507 l 446 515 l 442 515 l 436 233 l 446 0 l 189 0 l 201 207 l 196 515 l 190 515 l 32 507 l 17 525 l 31 713 l 603 713 l 617 694 l 603 507 m 550 996 q 324 788 454 915 l 276 788 q 50 996 179 885 l 115 1096 l 140 1096 q 300 988 246 1029 q 460 1096 354 1029 l 485 1096 l 550 996 z "},"Ŧ":{"ha":721,"x_min":11,"x_max":713,"o":"m 493 465 l 618 465 l 635 447 l 625 325 l 490 325 l 490 292 l 501 0 l 224 0 l 238 264 l 236 325 l 124 325 l 107 343 l 117 465 l 235 465 l 231 685 l 213 685 l 28 676 l 11 696 l 26 899 l 697 899 l 713 879 l 697 676 l 514 685 l 497 685 l 493 465 z "},"ŧ":{"ha":635,"x_min":17,"x_max":617,"o":"m 439 354 l 539 354 l 556 336 l 546 214 l 438 214 l 446 0 l 189 0 l 201 207 l 201 214 l 100 214 l 83 232 l 93 354 l 199 354 l 196 515 l 190 515 l 32 507 l 17 525 l 31 713 l 603 713 l 617 694 l 603 507 l 446 515 l 442 515 l 439 354 z "},"Ũ":{"ha":907,"x_min":64,"x_max":843,"o":"m 832 300 q 729 65 831 147 q 439 -17 628 -17 q 160 65 257 -17 q 68 300 64 147 l 72 443 l 64 899 l 343 899 l 331 338 q 358 235 329 267 q 450 203 386 203 q 544 235 515 203 q 572 338 574 267 l 560 899 l 843 899 l 833 443 l 832 300 m 725 1174 l 613 1017 l 590 1008 q 471 1036 553 1013 q 378 1056 390 1056 q 336 1038 354 1056 q 282 975 318 1019 l 260 975 l 181 1051 l 181 1074 l 293 1231 l 315 1239 q 435 1211 353 1235 q 528 1192 515 1192 q 569 1210 551 1192 q 624 1272 588 1228 l 646 1272 l 725 1196 l 725 1174 z "},"ũ":{"ha":786,"x_min":58,"x_max":728,"o":"m 718 235 q 629 49 717 114 q 379 -15 542 -15 q 140 49 222 -15 q 63 235 58 114 l 65 350 l 58 713 l 315 713 l 304 269 q 322 206 303 225 q 390 188 342 188 q 459 206 439 188 q 478 269 479 225 l 467 713 l 728 713 l 719 351 l 718 235 m 664 988 l 551 831 l 529 822 q 410 850 492 826 q 317 869 329 869 q 275 851 293 869 q 221 789 257 833 l 199 789 l 119 865 l 119 888 l 232 1044 l 254 1053 q 374 1025 292 1049 q 467 1006 454 1006 q 508 1024 490 1006 q 563 1086 526 1042 l 585 1086 l 664 1010 l 664 988 z "},"Ū":{"ha":907,"x_min":64,"x_max":843,"o":"m 832 300 q 729 65 831 147 q 439 -17 628 -17 q 160 65 257 -17 q 68 300 64 147 l 72 443 l 64 899 l 343 899 l 331 338 q 358 235 329 267 q 450 203 386 203 q 544 235 515 203 q 572 338 574 267 l 560 899 l 843 899 l 833 443 l 832 300 m 649 1036 l 265 1036 l 249 1054 l 261 1203 l 644 1203 l 661 1185 l 649 1036 z "},"ū":{"ha":786,"x_min":58,"x_max":728,"o":"m 718 235 q 629 49 717 114 q 379 -15 542 -15 q 140 49 222 -15 q 63 235 58 114 l 65 350 l 58 713 l 315 713 l 304 269 q 322 206 303 225 q 390 188 342 188 q 459 206 439 188 q 478 269 479 225 l 467 713 l 728 713 l 719 351 l 718 235 m 588 850 l 204 850 l 188 868 l 200 1017 l 583 1017 l 600 999 l 588 850 z "},"Ŭ":{"ha":907,"x_min":64,"x_max":843,"o":"m 832 300 q 729 65 831 147 q 439 -17 628 -17 q 160 65 257 -17 q 68 300 64 147 l 72 443 l 64 899 l 343 899 l 331 338 q 358 235 329 267 q 450 203 386 203 q 544 235 515 203 q 572 338 574 267 l 560 899 l 843 899 l 833 443 l 832 300 m 703 1175 q 613 1040 676 1094 q 449 986 549 986 q 291 1041 350 986 q 208 1175 232 1096 l 264 1261 l 301 1261 q 365 1197 324 1219 q 457 1174 406 1174 q 549 1197 508 1174 q 610 1261 590 1219 l 647 1261 l 703 1175 z "},"ŭ":{"ha":786,"x_min":58,"x_max":728,"o":"m 718 235 q 629 49 717 114 q 379 -15 542 -15 q 140 49 222 -15 q 63 235 58 114 l 65 350 l 58 713 l 315 713 l 304 269 q 322 206 303 225 q 390 188 342 188 q 459 206 439 188 q 478 269 479 225 l 467 713 l 728 713 l 719 351 l 718 235 m 642 989 q 551 854 615 908 q 388 800 488 800 q 230 855 289 800 q 147 989 171 910 l 203 1075 l 240 1075 q 303 1010 263 1033 q 396 988 344 988 q 488 1010 447 988 q 549 1075 529 1033 l 586 1075 l 642 989 z "},"Ů":{"ha":907,"x_min":64,"x_max":843,"o":"m 832 300 q 729 65 831 147 q 439 -17 628 -17 q 160 65 257 -17 q 68 300 64 147 l 72 443 l 64 899 l 343 899 l 331 338 q 358 235 329 267 q 450 203 386 203 q 544 235 515 203 q 572 338 574 267 l 560 899 l 843 899 l 833 443 l 832 300 m 460 1293 q 607 1149 607 1293 q 567 1031 607 1072 q 449 990 526 990 q 301 1139 301 990 q 460 1293 301 1293 m 453 1185 q 416 1176 426 1185 q 406 1143 406 1167 q 417 1106 406 1117 q 456 1096 428 1096 q 492 1106 482 1096 q 503 1139 503 1115 q 492 1174 503 1164 q 453 1185 481 1185 z "},"ů":{"ha":786,"x_min":58,"x_max":728,"o":"m 718 235 q 629 49 717 114 q 379 -15 542 -15 q 140 49 222 -15 q 63 235 58 114 l 65 350 l 58 713 l 315 713 l 304 269 q 322 206 303 225 q 390 188 342 188 q 459 206 439 188 q 478 269 479 225 l 467 713 l 728 713 l 719 351 l 718 235 m 399 1107 q 546 963 546 1107 q 506 845 546 886 q 388 804 465 804 q 240 953 240 804 q 399 1107 240 1107 m 392 999 q 355 990 365 999 q 344 957 344 981 q 356 920 344 931 q 394 910 367 910 q 431 919 421 910 q 442 953 442 929 q 431 988 442 978 q 392 999 419 999 z "},"Ű":{"ha":907,"x_min":64,"x_max":843,"o":"m 832 300 q 729 65 831 147 q 439 -17 628 -17 q 160 65 257 -17 q 68 300 64 147 l 72 443 l 64 899 l 343 899 l 331 338 q 358 235 329 267 q 450 203 386 203 q 544 235 515 203 q 572 338 574 267 l 560 899 l 843 899 l 833 443 l 832 300 m 224 1051 q 361 1258 318 1188 l 381 1264 l 506 1183 l 510 1164 q 328 994 422 1076 l 306 988 l 224 1051 m 490 1099 q 596 1258 540 1172 l 614 1264 l 740 1183 l 744 1164 q 561 994 649 1071 l 540 988 l 458 1051 l 490 1099 z "},"ű":{"ha":786,"x_min":58,"x_max":728,"o":"m 718 235 q 629 49 717 114 q 379 -15 542 -15 q 140 49 222 -15 q 63 235 58 114 l 65 350 l 58 713 l 315 713 l 304 269 q 322 206 303 225 q 390 188 342 188 q 459 206 439 188 q 478 269 479 225 l 467 713 l 728 713 l 719 351 l 718 235 m 169 846 q 325 1111 251 978 l 343 1117 l 468 1029 l 472 1010 q 271 789 386 908 l 250 782 l 169 846 m 399 846 q 554 1111 481 978 l 572 1117 l 697 1029 l 701 1010 q 500 789 615 908 l 479 782 l 399 846 z "},"Ų":{"ha":907,"x_min":64,"x_max":843,"o":"m 833 443 l 832 300 q 729 65 832 149 l 668 -31 q 646 -92 646 -64 q 696 -137 646 -137 q 781 -110 736 -137 l 794 -110 l 811 -210 q 657 -274 728 -274 q 551 -235 590 -274 q 513 -139 513 -197 q 558 -12 513 -76 l 563 -6 q 439 -17 503 -17 q 160 65 257 -17 q 68 300 64 147 l 72 443 l 64 899 l 343 899 l 331 338 q 358 235 329 267 q 450 203 386 203 q 544 235 515 203 q 572 338 574 267 l 560 899 l 843 899 l 833 443 z "},"ų":{"ha":786,"x_min":58,"x_max":728,"o":"m 719 351 l 718 235 q 590 26 715 88 l 551 -33 q 529 -94 529 -67 q 579 -140 529 -140 q 664 -112 619 -140 l 678 -112 l 694 -212 q 540 -276 611 -276 q 435 -238 474 -276 q 396 -142 396 -200 q 442 -15 396 -76 l 444 -12 q 379 -15 403 -15 q 140 49 222 -15 q 63 235 58 114 l 65 350 l 58 713 l 315 713 l 304 269 q 322 206 303 225 q 390 188 342 188 q 459 206 439 188 q 478 269 479 225 l 467 713 l 728 713 l 719 351 z "},"Ŵ":{"ha":1269,"x_min":24,"x_max":1269,"o":"m 390 1107 q 603 1272 515 1193 l 650 1272 q 863 1107 738 1193 l 815 1001 l 790 1001 l 626 1085 l 463 1001 l 438 1001 l 390 1107 m 710 0 l 625 325 l 608 325 l 531 0 l 235 0 l 24 899 l 293 899 l 307 760 l 394 279 l 411 279 l 515 689 l 468 899 l 749 899 l 768 732 l 863 279 l 879 279 l 989 743 l 1014 899 l 1269 899 l 1004 0 l 710 0 z "},"ŵ":{"ha":1083,"x_min":29,"x_max":1081,"o":"m 271 893 q 497 1101 367 974 l 544 1101 q 771 893 642 1004 l 706 793 l 681 793 q 521 901 575 860 q 361 793 467 860 l 336 793 l 271 893 m 589 0 l 535 208 l 519 208 l 472 0 l 193 0 l 29 713 l 283 713 l 294 589 l 344 261 l 360 261 l 431 551 l 396 713 l 661 713 l 678 561 l 735 261 l 750 261 l 818 574 l 840 713 l 1081 713 l 868 0 l 589 0 z "},"Ŷ":{"ha":825,"x_min":-11,"x_max":853,"o":"m 176 1107 q 389 1272 301 1193 l 436 1272 q 649 1107 524 1193 l 601 1001 l 576 1001 l 413 1085 l 249 1001 l 224 1001 l 176 1107 m 542 0 l 264 0 l 278 236 l 276 279 l -11 899 l 281 899 l 303 824 l 404 553 l 421 553 l 538 814 l 569 899 l 853 899 l 533 289 l 531 236 l 542 0 z "},"ŷ":{"ha":729,"x_min":-4,"x_max":746,"o":"m 124 893 q 350 1101 219 974 l 397 1101 q 624 893 494 1004 l 558 793 l 533 793 q 374 901 428 860 q 214 793 319 860 l 189 793 l 124 893 m 483 0 l 226 0 l 239 182 l 238 206 l -4 713 l 265 713 l 285 647 l 357 463 l 371 463 l 456 638 l 483 713 l 746 713 l 474 213 l 472 182 l 483 0 z "},"Ÿ":{"ha":825,"x_min":-11,"x_max":853,"o":"m 275 999 q 190 1028 219 999 q 161 1114 161 1058 q 194 1206 161 1172 q 285 1239 228 1239 q 367 1209 338 1239 q 397 1125 397 1179 q 365 1033 397 1067 q 275 999 332 999 m 543 999 q 458 1028 488 999 q 429 1114 429 1058 q 463 1206 429 1172 q 553 1239 496 1239 q 635 1209 606 1239 q 665 1125 665 1179 q 633 1033 665 1067 q 543 999 600 999 m 542 0 l 264 0 l 278 236 l 276 279 l -11 899 l 281 899 l 303 824 l 404 553 l 421 553 l 538 814 l 569 899 l 853 899 l 533 289 l 531 236 l 542 0 z "},"Ź":{"ha":792,"x_min":33,"x_max":768,"o":"m 365 206 l 589 206 l 760 218 l 768 206 l 746 -7 l 499 0 l 179 0 l 39 -8 l 39 190 l 428 693 l 210 693 l 43 679 l 33 690 l 53 903 l 261 899 l 642 899 l 747 900 l 747 700 l 365 206 m 621 1107 l 613 1085 q 282 989 429 1026 l 258 994 l 217 1104 q 529 1275 381 1188 l 553 1269 l 621 1107 z "},"ź":{"ha":693,"x_min":33,"x_max":665,"o":"m 346 189 l 508 189 l 658 200 l 665 190 l 646 -7 l 424 0 l 167 0 l 42 -7 l 42 175 l 349 522 l 190 522 l 42 510 l 33 519 l 51 715 l 238 713 l 647 713 l 647 529 l 346 189 m 556 956 l 551 932 q 242 781 354 832 l 218 782 l 157 882 q 436 1106 299 988 l 460 1104 l 556 956 z "},"Ż":{"ha":792,"x_min":33,"x_max":768,"o":"m 401 1254 q 497 1219 463 1254 q 531 1122 531 1185 q 493 1017 531 1056 q 390 978 456 978 q 293 1012 326 978 q 260 1110 260 1046 q 298 1215 260 1176 q 401 1254 336 1254 m 365 206 l 589 206 l 760 218 l 768 206 l 746 -7 l 499 0 l 179 0 l 39 -8 l 39 190 l 428 693 l 210 693 l 43 679 l 33 690 l 53 903 l 261 899 l 642 899 l 747 900 l 747 700 l 365 206 z "},"ż":{"ha":693,"x_min":33,"x_max":665,"o":"m 335 1068 q 430 1033 396 1068 q 464 936 464 999 q 426 831 464 869 q 324 792 389 792 q 226 826 260 792 q 193 924 193 860 q 231 1029 193 990 q 335 1068 269 1068 m 346 189 l 508 189 l 658 200 l 665 190 l 646 -7 l 424 0 l 167 0 l 42 -7 l 42 175 l 349 522 l 190 522 l 42 510 l 33 519 l 51 715 l 238 713 l 647 713 l 647 529 l 346 189 z "},"Ž":{"ha":792,"x_min":33,"x_max":768,"o":"m 365 206 l 589 206 l 760 218 l 768 206 l 746 -7 l 499 0 l 179 0 l 39 -8 l 39 190 l 428 693 l 210 693 l 43 679 l 33 690 l 53 903 l 261 899 l 642 899 l 747 900 l 747 700 l 365 206 m 632 1154 q 419 989 507 1068 l 372 989 q 160 1154 285 1068 l 207 1260 l 232 1260 l 396 1176 l 560 1260 l 585 1260 l 632 1154 z "},"ž":{"ha":693,"x_min":33,"x_max":665,"o":"m 346 189 l 508 189 l 658 200 l 665 190 l 646 -7 l 424 0 l 167 0 l 42 -7 l 42 175 l 349 522 l 190 522 l 42 510 l 33 519 l 51 715 l 238 713 l 647 713 l 647 529 l 346 189 m 579 996 q 353 788 483 915 l 306 788 q 79 996 208 885 l 144 1096 l 169 1096 q 329 988 275 1029 q 489 1096 383 1029 l 514 1096 l 579 996 z "},"ƒ":{"ha":501,"x_min":-26,"x_max":622,"o":"m 499 869 q 622 857 558 869 l 585 675 l 567 664 q 450 694 492 694 q 385 640 394 694 l 372 551 l 499 551 l 504 538 l 490 403 l 351 403 l 331 258 l 313 89 q 248 -87 300 -17 q 85 -210 196 -157 l -26 -100 l -24 -81 q 46 -16 22 -54 q 79 83 69 22 l 97 232 l 114 403 l 22 403 l 17 415 l 32 551 l 131 551 l 136 596 q 248 799 153 728 q 499 869 343 869 z "},"Ơ":{"ha":918,"x_min":24,"x_max":967,"o":"m 850 1096 q 934 1056 901 1096 q 967 953 967 1015 q 921 828 967 881 q 804 758 875 775 q 883 467 883 644 q 831 208 883 317 q 678 42 778 100 q 438 -17 578 -17 q 131 101 239 -17 q 24 432 24 218 q 77 692 24 583 q 226 858 131 801 q 447 915 322 915 q 615 890 515 915 q 693 876 674 876 q 757 939 757 876 q 717 1025 757 989 l 721 1044 q 850 1096 792 1096 m 446 693 q 365 673 392 693 q 326 603 338 653 q 315 456 315 553 q 328 292 315 349 q 373 213 342 236 q 463 189 404 189 q 542 208 515 189 q 581 278 569 228 q 592 428 592 329 q 579 591 592 535 q 535 670 567 647 q 446 693 504 693 z "},"ơ":{"ha":794,"x_min":25,"x_max":835,"o":"m 611 826 q 731 874 679 874 q 806 840 776 874 q 835 756 835 807 q 797 651 835 696 q 697 590 758 607 q 758 371 758 503 q 658 88 758 190 q 378 -15 557 -15 q 117 78 208 -15 q 25 340 25 171 q 71 548 25 461 q 198 681 117 635 q 385 726 279 726 q 526 707 451 726 q 592 697 572 697 q 640 743 640 697 q 607 808 640 783 l 611 826 m 401 175 q 458 185 440 175 q 483 228 476 196 q 489 335 489 261 q 481 454 489 415 q 451 508 472 493 q 385 522 429 522 q 326 510 344 522 q 301 466 308 499 q 294 363 294 433 q 303 243 294 282 q 333 190 311 204 q 401 175 356 175 z "},"Ư":{"ha":921,"x_min":64,"x_max":981,"o":"m 981 990 q 944 883 981 932 q 842 803 907 833 l 833 443 l 832 300 q 729 65 831 147 q 439 -17 628 -17 q 160 65 257 -17 q 68 300 64 147 l 72 443 l 64 899 l 343 899 l 331 338 q 358 235 329 267 q 450 203 386 203 q 544 235 515 203 q 572 338 574 267 l 560 899 l 692 899 q 753 914 735 899 q 771 965 771 929 q 731 1047 771 1014 l 735 1067 q 865 1118 807 1118 q 948 1082 915 1118 q 981 990 981 1046 z "},"ư":{"ha":800,"x_min":51,"x_max":847,"o":"m 847 788 q 813 694 847 738 q 719 624 778 650 l 713 351 l 711 235 q 622 49 710 114 q 372 -15 535 -15 q 133 49 215 -15 q 56 235 51 114 l 58 350 l 51 713 l 308 713 l 297 269 q 315 206 296 225 q 383 188 335 188 q 452 206 432 188 q 471 269 472 225 l 460 713 l 589 713 q 638 724 624 713 q 653 764 653 736 q 619 828 653 806 l 624 846 q 744 893 692 893 q 819 863 790 893 q 847 788 847 833 z "},"Ǎ":{"ha":871,"x_min":3,"x_max":857,"o":"m 575 0 l 550 149 l 549 153 l 413 156 l 299 150 l 275 0 l 3 0 l 275 899 l 611 899 l 857 0 l 575 0 m 446 650 l 429 650 l 351 356 l 429 354 l 507 356 l 446 650 m 674 1154 q 461 989 549 1068 l 414 989 q 201 1154 326 1068 l 249 1260 l 274 1260 l 438 1176 l 601 1260 l 626 1260 l 674 1154 z "},"ǎ":{"ha":763,"x_min":10,"x_max":742,"o":"m 465 99 l 360 101 l 276 97 l 261 0 l 10 0 l 231 713 l 542 713 l 742 0 l 481 0 l 465 99 m 429 286 l 389 485 l 374 485 l 321 286 l 375 285 l 429 286 m 642 996 q 415 788 546 915 l 368 788 q 142 996 271 885 l 207 1096 l 232 1096 q 392 988 338 1029 q 551 1096 446 1029 l 576 1096 l 642 996 z "},"Ǐ":{"ha":454,"x_min":-11,"x_max":461,"o":"m 363 0 l 83 0 l 97 264 l 83 899 l 367 899 l 351 292 l 363 0 m 461 1154 q 249 989 336 1068 l 201 989 q -11 1154 114 1068 l 36 1260 l 61 1260 l 225 1176 l 389 1260 l 414 1260 l 461 1154 z "},"ǐ":{"ha":421,"x_min":-37,"x_max":463,"o":"m 332 0 l 74 0 l 86 207 l 74 713 l 336 713 l 321 233 l 332 0 m 463 996 q 236 788 367 915 l 189 788 q -37 996 92 885 l 28 1096 l 53 1096 q 213 988 158 1029 q 372 1096 267 1029 l 397 1096 l 463 996 z "},"Ǒ":{"ha":907,"x_min":24,"x_max":883,"o":"m 474 915 q 776 799 669 915 q 883 472 883 683 q 766 111 883 239 q 433 -17 649 -17 q 131 101 238 -17 q 24 433 24 218 q 141 790 24 664 q 474 915 258 915 m 449 693 q 367 674 394 693 q 327 608 339 656 q 315 471 315 561 q 328 296 315 356 q 370 213 340 236 q 458 189 400 189 q 540 208 513 189 q 580 274 568 226 q 592 413 592 322 q 579 586 592 526 q 537 669 567 646 q 449 693 507 693 m 690 1154 q 478 989 565 1068 l 431 989 q 218 1154 343 1068 l 265 1260 l 290 1260 l 454 1176 l 618 1260 l 643 1260 l 690 1154 z "},"ǒ":{"ha":785,"x_min":25,"x_max":758,"o":"m 410 726 q 667 635 576 726 q 758 375 758 543 q 658 87 758 189 q 374 -15 557 -15 q 116 78 207 -15 q 25 342 25 172 q 126 626 25 525 q 410 726 226 726 m 386 522 q 328 512 347 522 q 302 471 310 501 q 294 376 294 440 q 303 247 294 289 q 332 190 311 206 q 397 175 353 175 q 456 185 438 175 q 482 226 475 196 q 489 319 489 256 q 481 450 489 408 q 452 507 474 492 q 386 522 431 522 m 644 996 q 418 788 549 915 l 371 788 q 144 996 274 885 l 210 1096 l 235 1096 q 394 988 340 1029 q 554 1096 449 1029 l 579 1096 l 644 996 z "},"Ǔ":{"ha":907,"x_min":64,"x_max":843,"o":"m 832 300 q 729 65 831 147 q 439 -17 628 -17 q 160 65 257 -17 q 68 300 64 147 l 72 443 l 64 899 l 343 899 l 331 338 q 358 235 329 267 q 450 203 386 203 q 544 235 515 203 q 572 338 574 267 l 560 899 l 843 899 l 833 443 l 832 300 m 704 1182 q 478 974 608 1101 l 431 974 q 204 1182 333 1071 l 269 1282 l 294 1282 q 454 1174 400 1215 q 614 1282 508 1215 l 639 1282 l 704 1182 z "},"ǔ":{"ha":786,"x_min":58,"x_max":728,"o":"m 718 235 q 629 49 717 114 q 379 -15 542 -15 q 140 49 222 -15 q 63 235 58 114 l 65 350 l 58 713 l 315 713 l 304 269 q 322 206 303 225 q 390 188 342 188 q 459 206 439 188 q 478 269 479 225 l 467 713 l 728 713 l 719 351 l 718 235 m 643 996 q 417 788 547 915 l 369 788 q 143 996 272 885 l 208 1096 l 233 1096 q 393 988 339 1029 q 553 1096 447 1029 l 578 1096 l 643 996 z "},"Ǖ":{"ha":907,"x_min":64,"x_max":843,"o":"m 832 300 q 729 65 831 147 q 439 -17 628 -17 q 160 65 257 -17 q 68 300 64 147 l 72 443 l 64 899 l 343 899 l 331 338 q 358 235 329 267 q 450 203 386 203 q 544 235 515 203 q 572 338 574 267 l 560 899 l 843 899 l 833 443 l 832 300 m 668 1276 l 247 1276 l 229 1294 l 243 1443 l 664 1443 l 682 1425 l 668 1276 m 326 1211 q 408 1181 379 1211 q 438 1097 438 1151 q 405 1005 438 1039 q 317 971 372 971 q 232 1001 261 971 q 203 1086 203 1031 q 236 1177 203 1143 q 326 1211 269 1211 m 594 1211 q 676 1181 647 1211 q 706 1097 706 1151 q 673 1005 706 1039 q 585 971 640 971 q 500 1001 529 971 q 471 1086 471 1031 q 504 1177 471 1143 q 594 1211 538 1211 z "},"ǖ":{"ha":786,"x_min":58,"x_max":728,"o":"m 718 235 q 629 49 717 114 q 379 -15 542 -15 q 140 49 222 -15 q 63 235 58 114 l 65 350 l 58 713 l 315 713 l 304 269 q 322 206 303 225 q 390 188 342 188 q 459 206 439 188 q 478 269 479 225 l 467 713 l 728 713 l 719 351 l 718 235 m 607 1090 l 186 1090 l 168 1108 l 182 1257 l 603 1257 l 621 1239 l 607 1090 m 265 1025 q 347 995 318 1025 q 376 911 376 965 q 344 819 376 853 q 256 785 311 785 q 171 815 200 785 q 142 900 142 844 q 175 991 142 957 q 265 1025 208 1025 m 533 1025 q 615 995 586 1025 q 644 911 644 965 q 612 819 644 853 q 524 785 579 785 q 439 815 468 785 q 410 900 410 844 q 443 991 410 957 q 533 1025 476 1025 z "},"Ǘ":{"ha":907,"x_min":64,"x_max":843,"o":"m 832 300 q 729 65 831 147 q 439 -17 628 -17 q 160 65 257 -17 q 68 300 64 147 l 72 443 l 64 899 l 343 899 l 331 338 q 358 235 329 267 q 450 203 386 203 q 544 235 515 203 q 572 338 574 267 l 560 899 l 843 899 l 833 443 l 832 300 m 646 1322 l 633 1301 q 292 1265 419 1275 l 269 1275 l 247 1390 q 585 1504 428 1444 l 607 1494 l 646 1322 m 326 1211 q 408 1181 379 1211 q 438 1097 438 1151 q 405 1005 438 1039 q 317 971 372 971 q 232 1001 261 971 q 203 1086 203 1031 q 236 1177 203 1143 q 326 1211 269 1211 m 594 1211 q 676 1181 647 1211 q 706 1097 706 1151 q 673 1005 706 1039 q 585 971 640 971 q 500 1001 529 971 q 471 1086 471 1031 q 504 1177 471 1143 q 594 1211 538 1211 z "},"ǘ":{"ha":786,"x_min":58,"x_max":728,"o":"m 718 235 q 629 49 717 114 q 379 -15 542 -15 q 140 49 222 -15 q 63 235 58 114 l 65 350 l 58 713 l 315 713 l 304 269 q 322 206 303 225 q 390 188 342 188 q 459 206 439 188 q 478 269 479 225 l 467 713 l 728 713 l 719 351 l 718 235 m 585 1136 l 572 1115 q 231 1079 358 1089 l 208 1089 l 186 1204 q 524 1318 367 1258 l 546 1308 l 585 1136 m 265 1025 q 347 995 318 1025 q 376 911 376 965 q 344 819 376 853 q 256 785 311 785 q 171 815 200 785 q 142 900 142 844 q 175 991 142 957 q 265 1025 208 1025 m 533 1025 q 615 995 586 1025 q 644 911 644 965 q 612 819 644 853 q 524 785 579 785 q 439 815 468 785 q 410 900 410 844 q 443 991 410 957 q 533 1025 476 1025 z "},"Ǚ":{"ha":907,"x_min":64,"x_max":843,"o":"m 832 300 q 729 65 831 147 q 439 -17 628 -17 q 160 65 257 -17 q 68 300 64 147 l 72 443 l 64 899 l 343 899 l 331 338 q 358 235 329 267 q 450 203 386 203 q 544 235 515 203 q 572 338 574 267 l 560 899 l 843 899 l 833 443 l 832 300 m 689 1381 q 476 1215 564 1294 l 429 1215 q 217 1381 342 1294 l 264 1486 l 289 1486 l 453 1403 l 617 1486 l 642 1486 l 689 1381 m 326 1211 q 408 1181 379 1211 q 438 1097 438 1151 q 405 1005 438 1039 q 317 971 372 971 q 232 1001 261 971 q 203 1086 203 1031 q 236 1177 203 1143 q 326 1211 269 1211 m 594 1211 q 676 1181 647 1211 q 706 1097 706 1151 q 673 1005 706 1039 q 585 971 640 971 q 500 1001 529 971 q 471 1086 471 1031 q 504 1177 471 1143 q 594 1211 538 1211 z "},"ǚ":{"ha":786,"x_min":58,"x_max":728,"o":"m 718 235 q 629 49 717 114 q 379 -15 542 -15 q 140 49 222 -15 q 63 235 58 114 l 65 350 l 58 713 l 315 713 l 304 269 q 322 206 303 225 q 390 188 342 188 q 459 206 439 188 q 478 269 479 225 l 467 713 l 728 713 l 719 351 l 718 235 m 628 1194 q 415 1029 503 1108 l 368 1029 q 156 1194 281 1108 l 203 1300 l 228 1300 l 392 1217 l 556 1300 l 581 1300 l 628 1194 m 265 1025 q 347 995 318 1025 q 376 911 376 965 q 344 819 376 853 q 256 785 311 785 q 171 815 200 785 q 142 900 142 844 q 175 991 142 957 q 265 1025 208 1025 m 533 1025 q 615 995 586 1025 q 644 911 644 965 q 612 819 644 853 q 524 785 579 785 q 439 815 468 785 q 410 900 410 844 q 443 991 410 957 q 533 1025 476 1025 z "},"Ǜ":{"ha":907,"x_min":64,"x_max":843,"o":"m 832 300 q 729 65 831 147 q 439 -17 628 -17 q 160 65 257 -17 q 68 300 64 147 l 72 443 l 64 899 l 343 899 l 331 338 q 358 235 329 267 q 450 203 386 203 q 544 235 515 203 q 572 338 574 267 l 560 899 l 843 899 l 833 443 l 832 300 m 308 1504 q 646 1390 465 1444 l 624 1275 l 601 1265 q 260 1301 474 1275 l 247 1322 l 286 1494 l 308 1504 m 326 1211 q 408 1181 379 1211 q 438 1097 438 1151 q 405 1005 438 1039 q 317 971 372 971 q 232 1001 261 971 q 203 1086 203 1031 q 236 1177 203 1143 q 326 1211 269 1211 m 594 1211 q 676 1181 647 1211 q 706 1097 706 1151 q 673 1005 706 1039 q 585 971 640 971 q 500 1001 529 971 q 471 1086 471 1031 q 504 1177 471 1143 q 594 1211 538 1211 z "},"ǜ":{"ha":786,"x_min":58,"x_max":728,"o":"m 718 235 q 629 49 717 114 q 379 -15 542 -15 q 140 49 222 -15 q 63 235 58 114 l 65 350 l 58 713 l 315 713 l 304 269 q 322 206 303 225 q 390 188 342 188 q 459 206 439 188 q 478 269 479 225 l 467 713 l 728 713 l 719 351 l 718 235 m 247 1318 q 585 1204 404 1258 l 563 1089 l 540 1079 q 199 1115 413 1089 l 186 1136 l 225 1308 l 247 1318 m 265 1025 q 347 995 318 1025 q 376 911 376 965 q 344 819 376 853 q 256 785 311 785 q 171 815 200 785 q 142 900 142 844 q 175 991 142 957 q 265 1025 208 1025 m 533 1025 q 615 995 586 1025 q 644 911 644 965 q 612 819 644 853 q 524 785 579 785 q 439 815 468 785 q 410 900 410 844 q 443 991 410 957 q 533 1025 476 1025 z "},"Ǫ":{"ha":907,"x_min":24,"x_max":883,"o":"m 588 -31 q 565 -92 565 -64 q 615 -137 565 -137 q 700 -110 656 -137 l 714 -110 l 731 -210 q 576 -274 647 -274 q 471 -235 510 -274 q 432 -139 432 -197 q 476 -15 432 -76 q 433 -17 463 -17 q 131 101 238 -17 q 24 433 24 218 q 141 790 24 664 q 474 915 258 915 q 776 799 669 915 q 883 472 883 683 q 815 177 883 294 q 617 13 746 60 l 588 -31 m 315 471 q 328 296 315 356 q 370 213 340 236 q 458 189 400 189 q 540 208 513 189 q 580 274 568 226 q 592 413 592 322 q 579 586 592 526 q 537 669 567 646 q 449 693 507 693 q 367 674 394 693 q 327 608 339 656 q 315 471 315 561 z "},"ǫ":{"ha":785,"x_min":25,"x_max":758,"o":"m 476 -31 q 454 -92 454 -64 q 504 -137 454 -137 q 589 -110 544 -137 l 603 -110 l 619 -210 q 465 -274 536 -274 q 360 -235 399 -274 q 321 -139 321 -197 q 365 -15 321 -76 q 114 81 203 -12 q 25 342 25 174 q 126 626 25 525 q 410 726 226 726 q 667 635 576 726 q 758 375 758 543 q 690 127 758 224 q 496 -1 622 31 l 476 -31 m 294 376 q 303 247 294 289 q 332 190 311 206 q 397 175 353 175 q 456 185 438 175 q 482 226 475 196 q 489 319 489 256 q 481 450 489 408 q 452 507 474 492 q 386 522 431 522 q 328 512 347 522 q 302 471 310 501 q 294 376 294 440 z "},"Ǻ":{"ha":871,"x_min":3,"x_max":857,"o":"m 278 1235 q 611 1361 440 1290 l 633 1353 l 678 1182 l 667 1161 q 326 1113 486 1131 l 303 1121 l 278 1235 m 575 0 l 550 143 l 549 147 l 413 150 l 299 144 l 275 0 l 3 0 l 297 890 q 292 942 292 911 q 450 1096 292 1096 q 597 951 597 1096 q 589 892 597 919 l 857 0 l 575 0 m 443 988 q 406 978 417 988 q 396 946 396 969 q 407 909 396 919 q 446 899 418 899 q 483 908 472 899 q 493 942 493 918 q 482 977 493 967 q 443 988 471 988 m 446 625 l 429 625 l 351 343 l 429 342 l 507 343 l 446 625 z "},"ǻ":{"ha":763,"x_min":10,"x_max":742,"o":"m 226 1244 q 560 1371 389 1300 l 582 1363 l 626 1192 l 615 1171 q 275 1122 435 1140 l 251 1131 l 226 1244 m 240 951 q 399 1106 240 1106 q 546 961 546 1106 q 506 844 546 885 q 388 803 465 803 q 240 951 240 803 m 442 951 q 431 987 442 976 q 392 997 419 997 q 355 988 365 997 q 344 956 344 979 q 356 919 344 929 q 394 908 367 908 q 431 918 421 908 q 442 951 442 928 m 465 99 l 360 101 l 276 97 l 261 0 l 10 0 l 231 713 l 542 713 l 742 0 l 481 0 l 465 99 m 429 286 l 389 485 l 374 485 l 321 286 l 375 285 l 429 286 z "},"Ǽ":{"ha":1167,"x_min":-28,"x_max":1167,"o":"m 1150 0 l 544 0 l 538 149 l 531 240 l 293 168 l 292 165 l 244 0 l -28 0 l 356 899 l 1078 899 l 1093 879 l 1075 676 l 868 685 l 763 685 l 774 526 l 1008 601 l 1028 586 l 1053 394 l 789 318 l 796 214 l 922 214 l 1151 222 l 1167 203 l 1150 0 m 496 650 l 479 650 l 386 408 l 513 447 l 496 650 m 929 1107 l 921 1085 q 590 989 738 1026 l 567 994 l 525 1104 q 838 1275 689 1188 l 861 1269 l 929 1107 z "},"ǽ":{"ha":1006,"x_min":-15,"x_max":1004,"o":"m 989 0 l 475 0 l 469 122 l 464 183 l 247 119 l 214 0 l -15 0 l 315 711 l 926 711 l 940 693 l 925 524 l 746 532 l 657 532 l 667 419 l 869 481 l 885 467 l 906 307 l 681 246 l 686 179 l 794 179 l 990 186 l 1004 169 l 989 0 m 433 503 l 418 503 l 338 322 l 447 356 l 433 503 m 817 953 l 813 929 q 503 778 615 829 l 479 779 l 418 879 q 697 1103 560 985 l 721 1101 l 817 953 z "},"Ǿ":{"ha":907,"x_min":24,"x_max":883,"o":"m 757 819 q 883 472 883 701 q 766 111 883 239 q 433 -17 649 -17 q 349 -10 393 -17 l 260 -193 l 88 -128 l 76 -104 l 163 71 q 24 433 24 189 q 141 790 24 664 q 474 915 258 915 q 574 907 526 915 l 660 1082 l 826 1018 l 843 992 l 757 819 m 458 189 q 540 208 513 189 q 580 274 568 226 q 592 413 592 322 q 579 586 592 526 q 537 669 567 646 q 449 693 507 693 q 367 674 394 693 q 327 608 339 656 q 315 471 315 561 q 328 296 315 356 q 370 213 340 236 q 458 189 400 189 m 679 1111 l 671 1089 q 340 993 488 1031 l 317 999 l 275 1108 q 588 1279 439 1192 l 611 1274 l 679 1111 z "},"ǿ":{"ha":785,"x_min":25,"x_max":760,"o":"m 679 622 q 758 375 758 531 q 658 87 758 189 q 374 -15 557 -15 q 294 -10 328 -15 l 192 -178 l 39 -100 l 33 -78 l 124 71 q 25 342 25 165 q 126 626 25 525 q 410 726 226 726 q 517 715 465 726 l 601 853 l 747 776 l 760 753 l 679 622 m 397 175 q 456 185 438 175 q 482 226 475 196 q 489 319 489 256 q 481 450 489 408 q 452 507 474 492 q 386 522 431 522 q 328 512 347 522 q 302 471 310 501 q 294 376 294 440 q 303 247 294 289 q 332 190 311 206 q 397 175 353 175 m 610 958 l 606 935 q 296 783 408 835 l 272 785 l 211 885 q 490 1108 353 990 l 514 1107 l 610 958 z "},"Ș":{"ha":733,"x_min":25,"x_max":701,"o":"m 424 915 q 685 867 556 915 l 640 640 l 601 624 q 486 681 543 660 q 394 701 429 701 q 344 689 363 701 q 325 656 325 676 q 353 610 325 629 q 449 561 382 592 q 576 497 526 526 q 664 415 626 467 q 701 286 701 363 q 655 133 701 201 q 522 24 608 64 q 322 -17 436 -17 q 25 36 181 -17 l 65 278 l 93 294 q 230 217 157 246 q 351 189 303 189 q 425 235 425 189 q 395 284 425 264 q 299 333 365 304 q 173 397 222 367 q 88 478 124 426 q 51 607 51 531 q 99 765 51 694 q 231 875 146 835 q 424 915 315 915 m 426 -35 q 483 -161 483 -90 q 440 -294 483 -231 q 303 -422 396 -357 l 231 -358 l 228 -342 q 294 -212 294 -283 q 256 -124 294 -162 l 256 -104 q 426 -35 340 -56 z "},"ș":{"ha":651,"x_min":33,"x_max":606,"o":"m 374 726 q 593 689 486 726 l 556 475 l 519 465 q 419 517 471 497 q 338 536 367 536 q 308 518 308 536 q 328 489 308 500 q 396 460 349 478 q 501 415 458 438 q 574 348 543 392 q 606 236 606 304 q 573 113 606 169 q 468 19 540 56 q 285 -17 396 -17 q 33 22 160 -17 l 71 246 l 94 264 q 213 193 149 221 q 318 165 276 165 q 351 188 351 165 q 333 215 351 204 q 267 243 314 225 q 161 289 204 265 q 86 358 118 313 q 54 472 54 403 q 92 602 54 544 q 201 693 129 660 q 374 726 274 726 m 368 -35 q 425 -161 425 -90 q 381 -294 425 -231 q 244 -422 338 -357 l 172 -358 l 169 -342 q 236 -212 236 -283 q 197 -124 236 -162 l 197 -104 q 368 -35 282 -56 z "},"Ț":{"ha":721,"x_min":11,"x_max":713,"o":"m 697 676 l 514 685 l 497 685 l 490 292 l 501 0 l 224 0 l 238 264 l 231 685 l 213 685 l 28 676 l 11 696 l 26 899 l 697 899 l 713 879 l 697 676 m 435 -35 q 492 -161 492 -90 q 448 -294 492 -231 q 311 -422 404 -357 l 239 -358 l 236 -342 q 303 -212 303 -283 q 264 -124 303 -162 l 264 -104 q 435 -35 349 -56 z "},"ț":{"ha":635,"x_min":17,"x_max":617,"o":"m 603 507 l 446 515 l 442 515 l 436 233 l 446 0 l 189 0 l 201 207 l 196 515 l 190 515 l 32 507 l 17 525 l 31 713 l 603 713 l 617 694 l 603 507 m 390 -35 q 447 -161 447 -90 q 403 -294 447 -231 q 267 -422 360 -357 l 194 -358 l 192 -342 q 258 -212 258 -283 q 219 -124 258 -162 l 219 -104 q 390 -35 304 -56 z "},"ȷ":{"ha":481,"x_min":18,"x_max":396,"o":"m 386 138 q 360 18 386 67 q 276 -67 335 -31 q 113 -137 217 -104 l 42 -8 l 42 11 q 124 63 101 35 q 147 136 147 90 l 147 208 l 140 524 l 32 521 l 18 536 l 33 713 l 396 713 l 383 233 l 386 138 z "},"ˆ":{"ha":539,"x_min":18,"x_max":518,"o":"m 18 836 q 244 1044 114 917 l 292 1044 q 518 836 389 947 l 453 736 l 428 736 q 268 844 322 803 q 108 736 214 803 l 83 736 l 18 836 z "},"ˇ":{"ha":539,"x_min":18,"x_max":518,"o":"m 518 939 q 292 731 422 858 l 244 731 q 18 939 147 828 l 83 1039 l 108 1039 q 268 931 214 972 q 428 1039 322 972 l 453 1039 l 518 939 z "},"ˉ":{"ha":539,"x_min":64,"x_max":476,"o":"m 464 793 l 81 793 l 64 811 l 76 960 l 460 960 l 476 942 l 464 793 z "},"˘":{"ha":539,"x_min":22,"x_max":517,"o":"m 517 932 q 426 797 490 851 q 263 743 363 743 q 105 798 164 743 q 22 932 46 853 l 78 1018 l 115 1018 q 178 953 138 976 q 271 931 219 931 q 363 953 322 931 q 424 1018 404 976 l 461 1018 l 517 932 z "},"˙":{"ha":374,"x_min":51,"x_max":322,"o":"m 193 1011 q 288 976 254 1011 q 322 879 322 942 q 285 774 322 813 q 182 735 247 735 q 85 769 118 735 q 51 867 51 803 q 90 972 51 933 q 193 1011 128 1011 z "},"˚":{"ha":539,"x_min":117,"x_max":422,"o":"m 275 1050 q 422 906 422 1050 q 382 788 422 829 q 264 747 342 747 q 117 896 117 747 q 275 1050 117 1050 m 268 942 q 231 933 242 942 q 221 900 221 924 q 232 863 221 874 q 271 853 243 853 q 308 863 297 853 q 318 896 318 872 q 307 931 318 921 q 268 942 296 942 z "},"˛":{"ha":539,"x_min":108,"x_max":407,"o":"m 264 -31 q 242 -92 242 -64 q 292 -137 242 -137 q 376 -110 332 -137 l 390 -110 l 407 -210 q 253 -274 324 -274 q 147 -235 186 -274 q 108 -139 108 -197 q 154 -12 108 -74 l 249 114 l 360 114 l 264 -31 z "},"˜":{"ha":539,"x_min":-4,"x_max":540,"o":"m 540 931 l 428 774 l 406 765 q 286 793 368 769 q 193 813 206 813 q 151 794 169 813 q 97 732 133 776 l 75 732 l -4 808 l -4 831 l 108 988 l 131 996 q 250 968 168 992 q 343 949 331 949 q 385 967 367 949 q 439 1029 403 985 l 461 1029 l 540 953 l 540 931 z "},"˝":{"ha":539,"x_min":4,"x_max":536,"o":"m 4 789 q 160 1054 86 921 l 178 1060 l 303 972 l 307 953 q 106 732 221 851 l 85 725 l 4 789 m 233 789 q 389 1054 315 921 l 407 1060 l 532 972 l 536 953 q 335 732 450 851 l 314 725 l 233 789 z "},"̃":{"ha":0,"x_min":-4,"x_max":540,"o":"m 540 931 l 428 774 l 406 765 q 286 793 368 769 q 193 813 206 813 q 151 794 169 813 q 97 732 133 776 l 75 732 l -4 808 l -4 831 l 108 988 l 131 996 q 250 968 168 992 q 343 949 331 949 q 385 967 367 949 q 439 1029 403 985 l 461 1029 l 540 953 l 540 931 z "},"̣":{"ha":0,"x_min":31,"x_max":301,"o":"m 172 -44 q 267 -79 233 -44 q 301 -176 301 -114 q 264 -282 301 -243 q 161 -321 226 -321 q 64 -287 97 -321 q 31 -189 31 -253 q 69 -83 31 -122 q 172 -44 107 -44 z "},"̦":{"ha":0,"x_min":11,"x_max":268,"o":"m 211 1 q 268 -125 268 -52 q 224 -258 268 -194 q 87 -386 180 -321 l 15 -323 l 12 -306 q 79 -176 79 -248 q 40 -87 79 -126 l 41 -68 q 211 1 127 -20 z "},"Δ":{"ha":871,"x_min":3,"x_max":857,"o":"m 3 0 l 275 899 l 611 899 l 857 0 l 3 0 m 311 201 l 539 201 l 446 650 l 429 650 l 311 201 z "},"Ω":{"ha":1063,"x_min":14,"x_max":1049,"o":"m 539 915 q 850 815 740 915 q 960 540 960 715 q 931 376 960 454 q 839 213 903 297 l 843 206 l 914 206 l 1035 219 l 1049 203 l 1018 -11 l 832 0 l 621 0 l 571 -4 l 558 6 l 558 156 q 643 301 618 228 q 668 476 668 374 q 635 644 668 594 q 525 693 603 693 q 422 647 451 693 q 392 490 392 601 q 417 308 392 385 q 501 156 443 232 l 501 6 l 489 -4 l 439 0 l 181 0 l 28 -8 l 14 8 l 44 215 l 181 204 l 217 206 l 221 213 q 128 370 156 296 q 100 525 100 444 q 151 731 100 643 q 302 867 203 819 q 539 915 401 915 z "},"μ":{"ha":743,"x_min":53,"x_max":729,"o":"m 703 28 q 582 -12 647 -12 q 492 13 526 -12 q 433 94 457 38 l 424 94 q 310 -7 367 17 l 310 -257 l 54 -257 l 63 264 l 53 640 l 310 658 l 310 282 q 324 223 310 240 q 367 206 338 206 q 426 226 399 206 l 426 640 l 683 658 l 668 210 q 690 178 668 178 q 713 182 697 178 l 729 168 l 703 28 z "},"π":{"ha":1004,"x_min":-18,"x_max":944,"o":"m 832 210 q 854 178 832 178 q 892 183 861 178 l 908 169 l 881 28 q 760 -12 804 -12 q 638 30 686 -12 q 590 169 590 72 l 590 497 l 474 497 l 474 292 l 482 -118 l 218 -118 l 226 264 l 221 496 q 176 472 197 492 q 124 413 154 451 q 89 371 101 385 l 63 371 l -18 472 l -18 499 l 129 697 l 156 711 l 768 711 l 929 715 l 944 696 l 928 493 l 842 494 l 832 210 z "},"Ẁ":{"ha":1269,"x_min":24,"x_max":1269,"o":"m 521 1275 q 833 1104 669 1188 l 792 994 l 768 989 q 438 1085 621 1026 l 429 1107 l 497 1269 l 521 1275 m 710 0 l 625 325 l 608 325 l 531 0 l 235 0 l 24 899 l 293 899 l 307 760 l 394 279 l 411 279 l 515 689 l 468 899 l 749 899 l 768 732 l 863 279 l 879 279 l 989 743 l 1014 899 l 1269 899 l 1004 0 l 710 0 z "},"ẁ":{"ha":1083,"x_min":29,"x_max":1081,"o":"m 442 1106 q 721 882 579 988 l 660 782 l 636 781 q 326 932 524 832 l 322 956 l 418 1104 l 442 1106 m 589 0 l 535 208 l 519 208 l 472 0 l 193 0 l 29 713 l 283 713 l 294 589 l 344 261 l 360 261 l 431 551 l 396 713 l 661 713 l 678 561 l 735 261 l 750 261 l 818 574 l 840 713 l 1081 713 l 868 0 l 589 0 z "},"Ẃ":{"ha":1269,"x_min":24,"x_max":1269,"o":"m 710 0 l 625 325 l 608 325 l 531 0 l 235 0 l 24 899 l 293 899 l 307 760 l 394 279 l 411 279 l 515 689 l 468 899 l 749 899 l 768 732 l 863 279 l 879 279 l 989 743 l 1014 899 l 1269 899 l 1004 0 l 710 0 m 851 1107 l 843 1085 q 513 989 660 1026 l 489 994 l 447 1104 q 760 1275 611 1188 l 783 1269 l 851 1107 z "},"ẃ":{"ha":1083,"x_min":29,"x_max":1081,"o":"m 589 0 l 535 208 l 519 208 l 472 0 l 193 0 l 29 713 l 283 713 l 294 589 l 344 261 l 360 261 l 431 551 l 396 713 l 661 713 l 678 561 l 735 261 l 750 261 l 818 574 l 840 713 l 1081 713 l 868 0 l 589 0 m 747 956 l 743 932 q 433 781 546 832 l 410 782 l 349 882 q 628 1106 490 988 l 651 1104 l 747 956 z "},"Ẅ":{"ha":1269,"x_min":24,"x_max":1269,"o":"m 499 1239 q 581 1209 551 1239 q 611 1125 611 1179 q 578 1033 611 1067 q 489 999 546 999 q 404 1028 433 999 q 375 1114 375 1058 q 408 1206 375 1172 q 499 1239 442 1239 m 767 1239 q 849 1209 819 1239 q 879 1125 879 1179 q 847 1033 879 1067 q 757 999 814 999 q 672 1028 701 999 q 643 1114 643 1058 q 676 1206 643 1172 q 767 1239 710 1239 m 710 0 l 625 325 l 608 325 l 531 0 l 235 0 l 24 899 l 293 899 l 307 760 l 394 279 l 411 279 l 515 689 l 468 899 l 749 899 l 768 732 l 863 279 l 879 279 l 989 743 l 1014 899 l 1269 899 l 1004 0 l 710 0 z "},"ẅ":{"ha":1083,"x_min":29,"x_max":1081,"o":"m 393 1053 q 476 1023 446 1053 q 506 939 506 993 q 473 847 506 881 q 383 813 440 813 q 299 842 328 813 q 269 928 269 872 q 303 1019 269 986 q 393 1053 336 1053 m 661 1053 q 744 1023 714 1053 q 774 939 774 993 q 741 847 774 881 q 651 813 708 813 q 567 842 596 813 q 538 928 538 872 q 571 1019 538 986 q 661 1053 604 1053 m 589 0 l 535 208 l 519 208 l 472 0 l 193 0 l 29 713 l 283 713 l 294 589 l 344 261 l 360 261 l 431 551 l 396 713 l 661 713 l 678 561 l 735 261 l 750 261 l 818 574 l 840 713 l 1081 713 l 868 0 l 589 0 z "},"ẞ":{"ha":988,"x_min":64,"x_max":981,"o":"m 501 915 q 694 891 604 915 q 903 814 785 867 l 914 782 l 751 544 l 781 522 q 901 431 863 464 q 960 356 939 397 q 981 257 981 315 q 884 53 981 122 q 642 -17 788 -17 q 385 36 508 -17 l 425 278 l 453 294 q 564 217 510 244 q 657 190 618 190 q 704 225 704 190 q 647 297 704 253 q 432 428 589 342 l 425 461 l 572 679 q 475 696 522 696 q 369 665 400 696 q 339 561 338 633 l 332 292 l 343 0 l 64 0 l 78 264 l 71 561 q 181 821 71 726 q 501 915 290 915 z "},"Ạ":{"ha":871,"x_min":3,"x_max":857,"o":"m 575 0 l 550 149 l 549 153 l 413 156 l 299 150 l 275 0 l 3 0 l 275 899 l 611 899 l 857 0 l 575 0 m 446 650 l 429 650 l 351 356 l 429 354 l 507 356 l 446 650 m 433 -44 q 528 -79 494 -44 q 563 -176 563 -114 q 525 -282 563 -243 q 422 -321 488 -321 q 325 -287 358 -321 q 292 -189 292 -253 q 330 -83 292 -122 q 433 -44 368 -44 z "},"ạ":{"ha":763,"x_min":10,"x_max":742,"o":"m 10 0 l 231 713 l 542 713 l 742 0 l 481 0 l 465 99 l 360 101 l 276 97 l 261 0 l 10 0 m 321 286 l 375 285 l 429 286 l 389 485 l 374 485 l 321 286 m 379 -44 q 474 -79 440 -44 q 508 -176 508 -114 q 471 -282 508 -243 q 368 -321 433 -321 q 271 -287 304 -321 q 238 -189 238 -253 q 276 -83 238 -122 q 379 -44 314 -44 z "},"Ả":{"ha":871,"x_min":3,"x_max":857,"o":"m 575 0 l 550 149 l 549 153 l 413 156 l 299 150 l 275 0 l 3 0 l 275 899 l 611 899 l 857 0 l 575 0 m 446 650 l 429 650 l 351 356 l 429 354 l 507 356 l 446 650 m 418 1317 q 517 1283 478 1317 q 557 1194 557 1249 q 539 1138 557 1164 q 472 1067 521 1111 l 510 1007 l 421 953 l 346 1064 q 401 1118 381 1089 q 421 1169 421 1147 q 379 1203 421 1203 q 282 1167 329 1203 l 242 1232 q 324 1294 278 1271 q 418 1317 371 1317 z "},"ả":{"ha":763,"x_min":10,"x_max":742,"o":"m 465 99 l 360 101 l 276 97 l 261 0 l 10 0 l 231 713 l 542 713 l 742 0 l 481 0 l 465 99 m 429 286 l 389 485 l 374 485 l 321 286 l 375 285 l 429 286 m 372 1131 q 472 1097 432 1131 q 511 1008 511 1063 q 493 951 511 978 q 426 881 475 925 l 464 821 l 375 767 l 300 878 q 355 932 335 903 q 375 983 375 961 q 333 1017 375 1017 q 236 981 283 1017 l 196 1046 q 278 1108 232 1085 q 372 1131 325 1131 z "},"Ấ":{"ha":871,"x_min":3,"x_max":857,"o":"m 575 0 l 550 149 l 549 153 l 413 156 l 299 150 l 275 0 l 3 0 l 275 899 l 611 899 l 857 0 l 575 0 m 446 650 l 429 650 l 351 356 l 429 354 l 507 356 l 446 650 m 775 1386 l 622 1179 l 607 1179 l 518 1244 l 615 1451 l 632 1461 l 768 1404 l 775 1386 m 200 1079 q 413 1244 325 1165 l 460 1244 q 672 1079 547 1165 l 625 974 l 600 974 l 436 1057 l 272 974 l 247 974 l 200 1079 z "},"ấ":{"ha":763,"x_min":10,"x_max":742,"o":"m 465 99 l 360 101 l 276 97 l 261 0 l 10 0 l 231 713 l 542 713 l 742 0 l 481 0 l 465 99 m 429 286 l 389 485 l 374 485 l 321 286 l 375 285 l 429 286 m 729 1200 l 576 993 l 561 993 l 472 1058 l 569 1265 l 586 1275 l 722 1218 l 729 1200 m 154 893 q 367 1058 279 979 l 414 1058 q 626 893 501 979 l 579 788 l 554 788 l 390 871 l 226 788 l 201 788 l 154 893 z "},"Ầ":{"ha":871,"x_min":3,"x_max":857,"o":"m 575 0 l 550 149 l 549 153 l 413 156 l 299 150 l 275 0 l 3 0 l 275 899 l 611 899 l 857 0 l 575 0 m 446 650 l 429 650 l 351 356 l 429 354 l 507 356 l 446 650 m 701 1244 l 613 1179 l 597 1179 l 444 1386 l 451 1404 l 588 1461 l 604 1451 l 701 1244 m 200 1079 q 413 1244 325 1165 l 460 1244 q 672 1079 547 1165 l 625 974 l 600 974 l 436 1057 l 272 974 l 247 974 l 200 1079 z "},"ầ":{"ha":763,"x_min":10,"x_max":742,"o":"m 465 99 l 360 101 l 276 97 l 261 0 l 10 0 l 231 713 l 542 713 l 742 0 l 481 0 l 465 99 m 429 286 l 389 485 l 374 485 l 321 286 l 375 285 l 429 286 m 656 1058 l 567 993 l 551 993 l 399 1200 l 406 1218 l 542 1275 l 558 1265 l 656 1058 m 154 893 q 367 1058 279 979 l 414 1058 q 626 893 501 979 l 579 788 l 554 788 l 390 871 l 226 788 l 201 788 l 154 893 z "},"Ẩ":{"ha":871,"x_min":3,"x_max":857,"o":"m 556 1421 q 463 1386 508 1421 l 424 1449 q 503 1508 458 1486 q 592 1529 547 1529 q 687 1497 649 1529 q 725 1413 725 1465 q 708 1359 725 1385 q 643 1292 690 1333 l 679 1235 l 594 1182 l 524 1289 q 575 1339 556 1311 q 594 1389 594 1367 q 556 1421 594 1421 m 200 1079 q 413 1244 325 1165 l 460 1244 q 672 1079 547 1165 l 625 974 l 600 974 l 436 1057 l 272 974 l 247 974 l 200 1079 m 575 0 l 550 149 l 549 153 l 413 156 l 299 150 l 275 0 l 3 0 l 275 899 l 611 899 l 857 0 l 575 0 m 446 650 l 429 650 l 351 356 l 429 354 l 507 356 l 446 650 z "},"ẩ":{"ha":763,"x_min":10,"x_max":742,"o":"m 510 1235 q 417 1200 463 1235 l 378 1263 q 457 1322 413 1300 q 546 1343 501 1343 q 641 1311 603 1343 q 679 1226 679 1279 q 662 1173 679 1199 q 597 1106 644 1147 l 633 1049 l 549 996 l 478 1103 q 529 1153 510 1125 q 549 1203 549 1181 q 510 1235 549 1235 m 154 893 q 367 1058 279 979 l 414 1058 q 626 893 501 979 l 579 788 l 554 788 l 390 871 l 226 788 l 201 788 l 154 893 m 465 99 l 360 101 l 276 97 l 261 0 l 10 0 l 231 713 l 542 713 l 742 0 l 481 0 l 465 99 m 429 286 l 389 485 l 374 485 l 321 286 l 375 285 l 429 286 z "},"Ẫ":{"ha":871,"x_min":3,"x_max":857,"o":"m 194 1304 l 194 1325 l 297 1467 l 317 1475 q 424 1450 344 1471 q 511 1432 493 1432 q 549 1449 532 1432 q 597 1506 565 1465 l 618 1506 l 690 1436 l 690 1415 l 588 1272 l 567 1265 q 457 1290 535 1269 q 374 1308 393 1308 q 339 1294 356 1308 q 308 1260 322 1279 q 288 1235 293 1242 l 267 1235 l 194 1304 m 460 1244 q 672 1079 547 1165 l 625 974 l 600 974 l 436 1057 l 272 974 l 247 974 l 200 1079 q 413 1244 325 1165 l 460 1244 m 575 0 l 550 149 l 549 153 l 413 156 l 299 150 l 275 0 l 3 0 l 275 899 l 611 899 l 857 0 l 575 0 m 446 650 l 429 650 l 351 356 l 429 354 l 507 356 l 446 650 z "},"ẫ":{"ha":763,"x_min":10,"x_max":742,"o":"m 149 1118 l 149 1139 l 251 1281 l 271 1289 q 378 1264 299 1285 q 465 1246 447 1246 q 503 1263 486 1246 q 551 1319 519 1279 l 572 1319 l 644 1250 l 644 1229 l 542 1086 l 521 1079 q 411 1104 489 1083 q 328 1122 347 1122 q 293 1108 310 1122 q 262 1074 276 1093 q 242 1049 247 1056 l 221 1049 l 149 1118 m 414 1058 q 626 893 501 979 l 579 788 l 554 788 l 390 871 l 226 788 l 201 788 l 154 893 q 367 1058 279 979 l 414 1058 m 465 99 l 360 101 l 276 97 l 261 0 l 10 0 l 231 713 l 542 713 l 742 0 l 481 0 l 465 99 m 429 286 l 389 485 l 374 485 l 321 286 l 375 285 l 429 286 z "},"Ậ":{"ha":871,"x_min":3,"x_max":857,"o":"m 201 1107 q 414 1272 326 1193 l 461 1272 q 674 1107 549 1193 l 626 1001 l 601 1001 l 438 1085 l 274 1001 l 249 1001 l 201 1107 m 575 0 l 550 149 l 549 153 l 413 156 l 299 150 l 275 0 l 3 0 l 275 899 l 611 899 l 857 0 l 575 0 m 446 650 l 429 650 l 351 356 l 429 354 l 507 356 l 446 650 m 433 -44 q 528 -79 494 -44 q 563 -176 563 -114 q 525 -282 563 -243 q 422 -321 488 -321 q 325 -287 358 -321 q 292 -189 292 -253 q 330 -83 292 -122 q 433 -44 368 -44 z "},"ậ":{"ha":763,"x_min":10,"x_max":742,"o":"m 142 893 q 368 1101 238 974 l 415 1101 q 642 893 513 1004 l 576 793 l 551 793 q 392 901 446 860 q 232 793 338 860 l 207 793 l 142 893 m 10 0 l 231 713 l 542 713 l 742 0 l 481 0 l 465 99 l 360 101 l 276 97 l 261 0 l 10 0 m 321 286 l 375 285 l 429 286 l 389 485 l 374 485 l 321 286 m 379 -44 q 474 -79 440 -44 q 508 -176 508 -114 q 471 -282 508 -243 q 368 -321 433 -321 q 271 -287 304 -321 q 238 -189 238 -253 q 276 -83 238 -122 q 379 -44 314 -44 z "},"Ắ":{"ha":871,"x_min":3,"x_max":857,"o":"m 575 0 l 550 149 l 549 153 l 413 156 l 299 150 l 275 0 l 3 0 l 275 899 l 611 899 l 857 0 l 575 0 m 446 650 l 429 650 l 351 356 l 429 354 l 507 356 l 446 650 m 635 1368 q 456 1203 542 1276 l 435 1196 l 354 1258 q 489 1461 446 1392 l 507 1467 l 631 1388 l 635 1368 m 685 1139 q 588 1011 653 1056 q 433 967 524 967 q 282 1011 344 967 q 190 1139 219 1056 l 246 1222 l 283 1222 q 443 1153 331 1153 q 592 1222 546 1153 l 629 1222 l 685 1139 z "},"ắ":{"ha":763,"x_min":10,"x_max":742,"o":"m 465 99 l 360 101 l 276 97 l 261 0 l 10 0 l 231 713 l 542 713 l 742 0 l 481 0 l 465 99 m 429 286 l 389 485 l 374 485 l 321 286 l 375 285 l 429 286 m 589 1182 q 410 1017 496 1090 l 389 1010 l 308 1072 q 443 1275 400 1206 l 461 1281 l 585 1201 l 589 1182 m 639 953 q 542 825 607 869 q 388 781 478 781 q 236 825 299 781 q 144 953 174 869 l 200 1036 l 238 1036 q 397 967 285 967 q 546 1036 500 967 l 583 1036 l 639 953 z "},"Ằ":{"ha":871,"x_min":3,"x_max":857,"o":"m 575 0 l 550 149 l 549 153 l 413 156 l 299 150 l 275 0 l 3 0 l 275 899 l 611 899 l 857 0 l 575 0 m 446 650 l 429 650 l 351 356 l 429 354 l 507 356 l 446 650 m 392 1461 q 526 1258 435 1392 l 446 1196 l 425 1203 q 246 1368 339 1276 l 250 1388 l 374 1467 l 392 1461 m 685 1139 q 588 1011 653 1056 q 433 967 524 967 q 282 1011 344 967 q 190 1139 219 1056 l 246 1222 l 283 1222 q 443 1153 331 1153 q 592 1222 546 1153 l 629 1222 l 685 1139 z "},"ằ":{"ha":763,"x_min":10,"x_max":742,"o":"m 465 99 l 360 101 l 276 97 l 261 0 l 10 0 l 231 713 l 542 713 l 742 0 l 481 0 l 465 99 m 429 286 l 389 485 l 374 485 l 321 286 l 375 285 l 429 286 m 346 1275 q 481 1072 389 1206 l 400 1010 l 379 1017 q 200 1182 293 1090 l 204 1201 l 328 1281 l 346 1275 m 639 953 q 542 825 607 869 q 388 781 478 781 q 236 825 299 781 q 144 953 174 869 l 200 1036 l 238 1036 q 397 967 285 967 q 546 1036 500 967 l 583 1036 l 639 953 z "},"Ẳ":{"ha":871,"x_min":3,"x_max":857,"o":"m 385 1438 q 288 1401 335 1438 l 247 1467 q 330 1528 283 1506 q 424 1551 376 1551 q 523 1517 483 1551 q 563 1429 563 1483 q 544 1372 563 1399 q 478 1301 526 1346 l 515 1242 l 426 1188 l 351 1299 q 406 1353 386 1324 q 426 1404 426 1382 q 385 1438 426 1438 m 433 967 q 282 1011 344 967 q 190 1139 219 1056 l 246 1222 l 283 1222 q 443 1153 331 1153 q 592 1222 546 1153 l 629 1222 l 685 1139 q 588 1011 653 1056 q 433 967 524 967 m 575 0 l 550 149 l 549 153 l 413 156 l 299 150 l 275 0 l 3 0 l 275 899 l 611 899 l 857 0 l 575 0 m 446 650 l 429 650 l 351 356 l 429 354 l 507 356 l 446 650 z "},"ẳ":{"ha":763,"x_min":10,"x_max":742,"o":"m 339 1251 q 242 1215 289 1251 l 201 1281 q 284 1342 238 1319 q 378 1365 331 1365 q 477 1331 438 1365 q 517 1243 517 1297 q 499 1186 517 1213 q 432 1115 481 1160 l 469 1056 l 381 1001 l 306 1113 q 360 1167 340 1138 q 381 1218 381 1196 q 339 1251 381 1251 m 388 781 q 236 825 299 781 q 144 953 174 869 l 200 1036 l 238 1036 q 397 967 285 967 q 546 1036 500 967 l 583 1036 l 639 953 q 542 825 607 869 q 388 781 478 781 m 465 99 l 360 101 l 276 97 l 261 0 l 10 0 l 231 713 l 542 713 l 742 0 l 481 0 l 465 99 m 429 286 l 389 485 l 374 485 l 321 286 l 375 285 l 429 286 z "},"Ẵ":{"ha":871,"x_min":3,"x_max":857,"o":"m 194 1304 l 194 1325 l 297 1467 l 317 1475 q 424 1450 344 1471 q 511 1432 493 1432 q 549 1449 532 1432 q 597 1506 565 1465 l 618 1506 l 690 1436 l 690 1415 l 588 1272 l 567 1265 q 457 1290 535 1269 q 374 1308 393 1308 q 339 1294 356 1308 q 308 1260 322 1279 q 288 1235 293 1242 l 267 1235 l 194 1304 m 449 1140 q 588 1204 544 1140 l 622 1204 l 674 1126 q 585 1008 644 1049 q 440 967 525 967 q 300 1008 358 967 q 214 1126 242 1049 l 265 1204 l 300 1204 q 449 1140 344 1140 m 575 0 l 550 149 l 549 153 l 413 156 l 299 150 l 275 0 l 3 0 l 275 899 l 611 899 l 857 0 l 575 0 m 446 650 l 429 650 l 351 356 l 429 354 l 507 356 l 446 650 z "},"ẵ":{"ha":763,"x_min":10,"x_max":742,"o":"m 149 1118 l 149 1139 l 251 1281 l 271 1289 q 378 1264 299 1285 q 465 1246 447 1246 q 503 1263 486 1246 q 551 1319 519 1279 l 572 1319 l 644 1250 l 644 1229 l 542 1086 l 521 1079 q 411 1104 489 1083 q 328 1122 347 1122 q 293 1108 310 1122 q 262 1074 276 1093 q 242 1049 247 1056 l 221 1049 l 149 1118 m 403 954 q 542 1018 499 954 l 576 1018 l 628 940 q 539 822 599 863 q 394 781 479 781 q 254 822 313 781 q 168 940 196 863 l 219 1018 l 254 1018 q 403 954 299 954 m 465 99 l 360 101 l 276 97 l 261 0 l 10 0 l 231 713 l 542 713 l 742 0 l 481 0 l 465 99 m 429 286 l 389 485 l 374 485 l 321 286 l 375 285 l 429 286 z "},"Ặ":{"ha":871,"x_min":3,"x_max":857,"o":"m 433 994 q 282 1039 344 994 q 190 1167 219 1083 l 246 1250 l 283 1250 q 443 1181 331 1181 q 592 1250 546 1181 l 629 1250 l 685 1167 q 588 1039 653 1083 q 433 994 524 994 m 575 0 l 550 149 l 549 153 l 413 156 l 299 150 l 275 0 l 3 0 l 275 899 l 611 899 l 857 0 l 575 0 m 446 650 l 429 650 l 351 356 l 429 354 l 507 356 l 446 650 m 433 -44 q 528 -79 494 -44 q 563 -176 563 -114 q 525 -282 563 -243 q 422 -321 488 -321 q 325 -287 358 -321 q 292 -189 292 -253 q 330 -83 292 -122 q 433 -44 368 -44 z "},"ặ":{"ha":763,"x_min":10,"x_max":742,"o":"m 386 800 q 228 855 288 800 q 146 989 169 910 l 201 1075 l 239 1075 q 302 1010 261 1033 q 394 988 343 988 q 487 1010 446 988 q 547 1075 528 1033 l 585 1075 l 640 989 q 550 854 614 908 q 386 800 486 800 m 10 0 l 231 713 l 542 713 l 742 0 l 481 0 l 465 99 l 360 101 l 276 97 l 261 0 l 10 0 m 321 286 l 375 285 l 429 286 l 389 485 l 374 485 l 321 286 m 379 -44 q 474 -79 440 -44 q 508 -176 508 -114 q 471 -282 508 -243 q 368 -321 433 -321 q 271 -287 304 -321 q 238 -189 238 -253 q 276 -83 238 -122 q 379 -44 314 -44 z "},"Ẹ":{"ha":751,"x_min":83,"x_max":743,"o":"m 733 203 l 717 0 l 83 0 l 97 264 l 83 899 l 728 899 l 743 879 l 725 676 l 504 685 l 361 685 l 358 558 l 496 558 l 640 563 l 656 543 l 639 340 l 478 344 l 353 344 l 351 292 l 354 214 l 488 214 l 718 222 l 733 203 m 436 -44 q 531 -79 497 -44 q 565 -176 565 -114 q 528 -282 565 -243 q 425 -321 490 -321 q 328 -287 361 -321 q 294 -189 294 -253 q 333 -83 294 -122 q 436 -44 371 -44 z "},"ẹ":{"ha":667,"x_min":74,"x_max":649,"o":"m 640 188 l 625 0 l 74 0 l 86 207 l 74 713 l 635 713 l 649 694 l 633 507 l 446 515 l 329 515 l 328 454 l 439 454 l 560 458 l 574 440 l 558 253 l 422 257 l 322 257 l 321 233 l 322 197 l 432 197 l 626 204 l 640 188 m 367 -44 q 462 -79 428 -44 q 496 -176 496 -114 q 458 -282 496 -243 q 356 -321 421 -321 q 258 -287 292 -321 q 225 -189 225 -253 q 263 -83 225 -122 q 367 -44 301 -44 z "},"Ẻ":{"ha":751,"x_min":83,"x_max":743,"o":"m 733 203 l 717 0 l 83 0 l 97 264 l 83 899 l 728 899 l 743 879 l 725 676 l 504 685 l 361 685 l 358 558 l 496 558 l 640 563 l 656 543 l 639 340 l 478 344 l 353 344 l 351 292 l 354 214 l 488 214 l 718 222 l 733 203 m 386 1317 q 485 1283 446 1317 q 525 1194 525 1249 q 507 1138 525 1164 q 440 1067 489 1111 l 478 1007 l 389 953 l 314 1064 q 369 1118 349 1089 q 389 1169 389 1147 q 347 1203 389 1203 q 250 1167 297 1203 l 210 1232 q 292 1294 246 1271 q 386 1317 339 1317 z "},"ẻ":{"ha":667,"x_min":74,"x_max":649,"o":"m 640 188 l 625 0 l 74 0 l 86 207 l 74 713 l 635 713 l 649 694 l 633 507 l 446 515 l 329 515 l 328 454 l 439 454 l 560 458 l 574 440 l 558 253 l 422 257 l 322 257 l 321 233 l 322 197 l 432 197 l 626 204 l 640 188 m 333 1131 q 433 1097 393 1131 q 472 1008 472 1063 q 454 951 472 978 q 388 881 436 925 l 425 821 l 336 767 l 261 878 q 316 932 296 903 q 336 983 336 961 q 294 1017 336 1017 q 197 981 244 1017 l 157 1046 q 240 1108 193 1085 q 333 1131 286 1131 z "},"Ẽ":{"ha":751,"x_min":83,"x_max":743,"o":"m 733 203 l 717 0 l 83 0 l 97 264 l 83 899 l 728 899 l 743 879 l 725 676 l 504 685 l 361 685 l 358 558 l 496 558 l 640 563 l 656 543 l 639 340 l 478 344 l 353 344 l 351 292 l 354 214 l 488 214 l 718 222 l 733 203 m 676 1174 l 564 1017 l 542 1008 q 422 1036 504 1013 q 329 1056 342 1056 q 288 1038 306 1056 q 233 975 269 1019 l 211 975 l 132 1051 l 132 1074 l 244 1231 l 267 1239 q 386 1211 304 1235 q 479 1192 467 1192 q 521 1210 503 1192 q 575 1272 539 1228 l 597 1272 l 676 1196 l 676 1174 z "},"ẽ":{"ha":667,"x_min":74,"x_max":649,"o":"m 640 188 l 625 0 l 74 0 l 86 207 l 74 713 l 635 713 l 649 694 l 633 507 l 446 515 l 329 515 l 328 454 l 439 454 l 560 458 l 574 440 l 558 253 l 422 257 l 322 257 l 321 233 l 322 197 l 432 197 l 626 204 l 640 188 m 624 988 l 511 831 l 489 822 q 369 850 451 826 q 276 869 289 869 q 235 851 253 869 q 181 789 217 833 l 158 789 l 79 865 l 79 888 l 192 1044 l 214 1053 q 333 1025 251 1049 q 426 1006 414 1006 q 468 1024 450 1006 q 522 1086 486 1042 l 544 1086 l 624 1010 l 624 988 z "},"Ế":{"ha":751,"x_min":83,"x_max":743,"o":"m 733 203 l 717 0 l 83 0 l 97 264 l 83 899 l 728 899 l 743 879 l 725 676 l 504 685 l 361 685 l 358 558 l 496 558 l 640 563 l 656 543 l 639 340 l 478 344 l 353 344 l 351 292 l 354 214 l 488 214 l 718 222 l 733 203 m 743 1386 l 590 1179 l 575 1179 l 486 1244 l 583 1451 l 600 1461 l 736 1404 l 743 1386 m 168 1079 q 381 1244 293 1165 l 428 1244 q 640 1079 515 1165 l 593 974 l 568 974 l 404 1057 l 240 974 l 215 974 l 168 1079 z "},"ế":{"ha":667,"x_min":74,"x_max":690,"o":"m 640 188 l 625 0 l 74 0 l 86 207 l 74 713 l 635 713 l 649 694 l 633 507 l 446 515 l 329 515 l 328 454 l 439 454 l 560 458 l 574 440 l 558 253 l 422 257 l 322 257 l 321 233 l 322 197 l 432 197 l 626 204 l 640 188 m 690 1200 l 538 993 l 522 993 l 433 1058 l 531 1265 l 547 1275 l 683 1218 l 690 1200 m 115 893 q 328 1058 240 979 l 375 1058 q 588 893 463 979 l 540 788 l 515 788 l 351 871 l 188 788 l 163 788 l 115 893 z "},"Ề":{"ha":751,"x_min":83,"x_max":743,"o":"m 733 203 l 717 0 l 83 0 l 97 264 l 83 899 l 728 899 l 743 879 l 725 676 l 504 685 l 361 685 l 358 558 l 496 558 l 640 563 l 656 543 l 639 340 l 478 344 l 353 344 l 351 292 l 354 214 l 488 214 l 718 222 l 733 203 m 669 1244 l 581 1179 l 565 1179 l 413 1386 l 419 1404 l 556 1461 l 572 1451 l 669 1244 m 168 1079 q 381 1244 293 1165 l 428 1244 q 640 1079 515 1165 l 593 974 l 568 974 l 404 1057 l 240 974 l 215 974 l 168 1079 z "},"ề":{"ha":667,"x_min":74,"x_max":649,"o":"m 640 188 l 625 0 l 74 0 l 86 207 l 74 713 l 635 713 l 649 694 l 633 507 l 446 515 l 329 515 l 328 454 l 439 454 l 560 458 l 574 440 l 558 253 l 422 257 l 322 257 l 321 233 l 322 197 l 432 197 l 626 204 l 640 188 m 617 1058 l 528 993 l 513 993 l 360 1200 l 367 1218 l 503 1275 l 519 1265 l 617 1058 m 115 893 q 328 1058 240 979 l 375 1058 q 588 893 463 979 l 540 788 l 515 788 l 351 871 l 188 788 l 163 788 l 115 893 z "},"Ể":{"ha":751,"x_min":83,"x_max":743,"o":"m 524 1421 q 431 1386 476 1421 l 392 1449 q 471 1508 426 1486 q 560 1529 515 1529 q 655 1497 617 1529 q 693 1413 693 1465 q 676 1359 693 1385 q 611 1292 658 1333 l 647 1235 l 563 1182 l 492 1289 q 543 1339 524 1311 q 563 1389 563 1367 q 524 1421 563 1421 m 168 1079 q 381 1244 293 1165 l 428 1244 q 640 1079 515 1165 l 593 974 l 568 974 l 404 1057 l 240 974 l 215 974 l 168 1079 m 733 203 l 717 0 l 83 0 l 97 264 l 83 899 l 728 899 l 743 879 l 725 676 l 504 685 l 361 685 l 358 558 l 496 558 l 640 563 l 656 543 l 639 340 l 478 344 l 353 344 l 351 292 l 354 214 l 488 214 l 718 222 l 733 203 z "},"ể":{"ha":667,"x_min":74,"x_max":649,"o":"m 471 1235 q 378 1200 424 1235 l 339 1263 q 418 1322 374 1300 q 507 1343 463 1343 q 602 1311 564 1343 q 640 1226 640 1279 q 623 1173 640 1199 q 558 1106 606 1147 l 594 1049 l 510 996 l 439 1103 q 490 1153 471 1125 q 510 1203 510 1181 q 471 1235 510 1235 m 115 893 q 328 1058 240 979 l 375 1058 q 588 893 463 979 l 540 788 l 515 788 l 351 871 l 188 788 l 163 788 l 115 893 m 640 188 l 625 0 l 74 0 l 86 207 l 74 713 l 635 713 l 649 694 l 633 507 l 446 515 l 329 515 l 328 454 l 439 454 l 560 458 l 574 440 l 558 253 l 422 257 l 322 257 l 321 233 l 322 197 l 432 197 l 626 204 l 640 188 z "},"Ễ":{"ha":751,"x_min":83,"x_max":743,"o":"m 733 203 l 717 0 l 83 0 l 97 264 l 83 899 l 728 899 l 743 879 l 725 676 l 504 685 l 361 685 l 358 558 l 496 558 l 640 563 l 656 543 l 639 340 l 478 344 l 353 344 l 351 292 l 354 214 l 488 214 l 718 222 l 733 203 m 669 1244 l 581 1179 l 565 1179 l 413 1386 l 419 1404 l 556 1461 l 572 1451 l 669 1244 m 168 1079 q 381 1244 293 1165 l 428 1244 q 640 1079 515 1165 l 593 974 l 568 974 l 404 1057 l 240 974 l 215 974 l 168 1079 z "},"ễ":{"ha":667,"x_min":74,"x_max":649,"o":"m 110 1118 l 110 1139 l 213 1281 l 232 1289 q 339 1264 260 1285 q 426 1246 408 1246 q 464 1263 447 1246 q 513 1319 481 1279 l 533 1319 l 606 1250 l 606 1229 l 503 1086 l 482 1079 q 372 1104 450 1083 q 289 1122 308 1122 q 254 1108 271 1122 q 223 1074 238 1093 q 203 1049 208 1056 l 182 1049 l 110 1118 m 375 1058 q 588 893 463 979 l 540 788 l 515 788 l 351 871 l 188 788 l 163 788 l 115 893 q 328 1058 240 979 l 375 1058 m 640 188 l 625 0 l 74 0 l 86 207 l 74 713 l 635 713 l 649 694 l 633 507 l 446 515 l 329 515 l 328 454 l 439 454 l 560 458 l 574 440 l 558 253 l 422 257 l 322 257 l 321 233 l 322 197 l 432 197 l 626 204 l 640 188 z "},"Ệ":{"ha":751,"x_min":83,"x_max":743,"o":"m 169 1107 q 382 1272 294 1193 l 429 1272 q 642 1107 517 1193 l 594 1001 l 569 1001 l 406 1085 l 242 1001 l 217 1001 l 169 1107 m 733 203 l 717 0 l 83 0 l 97 264 l 83 899 l 728 899 l 743 879 l 725 676 l 504 685 l 361 685 l 358 558 l 496 558 l 640 563 l 656 543 l 639 340 l 478 344 l 353 344 l 351 292 l 354 214 l 488 214 l 718 222 l 733 203 m 436 -44 q 531 -79 497 -44 q 565 -176 565 -114 q 528 -282 565 -243 q 425 -321 490 -321 q 328 -287 361 -321 q 294 -189 294 -253 q 333 -83 294 -122 q 436 -44 371 -44 z "},"ệ":{"ha":667,"x_min":74,"x_max":649,"o":"m 103 893 q 329 1101 199 974 l 376 1101 q 603 893 474 1004 l 538 793 l 513 793 q 353 901 407 860 q 193 793 299 860 l 168 793 l 103 893 m 640 188 l 625 0 l 74 0 l 86 207 l 74 713 l 635 713 l 649 694 l 633 507 l 446 515 l 329 515 l 328 454 l 439 454 l 560 458 l 574 440 l 558 253 l 422 257 l 322 257 l 321 233 l 322 197 l 432 197 l 626 204 l 640 188 m 367 -44 q 462 -79 428 -44 q 496 -176 496 -114 q 458 -282 496 -243 q 356 -321 421 -321 q 258 -287 292 -321 q 225 -189 225 -253 q 263 -83 225 -122 q 367 -44 301 -44 z "},"Ỉ":{"ha":454,"x_min":29,"x_max":367,"o":"m 363 0 l 83 0 l 97 264 l 83 899 l 367 899 l 351 292 l 363 0 m 206 1317 q 305 1283 265 1317 q 344 1194 344 1249 q 326 1138 344 1164 q 260 1067 308 1111 l 297 1007 l 208 953 l 133 1064 q 188 1118 168 1089 q 208 1169 208 1147 q 167 1203 208 1203 q 69 1167 117 1203 l 29 1232 q 112 1294 65 1271 q 206 1317 158 1317 z "},"ỉ":{"ha":421,"x_min":17,"x_max":336,"o":"m 332 0 l 74 0 l 86 207 l 74 713 l 336 713 l 321 233 l 332 0 m 193 1131 q 292 1097 253 1131 q 332 1008 332 1063 q 314 951 332 978 q 247 881 296 925 l 285 821 l 196 767 l 121 878 q 176 932 156 903 q 196 983 196 961 q 154 1017 196 1017 q 57 981 104 1017 l 17 1046 q 99 1108 53 1085 q 193 1131 146 1131 z "},"Ị":{"ha":454,"x_min":81,"x_max":367,"o":"m 363 0 l 83 0 l 97 264 l 83 899 l 367 899 l 351 292 l 363 0 m 222 -44 q 317 -79 283 -44 q 351 -176 351 -114 q 314 -282 351 -243 q 211 -321 276 -321 q 114 -287 147 -321 q 81 -189 81 -253 q 119 -83 81 -122 q 222 -44 157 -44 z "},"ị":{"ha":421,"x_min":64,"x_max":336,"o":"m 332 0 l 74 0 l 86 207 l 74 713 l 336 713 l 321 233 l 332 0 m 206 -44 q 301 -79 267 -44 q 335 -176 335 -114 q 297 -282 335 -243 q 194 -321 260 -321 q 97 -287 131 -321 q 64 -189 64 -253 q 102 -83 64 -122 q 206 -44 140 -44 z "},"Ọ":{"ha":907,"x_min":24,"x_max":883,"o":"m 474 915 q 776 799 669 915 q 883 472 883 683 q 766 111 883 239 q 433 -17 649 -17 q 131 101 238 -17 q 24 433 24 218 q 141 790 24 664 q 474 915 258 915 m 449 693 q 367 674 394 693 q 327 608 339 656 q 315 471 315 561 q 328 296 315 356 q 370 213 340 236 q 458 189 400 189 q 540 208 513 189 q 580 274 568 226 q 592 413 592 322 q 579 586 592 526 q 537 669 567 646 q 449 693 507 693 m 467 -44 q 562 -79 528 -44 q 596 -176 596 -114 q 558 -282 596 -243 q 456 -321 521 -321 q 358 -287 392 -321 q 325 -189 325 -253 q 363 -83 325 -122 q 467 -44 401 -44 z "},"ọ":{"ha":785,"x_min":25,"x_max":758,"o":"m 410 726 q 667 635 576 726 q 758 375 758 543 q 658 87 758 189 q 374 -15 557 -15 q 116 78 207 -15 q 25 342 25 172 q 126 626 25 525 q 410 726 226 726 m 386 522 q 328 512 347 522 q 302 471 310 501 q 294 376 294 440 q 303 247 294 289 q 332 190 311 206 q 397 175 353 175 q 456 185 438 175 q 482 226 475 196 q 489 319 489 256 q 481 450 489 408 q 452 507 474 492 q 386 522 431 522 m 401 -44 q 497 -79 463 -44 q 531 -176 531 -114 q 493 -282 531 -243 q 390 -321 456 -321 q 293 -287 326 -321 q 260 -189 260 -253 q 298 -83 260 -122 q 401 -44 336 -44 z "},"Ỏ":{"ha":907,"x_min":24,"x_max":883,"o":"m 474 915 q 776 799 669 915 q 883 472 883 683 q 766 111 883 239 q 433 -17 649 -17 q 131 101 238 -17 q 24 433 24 218 q 141 790 24 664 q 474 915 258 915 m 449 693 q 367 674 394 693 q 327 608 339 656 q 315 471 315 561 q 328 296 315 356 q 370 213 340 236 q 458 189 400 189 q 540 208 513 189 q 580 274 568 226 q 592 413 592 322 q 579 586 592 526 q 537 669 567 646 q 449 693 507 693 m 435 1317 q 534 1283 494 1317 q 574 1194 574 1249 q 556 1138 574 1164 q 489 1067 538 1111 l 526 1007 l 438 953 l 363 1064 q 417 1118 397 1089 q 438 1169 438 1147 q 396 1203 438 1203 q 299 1167 346 1203 l 258 1232 q 341 1294 294 1271 q 435 1317 388 1317 z "},"ỏ":{"ha":785,"x_min":25,"x_max":758,"o":"m 410 726 q 667 635 576 726 q 758 375 758 543 q 658 87 758 189 q 374 -15 557 -15 q 116 78 207 -15 q 25 342 25 172 q 126 626 25 525 q 410 726 226 726 m 386 522 q 328 512 347 522 q 302 471 310 501 q 294 376 294 440 q 303 247 294 289 q 332 190 311 206 q 397 175 353 175 q 456 185 438 175 q 482 226 475 196 q 489 319 489 256 q 481 450 489 408 q 452 507 474 492 q 386 522 431 522 m 375 1131 q 474 1097 435 1131 q 514 1008 514 1063 q 496 951 514 978 q 429 881 478 925 l 467 821 l 378 767 l 303 878 q 358 932 338 903 q 378 983 378 961 q 336 1017 378 1017 q 239 981 286 1017 l 199 1046 q 281 1108 235 1085 q 375 1131 328 1131 z "},"Ố":{"ha":907,"x_min":24,"x_max":883,"o":"m 474 915 q 776 799 669 915 q 883 472 883 683 q 766 111 883 239 q 433 -17 649 -17 q 131 101 238 -17 q 24 433 24 218 q 141 790 24 664 q 474 915 258 915 m 449 693 q 367 674 394 693 q 327 608 339 656 q 315 471 315 561 q 328 296 315 356 q 370 213 340 236 q 458 189 400 189 q 540 208 513 189 q 580 274 568 226 q 592 413 592 322 q 579 586 592 526 q 537 669 567 646 q 449 693 507 693 m 792 1386 l 639 1179 l 624 1179 l 535 1244 l 632 1451 l 649 1461 l 785 1404 l 792 1386 m 217 1079 q 429 1244 342 1165 l 476 1244 q 689 1079 564 1165 l 642 974 l 617 974 l 453 1057 l 289 974 l 264 974 l 217 1079 z "},"ố":{"ha":785,"x_min":25,"x_max":758,"o":"m 410 726 q 667 635 576 726 q 758 375 758 543 q 658 87 758 189 q 374 -15 557 -15 q 116 78 207 -15 q 25 342 25 172 q 126 626 25 525 q 410 726 226 726 m 386 522 q 328 512 347 522 q 302 471 310 501 q 294 376 294 440 q 303 247 294 289 q 332 190 311 206 q 397 175 353 175 q 456 185 438 175 q 482 226 475 196 q 489 319 489 256 q 481 450 489 408 q 452 507 474 492 q 386 522 431 522 m 732 1200 l 579 993 l 564 993 l 475 1058 l 572 1265 l 589 1275 l 725 1218 l 732 1200 m 157 893 q 369 1058 282 979 l 417 1058 q 629 893 504 979 l 582 788 l 557 788 l 393 871 l 229 788 l 204 788 l 157 893 z "},"Ồ":{"ha":907,"x_min":24,"x_max":883,"o":"m 474 915 q 776 799 669 915 q 883 472 883 683 q 766 111 883 239 q 433 -17 649 -17 q 131 101 238 -17 q 24 433 24 218 q 141 790 24 664 q 474 915 258 915 m 449 693 q 367 674 394 693 q 327 608 339 656 q 315 471 315 561 q 328 296 315 356 q 370 213 340 236 q 458 189 400 189 q 540 208 513 189 q 580 274 568 226 q 592 413 592 322 q 579 586 592 526 q 537 669 567 646 q 449 693 507 693 m 718 1244 l 629 1179 l 614 1179 l 461 1386 l 468 1404 l 604 1461 l 621 1451 l 718 1244 m 217 1079 q 429 1244 342 1165 l 476 1244 q 689 1079 564 1165 l 642 974 l 617 974 l 453 1057 l 289 974 l 264 974 l 217 1079 z "},"ồ":{"ha":785,"x_min":25,"x_max":758,"o":"m 410 726 q 667 635 576 726 q 758 375 758 543 q 658 87 758 189 q 374 -15 557 -15 q 116 78 207 -15 q 25 342 25 172 q 126 626 25 525 q 410 726 226 726 m 386 522 q 328 512 347 522 q 302 471 310 501 q 294 376 294 440 q 303 247 294 289 q 332 190 311 206 q 397 175 353 175 q 456 185 438 175 q 482 226 475 196 q 489 319 489 256 q 481 450 489 408 q 452 507 474 492 q 386 522 431 522 m 658 1058 l 569 993 l 554 993 l 401 1200 l 408 1218 l 544 1275 l 561 1265 l 658 1058 m 157 893 q 369 1058 282 979 l 417 1058 q 629 893 504 979 l 582 788 l 557 788 l 393 871 l 229 788 l 204 788 l 157 893 z "},"Ổ":{"ha":907,"x_min":24,"x_max":883,"o":"m 608 1529 q 703 1497 665 1529 q 742 1413 742 1465 q 724 1359 742 1385 q 660 1292 707 1333 l 696 1235 l 611 1182 l 540 1289 q 592 1339 572 1311 q 611 1389 611 1367 q 572 1421 611 1421 q 479 1386 525 1421 l 440 1449 q 519 1508 475 1486 q 608 1529 564 1529 m 217 1079 q 429 1244 342 1165 l 476 1244 q 689 1079 564 1165 l 642 974 l 617 974 l 453 1057 l 289 974 l 264 974 l 217 1079 m 474 915 q 776 799 669 915 q 883 472 883 683 q 766 111 883 239 q 433 -17 649 -17 q 131 101 238 -17 q 24 433 24 218 q 141 790 24 664 q 474 915 258 915 m 449 693 q 367 674 394 693 q 327 608 339 656 q 315 471 315 561 q 328 296 315 356 q 370 213 340 236 q 458 189 400 189 q 540 208 513 189 q 580 274 568 226 q 592 413 592 322 q 579 586 592 526 q 537 669 567 646 q 449 693 507 693 z "},"ổ":{"ha":785,"x_min":25,"x_max":758,"o":"m 549 1343 q 644 1311 606 1343 q 682 1226 682 1279 q 665 1173 682 1199 q 600 1106 647 1147 l 636 1049 l 551 996 l 481 1103 q 532 1153 513 1125 q 551 1203 551 1181 q 513 1235 551 1235 q 419 1200 465 1235 l 381 1263 q 460 1322 415 1300 q 549 1343 504 1343 m 157 893 q 369 1058 282 979 l 417 1058 q 629 893 504 979 l 582 788 l 557 788 l 393 871 l 229 788 l 204 788 l 157 893 m 410 726 q 667 635 576 726 q 758 375 758 543 q 658 87 758 189 q 374 -15 557 -15 q 116 78 207 -15 q 25 342 25 172 q 126 626 25 525 q 410 726 226 726 m 386 522 q 328 512 347 522 q 302 471 310 501 q 294 376 294 440 q 303 247 294 289 q 332 190 311 206 q 397 175 353 175 q 456 185 438 175 q 482 226 475 196 q 489 319 489 256 q 481 450 489 408 q 452 507 474 492 q 386 522 431 522 z "},"Ỗ":{"ha":907,"x_min":24,"x_max":883,"o":"m 707 1415 l 604 1272 l 583 1265 q 474 1290 551 1269 q 390 1308 410 1308 q 356 1294 372 1308 q 324 1260 339 1279 q 304 1235 310 1242 l 283 1235 l 211 1304 l 211 1325 l 314 1467 l 333 1475 q 440 1450 361 1471 q 528 1432 510 1432 q 565 1449 549 1432 q 614 1506 582 1465 l 635 1506 l 707 1436 l 707 1415 m 217 1079 q 429 1244 342 1165 l 476 1244 q 689 1079 564 1165 l 642 974 l 617 974 l 453 1057 l 289 974 l 264 974 l 217 1079 m 474 915 q 776 799 669 915 q 883 472 883 683 q 766 111 883 239 q 433 -17 649 -17 q 131 101 238 -17 q 24 433 24 218 q 141 790 24 664 q 474 915 258 915 m 449 693 q 367 674 394 693 q 327 608 339 656 q 315 471 315 561 q 328 296 315 356 q 370 213 340 236 q 458 189 400 189 q 540 208 513 189 q 580 274 568 226 q 592 413 592 322 q 579 586 592 526 q 537 669 567 646 q 449 693 507 693 z "},"ỗ":{"ha":785,"x_min":25,"x_max":758,"o":"m 647 1229 l 544 1086 l 524 1079 q 414 1104 492 1083 q 331 1122 350 1122 q 296 1108 313 1122 q 265 1074 279 1093 q 244 1049 250 1056 l 224 1049 l 151 1118 l 151 1139 l 254 1281 l 274 1289 q 381 1264 301 1285 q 468 1246 450 1246 q 506 1263 489 1246 q 554 1319 522 1279 l 575 1319 l 647 1250 l 647 1229 m 157 893 q 369 1058 282 979 l 417 1058 q 629 893 504 979 l 582 788 l 557 788 l 393 871 l 229 788 l 204 788 l 157 893 m 410 726 q 667 635 576 726 q 758 375 758 543 q 658 87 758 189 q 374 -15 557 -15 q 116 78 207 -15 q 25 342 25 172 q 126 626 25 525 q 410 726 226 726 m 386 522 q 328 512 347 522 q 302 471 310 501 q 294 376 294 440 q 303 247 294 289 q 332 190 311 206 q 397 175 353 175 q 456 185 438 175 q 482 226 475 196 q 489 319 489 256 q 481 450 489 408 q 452 507 474 492 q 386 522 431 522 z "},"Ộ":{"ha":907,"x_min":24,"x_max":883,"o":"m 218 1107 q 431 1272 343 1193 l 478 1272 q 690 1107 565 1193 l 643 1001 l 618 1001 l 454 1085 l 290 1001 l 265 1001 l 218 1107 m 474 915 q 776 799 669 915 q 883 472 883 683 q 766 111 883 239 q 433 -17 649 -17 q 131 101 238 -17 q 24 433 24 218 q 141 790 24 664 q 474 915 258 915 m 449 693 q 367 674 394 693 q 327 608 339 656 q 315 471 315 561 q 328 296 315 356 q 370 213 340 236 q 458 189 400 189 q 540 208 513 189 q 580 274 568 226 q 592 413 592 322 q 579 586 592 526 q 537 669 567 646 q 449 693 507 693 m 467 -44 q 562 -79 528 -44 q 596 -176 596 -114 q 558 -282 596 -243 q 456 -321 521 -321 q 358 -287 392 -321 q 325 -189 325 -253 q 363 -83 325 -122 q 467 -44 401 -44 z "},"ộ":{"ha":785,"x_min":25,"x_max":758,"o":"m 144 893 q 371 1101 240 974 l 418 1101 q 644 893 515 1004 l 579 793 l 554 793 q 394 901 449 860 q 235 793 340 860 l 210 793 l 144 893 m 410 726 q 667 635 576 726 q 758 375 758 543 q 658 87 758 189 q 374 -15 557 -15 q 116 78 207 -15 q 25 342 25 172 q 126 626 25 525 q 410 726 226 726 m 386 522 q 328 512 347 522 q 302 471 310 501 q 294 376 294 440 q 303 247 294 289 q 332 190 311 206 q 397 175 353 175 q 456 185 438 175 q 482 226 475 196 q 489 319 489 256 q 481 450 489 408 q 452 507 474 492 q 386 522 431 522 m 401 -44 q 497 -79 463 -44 q 531 -176 531 -114 q 493 -282 531 -243 q 390 -321 456 -321 q 293 -287 326 -321 q 260 -189 260 -253 q 298 -83 260 -122 q 401 -44 336 -44 z "},"Ớ":{"ha":918,"x_min":24,"x_max":967,"o":"m 850 1096 q 934 1056 901 1096 q 967 953 967 1015 q 921 828 967 881 q 804 758 875 775 q 883 467 883 644 q 831 208 883 317 q 678 42 778 100 q 438 -17 578 -17 q 131 101 239 -17 q 24 432 24 218 q 77 692 24 583 q 226 858 131 801 q 447 915 322 915 q 615 890 515 915 q 693 876 674 876 q 757 939 757 876 q 717 1025 757 989 l 721 1044 q 850 1096 792 1096 m 446 693 q 365 673 392 693 q 326 603 338 653 q 315 456 315 553 q 328 292 315 349 q 373 213 342 236 q 463 189 404 189 q 542 208 515 189 q 581 278 569 228 q 592 428 592 329 q 579 591 592 535 q 535 670 567 647 q 446 693 504 693 m 679 1107 l 671 1085 q 340 989 488 1026 l 317 994 l 275 1104 q 588 1275 439 1188 l 611 1269 l 679 1107 z "},"ớ":{"ha":794,"x_min":25,"x_max":835,"o":"m 611 826 q 731 874 679 874 q 806 840 776 874 q 835 756 835 807 q 797 651 835 696 q 697 590 758 607 q 758 371 758 503 q 658 88 758 190 q 378 -15 557 -15 q 117 78 208 -15 q 25 340 25 171 q 71 548 25 461 q 198 681 117 635 q 385 726 279 726 q 526 707 451 726 q 592 697 572 697 q 640 743 640 697 q 607 808 640 783 l 611 826 m 401 175 q 458 185 440 175 q 483 228 476 196 q 489 335 489 261 q 481 454 489 415 q 451 508 472 493 q 385 522 429 522 q 326 510 344 522 q 301 466 308 499 q 294 363 294 433 q 303 243 294 282 q 333 190 311 204 q 401 175 356 175 m 601 921 l 593 899 q 263 803 410 840 l 239 808 l 197 918 q 510 1089 361 1001 l 533 1083 l 601 921 z "},"Ờ":{"ha":918,"x_min":24,"x_max":967,"o":"m 349 1275 q 661 1104 497 1188 l 619 994 l 596 989 q 265 1085 449 1026 l 257 1107 l 325 1269 l 349 1275 m 850 1096 q 934 1056 901 1096 q 967 953 967 1015 q 921 828 967 881 q 804 758 875 775 q 883 467 883 644 q 831 208 883 317 q 678 42 778 100 q 438 -17 578 -17 q 131 101 239 -17 q 24 432 24 218 q 77 692 24 583 q 226 858 131 801 q 447 915 322 915 q 615 890 515 915 q 693 876 674 876 q 757 939 757 876 q 717 1025 757 989 l 721 1044 q 850 1096 792 1096 m 446 693 q 365 673 392 693 q 326 603 338 653 q 315 456 315 553 q 328 292 315 349 q 373 213 342 236 q 463 189 404 189 q 542 208 515 189 q 581 278 569 228 q 592 428 592 329 q 579 591 592 535 q 535 670 567 647 q 446 693 504 693 z "},"ờ":{"ha":794,"x_min":25,"x_max":835,"o":"m 271 1089 q 583 918 419 1001 l 542 808 l 518 803 q 188 899 371 840 l 179 921 l 247 1083 l 271 1089 m 611 826 q 731 874 679 874 q 806 840 776 874 q 835 756 835 807 q 797 651 835 696 q 697 590 758 607 q 758 371 758 503 q 658 88 758 190 q 378 -15 557 -15 q 117 78 208 -15 q 25 340 25 171 q 71 548 25 461 q 198 681 117 635 q 385 726 279 726 q 526 707 451 726 q 592 697 572 697 q 640 743 640 697 q 607 808 640 783 l 611 826 m 401 175 q 458 185 440 175 q 483 228 476 196 q 489 335 489 261 q 481 454 489 415 q 451 508 472 493 q 385 522 429 522 q 326 510 344 522 q 301 466 308 499 q 294 363 294 433 q 303 243 294 282 q 333 190 311 204 q 401 175 356 175 z "},"Ở":{"ha":918,"x_min":24,"x_max":967,"o":"m 850 1096 q 934 1056 901 1096 q 967 953 967 1015 q 921 828 967 881 q 804 758 875 775 q 883 467 883 644 q 831 208 883 317 q 678 42 778 100 q 438 -17 578 -17 q 131 101 239 -17 q 24 432 24 218 q 77 692 24 583 q 226 858 131 801 q 447 915 322 915 q 615 890 515 915 q 693 876 674 876 q 757 939 757 876 q 717 1025 757 989 l 721 1044 q 850 1096 792 1096 m 446 693 q 365 673 392 693 q 326 603 338 653 q 315 456 315 553 q 328 292 315 349 q 373 213 342 236 q 463 189 404 189 q 542 208 515 189 q 581 278 569 228 q 592 428 592 329 q 579 591 592 535 q 535 670 567 647 q 446 693 504 693 m 435 1317 q 534 1283 494 1317 q 574 1194 574 1249 q 556 1138 574 1164 q 489 1067 538 1111 l 526 1007 l 438 953 l 363 1064 q 417 1118 397 1089 q 438 1169 438 1147 q 396 1203 438 1203 q 299 1167 346 1203 l 258 1232 q 341 1294 294 1271 q 435 1317 388 1317 z "},"ở":{"ha":794,"x_min":25,"x_max":835,"o":"m 611 826 q 731 874 679 874 q 806 840 776 874 q 835 756 835 807 q 797 651 835 696 q 697 590 758 607 q 758 371 758 503 q 658 88 758 190 q 378 -15 557 -15 q 117 78 208 -15 q 25 340 25 171 q 71 548 25 461 q 198 681 117 635 q 385 726 279 726 q 526 707 451 726 q 592 697 572 697 q 640 743 640 697 q 607 808 640 783 l 611 826 m 401 175 q 458 185 440 175 q 483 228 476 196 q 489 335 489 261 q 481 454 489 415 q 451 508 472 493 q 385 522 429 522 q 326 510 344 522 q 301 466 308 499 q 294 363 294 433 q 303 243 294 282 q 333 190 311 204 q 401 175 356 175 m 357 1131 q 456 1097 417 1131 q 496 1008 496 1063 q 478 951 496 978 q 411 881 460 925 l 449 821 l 360 767 l 285 878 q 340 932 319 903 q 360 983 360 961 q 318 1017 360 1017 q 221 981 268 1017 l 181 1046 q 263 1108 217 1085 q 357 1131 310 1131 z "},"Ỡ":{"ha":918,"x_min":24,"x_max":967,"o":"m 850 1096 q 934 1056 901 1096 q 967 953 967 1015 q 921 828 967 881 q 804 758 875 775 q 883 467 883 644 q 831 208 883 317 q 678 42 778 100 q 438 -17 578 -17 q 131 101 239 -17 q 24 432 24 218 q 77 692 24 583 q 226 858 131 801 q 447 915 322 915 q 615 890 515 915 q 693 876 674 876 q 757 939 757 876 q 717 1025 757 989 l 721 1044 q 850 1096 792 1096 m 446 693 q 365 673 392 693 q 326 603 338 653 q 315 456 315 553 q 328 292 315 349 q 373 213 342 236 q 463 189 404 189 q 542 208 515 189 q 581 278 569 228 q 592 428 592 329 q 579 591 592 535 q 535 670 567 647 q 446 693 504 693 m 725 1174 l 613 1017 l 590 1008 q 471 1036 553 1013 q 378 1056 390 1056 q 336 1038 354 1056 q 282 975 318 1019 l 260 975 l 181 1051 l 181 1074 l 293 1231 l 315 1239 q 435 1211 353 1235 q 528 1192 515 1192 q 569 1210 551 1192 q 624 1272 588 1228 l 646 1272 l 725 1196 l 725 1174 z "},"ỡ":{"ha":794,"x_min":25,"x_max":835,"o":"m 611 826 q 731 874 679 874 q 806 840 776 874 q 835 756 835 807 q 797 651 835 696 q 697 590 758 607 q 758 371 758 503 q 658 88 758 190 q 378 -15 557 -15 q 117 78 208 -15 q 25 340 25 171 q 71 548 25 461 q 198 681 117 635 q 385 726 279 726 q 526 707 451 726 q 592 697 572 697 q 640 743 640 697 q 607 808 640 783 l 611 826 m 401 175 q 458 185 440 175 q 483 228 476 196 q 489 335 489 261 q 481 454 489 415 q 451 508 472 493 q 385 522 429 522 q 326 510 344 522 q 301 466 308 499 q 294 363 294 433 q 303 243 294 282 q 333 190 311 204 q 401 175 356 175 m 647 988 l 535 831 l 513 822 q 393 850 475 826 q 300 869 313 869 q 258 851 276 869 q 204 789 240 833 l 182 789 l 103 865 l 103 888 l 215 1044 l 238 1053 q 357 1025 275 1049 q 450 1006 438 1006 q 492 1024 474 1006 q 546 1086 510 1042 l 568 1086 l 647 1010 l 647 988 z "},"Ợ":{"ha":918,"x_min":24,"x_max":967,"o":"m 850 1096 q 934 1056 901 1096 q 967 953 967 1015 q 921 828 967 881 q 804 758 875 775 q 883 467 883 644 q 831 208 883 317 q 678 42 778 100 q 438 -17 578 -17 q 131 101 239 -17 q 24 432 24 218 q 77 692 24 583 q 226 858 131 801 q 447 915 322 915 q 615 890 515 915 q 693 876 674 876 q 757 939 757 876 q 717 1025 757 989 l 721 1044 q 850 1096 792 1096 m 446 693 q 365 673 392 693 q 326 603 338 653 q 315 456 315 553 q 328 292 315 349 q 373 213 342 236 q 463 189 404 189 q 542 208 515 189 q 581 278 569 228 q 592 428 592 329 q 579 591 592 535 q 535 670 567 647 q 446 693 504 693 m 467 -44 q 562 -79 528 -44 q 596 -176 596 -114 q 558 -282 596 -243 q 456 -321 521 -321 q 358 -287 392 -321 q 325 -189 325 -253 q 363 -83 325 -122 q 467 -44 401 -44 z "},"ợ":{"ha":794,"x_min":25,"x_max":835,"o":"m 611 826 q 731 874 679 874 q 806 840 776 874 q 835 756 835 807 q 797 651 835 696 q 697 590 758 607 q 758 371 758 503 q 658 88 758 190 q 378 -15 557 -15 q 117 78 208 -15 q 25 340 25 171 q 71 548 25 461 q 198 681 117 635 q 385 726 279 726 q 526 707 451 726 q 592 697 572 697 q 640 743 640 697 q 607 808 640 783 l 611 826 m 401 175 q 458 185 440 175 q 483 228 476 196 q 489 335 489 261 q 481 454 489 415 q 451 508 472 493 q 385 522 429 522 q 326 510 344 522 q 301 466 308 499 q 294 363 294 433 q 303 243 294 282 q 333 190 311 204 q 401 175 356 175 m 401 -44 q 497 -79 463 -44 q 531 -176 531 -114 q 493 -282 531 -243 q 390 -321 456 -321 q 293 -287 326 -321 q 260 -189 260 -253 q 298 -83 260 -122 q 401 -44 336 -44 z "},"Ụ":{"ha":907,"x_min":64,"x_max":843,"o":"m 832 300 q 729 65 831 147 q 439 -17 628 -17 q 160 65 257 -17 q 68 300 64 147 l 72 443 l 64 899 l 343 899 l 331 338 q 358 235 329 267 q 450 203 386 203 q 544 235 515 203 q 572 338 574 267 l 560 899 l 843 899 l 833 443 l 832 300 m 456 -44 q 551 -79 517 -44 q 585 -176 585 -114 q 547 -282 585 -243 q 444 -321 510 -321 q 347 -287 381 -321 q 314 -189 314 -253 q 352 -83 314 -122 q 456 -44 390 -44 z "},"ụ":{"ha":786,"x_min":58,"x_max":728,"o":"m 718 235 q 629 49 717 114 q 379 -15 542 -15 q 140 49 222 -15 q 63 235 58 114 l 65 350 l 58 713 l 315 713 l 304 269 q 322 206 303 225 q 390 188 342 188 q 459 206 439 188 q 478 269 479 225 l 467 713 l 728 713 l 719 351 l 718 235 m 399 -44 q 494 -79 460 -44 q 528 -176 528 -114 q 490 -282 528 -243 q 388 -321 453 -321 q 290 -287 324 -321 q 257 -189 257 -253 q 295 -83 257 -122 q 399 -44 333 -44 z "},"Ủ":{"ha":907,"x_min":64,"x_max":843,"o":"m 832 300 q 729 65 831 147 q 439 -17 628 -17 q 160 65 257 -17 q 68 300 64 147 l 72 443 l 64 899 l 343 899 l 331 338 q 358 235 329 267 q 450 203 386 203 q 544 235 515 203 q 572 338 574 267 l 560 899 l 843 899 l 833 443 l 832 300 m 435 1317 q 534 1283 494 1317 q 574 1194 574 1249 q 556 1138 574 1164 q 489 1067 538 1111 l 526 1007 l 438 953 l 363 1064 q 417 1118 397 1089 q 438 1169 438 1147 q 396 1203 438 1203 q 299 1167 346 1203 l 258 1232 q 341 1294 294 1271 q 435 1317 388 1317 z "},"ủ":{"ha":786,"x_min":58,"x_max":728,"o":"m 718 235 q 629 49 717 114 q 379 -15 542 -15 q 140 49 222 -15 q 63 235 58 114 l 65 350 l 58 713 l 315 713 l 304 269 q 322 206 303 225 q 390 188 342 188 q 459 206 439 188 q 478 269 479 225 l 467 713 l 728 713 l 719 351 l 718 235 m 374 1131 q 473 1097 433 1131 q 513 1008 513 1063 q 494 951 513 978 q 428 881 476 925 l 465 821 l 376 767 l 301 878 q 356 932 336 903 q 376 983 376 961 q 335 1017 376 1017 q 238 981 285 1017 l 197 1046 q 280 1108 233 1085 q 374 1131 326 1131 z "},"Ứ":{"ha":921,"x_min":64,"x_max":981,"o":"m 981 990 q 944 883 981 932 q 842 803 907 833 l 833 443 l 832 300 q 729 65 831 147 q 439 -17 628 -17 q 160 65 257 -17 q 68 300 64 147 l 72 443 l 64 899 l 343 899 l 331 338 q 358 235 329 267 q 450 203 386 203 q 544 235 515 203 q 572 338 574 267 l 560 899 l 692 899 q 753 914 735 899 q 771 965 771 929 q 731 1047 771 1014 l 735 1067 q 865 1118 807 1118 q 948 1082 915 1118 q 981 990 981 1046 m 679 1107 l 671 1085 q 340 989 488 1026 l 317 994 l 275 1104 q 588 1275 439 1188 l 611 1269 l 679 1107 z "},"ứ":{"ha":800,"x_min":51,"x_max":847,"o":"m 847 788 q 813 694 847 738 q 719 624 778 650 l 713 351 l 711 235 q 622 49 710 114 q 372 -15 535 -15 q 133 49 215 -15 q 56 235 51 114 l 58 350 l 51 713 l 308 713 l 297 269 q 315 206 296 225 q 383 188 335 188 q 452 206 432 188 q 471 269 472 225 l 460 713 l 589 713 q 638 724 624 713 q 653 764 653 736 q 619 828 653 806 l 624 846 q 744 893 692 893 q 819 863 790 893 q 847 788 847 833 m 601 921 l 593 899 q 263 803 410 840 l 239 808 l 197 918 q 510 1089 361 1001 l 533 1083 l 601 921 z "},"Ừ":{"ha":921,"x_min":64,"x_max":981,"o":"m 596 989 q 265 1085 449 1026 l 257 1107 l 325 1269 l 349 1275 q 661 1104 497 1188 l 619 994 l 596 989 m 981 990 q 944 883 981 932 q 842 803 907 833 l 833 443 l 832 300 q 729 65 831 147 q 439 -17 628 -17 q 160 65 257 -17 q 68 300 64 147 l 72 443 l 64 899 l 343 899 l 331 338 q 358 235 329 267 q 450 203 386 203 q 544 235 515 203 q 572 338 574 267 l 560 899 l 692 899 q 753 914 735 899 q 771 965 771 929 q 731 1047 771 1014 l 735 1067 q 865 1118 807 1118 q 948 1082 915 1118 q 981 990 981 1046 z "},"ừ":{"ha":800,"x_min":51,"x_max":847,"o":"m 518 803 q 188 899 371 840 l 179 921 l 247 1083 l 271 1089 q 583 918 419 1001 l 542 808 l 518 803 m 847 788 q 813 694 847 738 q 719 624 778 650 l 713 351 l 711 235 q 622 49 710 114 q 372 -15 535 -15 q 133 49 215 -15 q 56 235 51 114 l 58 350 l 51 713 l 308 713 l 297 269 q 315 206 296 225 q 383 188 335 188 q 452 206 432 188 q 471 269 472 225 l 460 713 l 589 713 q 638 724 624 713 q 653 764 653 736 q 619 828 653 806 l 624 846 q 744 893 692 893 q 819 863 790 893 q 847 788 847 833 z "},"Ử":{"ha":921,"x_min":64,"x_max":981,"o":"m 981 990 q 944 883 981 932 q 842 803 907 833 l 833 443 l 832 300 q 729 65 831 147 q 439 -17 628 -17 q 160 65 257 -17 q 68 300 64 147 l 72 443 l 64 899 l 343 899 l 331 338 q 358 235 329 267 q 450 203 386 203 q 544 235 515 203 q 572 338 574 267 l 560 899 l 692 899 q 753 914 735 899 q 771 965 771 929 q 731 1047 771 1014 l 735 1067 q 865 1118 807 1118 q 948 1082 915 1118 q 981 990 981 1046 m 435 1317 q 534 1283 494 1317 q 574 1194 574 1249 q 556 1138 574 1164 q 489 1067 538 1111 l 526 1007 l 438 953 l 363 1064 q 417 1118 397 1089 q 438 1169 438 1147 q 396 1203 438 1203 q 299 1167 346 1203 l 258 1232 q 341 1294 294 1271 q 435 1317 388 1317 z "},"ử":{"ha":800,"x_min":51,"x_max":847,"o":"m 847 788 q 813 694 847 738 q 719 624 778 650 l 713 351 l 711 235 q 622 49 710 114 q 372 -15 535 -15 q 133 49 215 -15 q 56 235 51 114 l 58 350 l 51 713 l 308 713 l 297 269 q 315 206 296 225 q 383 188 335 188 q 452 206 432 188 q 471 269 472 225 l 460 713 l 589 713 q 638 724 624 713 q 653 764 653 736 q 619 828 653 806 l 624 846 q 744 893 692 893 q 819 863 790 893 q 847 788 847 833 m 357 1131 q 456 1097 417 1131 q 496 1008 496 1063 q 478 951 496 978 q 411 881 460 925 l 449 821 l 360 767 l 285 878 q 340 932 319 903 q 360 983 360 961 q 318 1017 360 1017 q 221 981 268 1017 l 181 1046 q 263 1108 217 1085 q 357 1131 310 1131 z "},"Ữ":{"ha":921,"x_min":64,"x_max":981,"o":"m 981 990 q 944 883 981 932 q 842 803 907 833 l 833 443 l 832 300 q 729 65 831 147 q 439 -17 628 -17 q 160 65 257 -17 q 68 300 64 147 l 72 443 l 64 899 l 343 899 l 331 338 q 358 235 329 267 q 450 203 386 203 q 544 235 515 203 q 572 338 574 267 l 560 899 l 692 899 q 753 914 735 899 q 771 965 771 929 q 731 1047 771 1014 l 735 1067 q 865 1118 807 1118 q 948 1082 915 1118 q 981 990 981 1046 m 725 1174 l 613 1017 l 590 1008 q 471 1036 553 1013 q 378 1056 390 1056 q 336 1038 354 1056 q 282 975 318 1019 l 260 975 l 181 1051 l 181 1074 l 293 1231 l 315 1239 q 435 1211 353 1235 q 528 1192 515 1192 q 569 1210 551 1192 q 624 1272 588 1228 l 646 1272 l 725 1196 l 725 1174 z "},"ữ":{"ha":800,"x_min":51,"x_max":847,"o":"m 847 788 q 813 694 847 738 q 719 624 778 650 l 713 351 l 711 235 q 622 49 710 114 q 372 -15 535 -15 q 133 49 215 -15 q 56 235 51 114 l 58 350 l 51 713 l 308 713 l 297 269 q 315 206 296 225 q 383 188 335 188 q 452 206 432 188 q 471 269 472 225 l 460 713 l 589 713 q 638 724 624 713 q 653 764 653 736 q 619 828 653 806 l 624 846 q 744 893 692 893 q 819 863 790 893 q 847 788 847 833 m 647 988 l 535 831 l 513 822 q 393 850 475 826 q 300 869 313 869 q 258 851 276 869 q 204 789 240 833 l 182 789 l 103 865 l 103 888 l 215 1044 l 238 1053 q 357 1025 275 1049 q 450 1006 438 1006 q 492 1024 474 1006 q 546 1086 510 1042 l 568 1086 l 647 1010 l 647 988 z "},"Ự":{"ha":921,"x_min":64,"x_max":981,"o":"m 981 990 q 944 883 981 932 q 842 803 907 833 l 833 443 l 832 300 q 729 65 831 147 q 439 -17 628 -17 q 160 65 257 -17 q 68 300 64 147 l 72 443 l 64 899 l 343 899 l 331 338 q 358 235 329 267 q 450 203 386 203 q 544 235 515 203 q 572 338 574 267 l 560 899 l 692 899 q 753 914 735 899 q 771 965 771 929 q 731 1047 771 1014 l 735 1067 q 865 1118 807 1118 q 948 1082 915 1118 q 981 990 981 1046 m 458 -44 q 553 -79 519 -44 q 588 -176 588 -114 q 550 -282 588 -243 q 447 -321 513 -321 q 350 -287 383 -321 q 317 -189 317 -253 q 355 -83 317 -122 q 458 -44 393 -44 z "},"ự":{"ha":800,"x_min":51,"x_max":847,"o":"m 847 788 q 813 694 847 738 q 719 624 778 650 l 713 351 l 711 235 q 622 49 710 114 q 372 -15 535 -15 q 133 49 215 -15 q 56 235 51 114 l 58 350 l 51 713 l 308 713 l 297 269 q 315 206 296 225 q 383 188 335 188 q 452 206 432 188 q 471 269 472 225 l 460 713 l 589 713 q 638 724 624 713 q 653 764 653 736 q 619 828 653 806 l 624 846 q 744 893 692 893 q 819 863 790 893 q 847 788 847 833 m 399 -44 q 494 -79 460 -44 q 528 -176 528 -114 q 490 -282 528 -243 q 388 -321 453 -321 q 290 -287 324 -321 q 257 -189 257 -253 q 295 -83 257 -122 q 399 -44 333 -44 z "},"Ỳ":{"ha":825,"x_min":-11,"x_max":853,"o":"m 554 989 q 224 1085 407 1026 l 215 1107 l 283 1269 l 307 1275 q 619 1104 456 1188 l 578 994 l 554 989 m 542 0 l 264 0 l 278 236 l 276 279 l -11 899 l 281 899 l 303 824 l 404 553 l 421 553 l 538 814 l 569 899 l 853 899 l 533 289 l 531 236 l 542 0 z "},"ỳ":{"ha":729,"x_min":-4,"x_max":746,"o":"m 489 781 q 179 932 376 832 l 175 956 l 271 1104 l 294 1106 q 574 882 432 988 l 513 782 l 489 781 m 483 0 l 226 0 l 239 182 l 238 206 l -4 713 l 265 713 l 285 647 l 357 463 l 371 463 l 456 638 l 483 713 l 746 713 l 474 213 l 472 182 l 483 0 z "},"Ỵ":{"ha":825,"x_min":-11,"x_max":853,"o":"m 542 0 l 264 0 l 278 236 l 276 279 l -11 899 l 281 899 l 303 824 l 404 553 l 421 553 l 538 814 l 569 899 l 853 899 l 533 289 l 531 236 l 542 0 m 408 -44 q 503 -79 469 -44 q 538 -176 538 -114 q 500 -282 538 -243 q 397 -321 463 -321 q 300 -287 333 -321 q 267 -189 267 -253 q 305 -83 267 -122 q 408 -44 343 -44 z "},"ỵ":{"ha":729,"x_min":-4,"x_max":746,"o":"m -4 713 l 265 713 l 285 647 l 357 463 l 371 463 l 456 638 l 483 713 l 746 713 l 474 213 l 472 182 l 483 0 l 226 0 l 239 182 l 238 206 l -4 713 m 360 -44 q 455 -79 421 -44 q 489 -176 489 -114 q 451 -282 489 -243 q 349 -321 414 -321 q 251 -287 285 -321 q 218 -189 218 -253 q 256 -83 218 -122 q 360 -44 294 -44 z "},"Ỷ":{"ha":825,"x_min":-11,"x_max":853,"o":"m 542 0 l 264 0 l 278 236 l 276 279 l -11 899 l 281 899 l 303 824 l 404 553 l 421 553 l 538 814 l 569 899 l 853 899 l 533 289 l 531 236 l 542 0 m 393 1317 q 492 1283 453 1317 q 532 1194 532 1249 q 514 1138 532 1164 q 447 1067 496 1111 l 485 1007 l 396 953 l 321 1064 q 376 1118 356 1089 q 396 1169 396 1147 q 354 1203 396 1203 q 257 1167 304 1203 l 217 1232 q 299 1294 253 1271 q 393 1317 346 1317 z "},"ỷ":{"ha":729,"x_min":-4,"x_max":746,"o":"m 483 0 l 226 0 l 239 182 l 238 206 l -4 713 l 265 713 l 285 647 l 357 463 l 371 463 l 456 638 l 483 713 l 746 713 l 474 213 l 472 182 l 483 0 m 354 1131 q 453 1097 414 1131 q 493 1008 493 1063 q 475 951 493 978 q 408 881 457 925 l 446 821 l 357 767 l 282 878 q 337 932 317 903 q 357 983 357 961 q 315 1017 357 1017 q 218 981 265 1017 l 178 1046 q 260 1108 214 1085 q 354 1131 307 1131 z "},"Ỹ":{"ha":825,"x_min":-11,"x_max":853,"o":"m 542 0 l 264 0 l 278 236 l 276 279 l -11 899 l 281 899 l 303 824 l 404 553 l 421 553 l 538 814 l 569 899 l 853 899 l 533 289 l 531 236 l 542 0 m 683 1174 l 571 1017 l 549 1008 q 429 1036 511 1013 q 336 1056 349 1056 q 294 1038 313 1056 q 240 975 276 1019 l 218 975 l 139 1051 l 139 1074 l 251 1231 l 274 1239 q 393 1211 311 1235 q 486 1192 474 1192 q 528 1210 510 1192 q 582 1272 546 1228 l 604 1272 l 683 1196 l 683 1174 z "},"ỹ":{"ha":729,"x_min":-4,"x_max":746,"o":"m 483 0 l 226 0 l 239 182 l 238 206 l -4 713 l 265 713 l 285 647 l 357 463 l 371 463 l 456 638 l 483 713 l 746 713 l 474 213 l 472 182 l 483 0 m 644 988 l 532 831 l 510 822 q 390 850 472 826 q 297 869 310 869 q 256 851 274 869 q 201 789 238 833 l 179 789 l 100 865 l 100 888 l 213 1044 l 235 1053 q 354 1025 272 1049 q 447 1006 435 1006 q 489 1024 471 1006 q 543 1086 507 1042 l 565 1086 l 644 1010 l 644 988 z "},"–":{"ha":626,"x_min":-21,"x_max":647,"o":"m 635 271 l -4 271 l -21 289 l -8 451 l 631 451 l 647 433 l 635 271 z "},"—":{"ha":1168,"x_min":-26,"x_max":1194,"o":"m 1182 271 l -10 271 l -26 289 l -14 451 l 1178 451 l 1194 433 l 1182 271 z "},"‘":{"ha":351,"x_min":49,"x_max":306,"o":"m 132 475 q 49 636 49 531 q 207 914 49 768 l 297 856 l 301 839 q 247 717 247 778 q 260 647 247 675 q 306 594 274 618 l 306 574 q 132 475 214 506 z "},"’":{"ha":351,"x_min":47,"x_max":304,"o":"m 221 915 q 304 754 304 860 q 146 476 304 622 l 56 535 l 51 551 q 106 674 106 613 q 92 744 106 715 q 47 796 79 772 l 47 817 q 221 915 139 885 z "},"‚":{"ha":317,"x_min":-15,"x_max":283,"o":"m 217 254 q 283 107 283 192 q 232 -48 283 26 q 72 -197 181 -122 l -12 -124 l -15 -104 q 63 47 63 -36 q 17 151 63 106 l 18 174 q 217 254 118 229 z "},"“":{"ha":636,"x_min":49,"x_max":590,"o":"m 417 475 q 333 636 333 531 q 492 914 333 768 l 582 856 l 586 839 q 532 717 532 778 q 545 647 532 675 q 590 594 558 618 l 590 574 q 417 475 499 506 m 132 475 q 49 636 49 531 q 207 914 49 768 l 297 856 l 301 839 q 247 717 247 778 q 260 647 247 675 q 306 594 274 618 l 306 574 q 132 475 214 506 z "},"”":{"ha":622,"x_min":47,"x_max":575,"o":"m 492 915 q 575 754 575 860 q 417 476 575 622 l 326 535 l 322 551 q 376 674 376 613 q 363 744 376 715 q 318 796 350 772 l 318 817 q 492 915 410 885 m 221 915 q 304 754 304 860 q 146 476 304 622 l 56 535 l 51 551 q 106 674 106 613 q 92 744 106 715 q 47 796 79 772 l 47 817 q 221 915 139 885 z "},"„":{"ha":601,"x_min":-15,"x_max":568,"o":"m 501 254 q 568 107 568 192 q 517 -48 568 26 q 357 -197 465 -122 l 272 -124 l 269 -104 q 347 47 347 -36 q 301 151 347 106 l 303 174 q 501 254 403 229 m 217 254 q 283 107 283 192 q 232 -48 283 26 q 72 -197 181 -122 l -12 -124 l -15 -104 q 63 47 63 -36 q 17 151 63 106 l 18 174 q 217 254 118 229 z "},"†":{"ha":729,"x_min":51,"x_max":678,"o":"m 449 404 l 450 -118 l 285 -131 l 268 -112 l 268 388 l 268 408 l 68 408 l 51 426 l 64 586 l 268 586 l 269 811 l 439 824 l 454 808 l 451 586 l 661 586 l 678 568 l 665 408 l 449 408 l 449 404 z "},"‡":{"ha":729,"x_min":51,"x_max":678,"o":"m 678 231 l 665 71 l 450 71 l 450 -118 l 285 -131 l 268 -112 l 268 71 l 68 71 l 51 89 l 64 249 l 268 249 l 268 388 l 268 432 l 68 432 l 51 450 l 64 610 l 269 610 l 269 811 l 439 824 l 454 808 l 451 610 l 661 610 l 678 592 l 665 432 l 449 432 l 449 404 l 449 249 l 661 249 l 678 231 z "},"•":{"ha":419,"x_min":18,"x_max":393,"o":"m 215 622 q 346 574 299 622 q 393 440 393 526 q 341 295 393 348 q 199 241 289 241 q 65 288 111 241 q 20 423 20 335 q 72 568 20 515 q 215 622 125 622 z "},"․":{"ha":317,"x_min":22,"x_max":293,"o":"m 164 264 q 259 229 225 264 q 293 132 293 194 q 256 26 293 65 q 153 -12 218 -12 q 56 22 89 -12 q 22 119 22 56 q 60 225 22 186 q 164 264 99 264 z "},"‥":{"ha":636,"x_min":15,"x_max":606,"o":"m 476 264 q 572 229 538 264 q 606 132 606 194 q 568 26 606 65 q 465 -12 531 -12 q 368 22 401 -12 q 335 119 335 56 q 373 225 335 186 q 476 264 411 264 m 157 264 q 252 229 218 264 q 286 132 286 194 q 249 26 286 65 q 146 -12 211 -12 q 49 22 82 -12 q 15 119 15 56 q 53 225 15 186 q 157 264 92 264 z "},"…":{"ha":956,"x_min":15,"x_max":925,"o":"m 476 264 q 572 229 538 264 q 606 132 606 194 q 568 26 606 65 q 465 -12 531 -12 q 368 22 401 -12 q 335 119 335 56 q 373 225 335 186 q 476 264 411 264 m 796 264 q 891 229 857 264 q 925 132 925 194 q 888 26 925 65 q 785 -12 850 -12 q 688 22 721 -12 q 654 119 654 56 q 692 225 654 186 q 796 264 731 264 m 157 264 q 252 229 218 264 q 286 132 286 194 q 249 26 286 65 q 146 -12 211 -12 q 49 22 82 -12 q 15 119 15 56 q 53 225 15 186 q 157 264 92 264 z "},"‰":{"ha":1757,"x_min":28,"x_max":1728,"o":"m 976 865 l 335 -131 l 221 -61 l 213 -37 l 857 964 l 963 899 l 976 865 m 275 910 q 437 846 381 910 q 493 661 493 782 q 430 460 493 531 q 249 390 367 390 q 85 454 142 390 q 28 636 28 518 q 92 839 28 768 q 275 910 157 910 m 258 743 q 203 722 219 743 q 188 649 188 701 q 203 567 188 592 q 260 543 219 543 q 318 566 301 543 q 335 640 335 589 q 317 719 335 696 q 258 743 300 743 m 988 510 q 1149 446 1093 510 q 1206 261 1206 382 q 1142 60 1206 131 q 961 -10 1079 -10 q 797 54 854 -10 q 740 236 740 118 q 805 439 740 368 q 988 510 869 510 m 1510 510 q 1672 446 1615 510 q 1728 261 1728 382 q 1665 60 1728 131 q 1483 -10 1601 -10 q 1319 54 1376 -10 q 1263 236 1263 118 q 1327 439 1263 368 q 1510 510 1392 510 m 971 343 q 916 322 932 343 q 900 249 900 301 q 916 167 900 192 q 972 143 932 143 q 1031 166 1014 143 q 1047 240 1047 189 q 1030 319 1047 296 q 971 343 1013 343 m 1493 343 q 1438 322 1454 343 q 1422 249 1422 301 q 1438 167 1422 192 q 1494 143 1454 143 q 1553 166 1536 143 q 1569 240 1569 189 q 1552 319 1569 296 q 1493 343 1535 343 z "},"′":{"ha":347,"x_min":74,"x_max":297,"o":"m 231 517 l 108 497 l 88 513 l 74 885 l 283 897 l 297 881 l 231 517 z "},"″":{"ha":618,"x_min":74,"x_max":568,"o":"m 501 517 l 379 497 l 358 513 l 344 885 l 554 897 l 568 881 l 501 517 m 231 517 l 108 497 l 88 513 l 74 885 l 283 897 l 297 881 l 231 517 z "},"‹":{"ha":361,"x_min":32,"x_max":338,"o":"m 32 335 l 206 590 l 332 525 l 338 501 l 226 319 l 338 139 l 332 115 l 206 50 l 32 297 l 32 335 z "},"›":{"ha":361,"x_min":31,"x_max":336,"o":"m 336 310 l 163 54 l 36 119 l 31 143 l 142 325 l 31 506 l 36 529 l 163 594 l 336 347 l 336 310 z "},"⁄":{"ha":190,"x_min":-310,"x_max":454,"o":"m 454 865 l -187 -131 l -301 -61 l -310 -37 l 335 964 l 440 899 l 454 865 z "},"⁰":{"ha":522,"x_min":28,"x_max":493,"o":"m 275 985 q 437 915 381 985 q 493 714 493 844 q 430 494 493 571 q 249 417 367 417 q 85 486 142 417 q 28 686 28 556 q 92 907 28 829 q 275 985 156 985 m 258 803 q 203 780 219 803 q 188 700 188 757 q 203 612 188 639 q 260 585 219 585 q 318 610 301 585 q 335 690 335 635 q 317 777 335 751 q 258 803 300 803 z "},"⁴":{"ha":535,"x_min":18,"x_max":510,"o":"m 438 524 l 444 439 l 433 426 l 274 418 l 263 429 l 267 526 l 146 526 l 31 522 l 18 538 l 18 660 l 249 972 l 438 972 l 433 674 l 499 674 l 510 657 l 501 522 l 438 524 m 271 674 l 269 763 l 258 763 l 190 674 l 271 674 z "},"⁵":{"ha":471,"x_min":15,"x_max":438,"o":"m 418 822 l 404 808 l 290 822 l 217 822 l 217 781 l 276 768 q 395 716 357 753 q 433 617 433 679 q 358 470 433 525 q 160 415 283 415 q 26 428 96 415 l 15 567 l 28 579 q 160 561 94 561 q 238 596 238 561 q 225 621 238 613 q 183 633 213 629 l 72 650 l 61 664 l 60 956 l 79 975 l 143 972 l 306 972 l 425 979 l 438 968 l 418 822 z "}}}
